<svg width="491" height="484" viewBox="0 0 491 484" fill="none" xmlns="http://www.w3.org/2000/svg">
<g clip-path="url(#clip0_112_223)">
<path d="M51.3535 88.457C70.3001 70.2058 98.0211 68.056 122.491 84.3542C129.023 88.7039 136.478 90.2838 143.416 88.0356C147.227 86.7783 150.612 84.4873 153.191 81.4191C170.871 60.825 197.564 55.2425 223 69.376C239.263 78.4819 254.048 89.9934 266.854 103.519C289.93 127.755 317.076 144.324 345.046 149.651C347.108 150.042 349.159 150.489 351.198 150.991C368.71 155.287 384.476 172.757 389.326 194.507C389.762 196.446 390.394 198.335 391.213 200.146C394.965 208.446 402.42 213.785 409.382 213.122C409.657 213.096 409.929 213.063 410.199 213.02C424.072 210.837 438.982 222.375 444.761 239.914L444.917 240.393C467.405 309.454 433.351 382.375 368.855 403.276C346.114 410.619 321.657 410.791 298.814 403.768C274.249 396.342 249.482 396.05 227.303 404.696C224.809 405.666 222.276 406.569 219.704 407.405C136.216 434.459 42.9122 377.727 11.3204 280.686C-12.4535 207.677 5.46765 132.66 51.3535 88.457Z" fill="#77EE9B"/>
<path d="M44.2016 221.891C29.7493 192.705 32.4476 161.941 50.2273 153.18H50.2385C54.2353 151.208 57.6598 148.248 60.1862 144.583C62.7126 140.917 64.2569 136.668 64.6722 132.239C68.9357 87.2411 90.7928 52.9497 119.307 51.084C143.652 49.4892 166.281 71.9658 178.671 105.995C180.429 110.82 183.144 115.241 186.655 118.994C190.165 122.747 194.398 125.754 199.101 127.837C222.427 138.163 228.893 174.504 213.544 209.007C213.1 210.004 212.968 211.111 213.168 212.184C213.367 213.257 213.887 214.244 214.661 215.016C222.253 222.576 226.763 232.677 227.319 243.363C227.874 254.05 224.435 264.562 217.668 272.864C211.159 280.848 207.916 290.991 208.59 301.26C209.064 308.497 207.705 315.737 204.64 322.314C201.574 328.891 196.9 334.593 191.048 338.896C185.195 343.199 178.352 345.966 171.148 346.94C163.943 347.915 156.609 347.066 149.819 344.473C140.249 340.797 129.994 339.233 119.761 339.888C106.693 340.743 93.8193 336.384 83.9727 327.771C74.126 319.157 68.1126 306.995 67.2552 293.958C67.1659 292.614 67.1491 291.281 67.1677 289.955C58.5343 285.311 51.7345 277.883 47.8789 268.885C44.0233 259.888 43.3397 249.852 45.9397 240.417C47.651 234.234 47.0238 227.64 44.1774 221.889L44.2016 221.891Z" fill="#1DE258"/>
<path d="M200.709 21.0348C201.081 28.0468 201.327 34.5352 201.364 40.8362C201.402 47.1371 201.195 53.1484 200.665 58.8683C200.229 64.2849 199.425 69.6657 198.257 74.9734C198.07 76.2339 197.601 77.4332 197.326 78.6325C197.059 79.8193 196.719 80.9886 196.308 82.1339L195.203 85.4755L193.9 89.2368L188.219 105.164C186.296 110.733 184.206 116.705 182.449 123.212C180.414 130.288 178.974 137.521 178.145 144.835C177.942 146.888 177.711 148.812 177.654 150.986L177.546 157.496C177.696 162.198 178.225 166.879 179.126 171.496C179.349 172.697 179.611 173.889 179.87 175.079C180.207 176.29 180.59 177.504 180.966 178.712L182.141 182.325L182.76 184.12L183.534 185.884C184.606 188.218 185.721 190.538 186.884 192.811C188.211 194.97 189.562 197.118 190.978 199.21L192.054 200.769C192.274 201.091 192.311 201.124 192.426 201.267L192.707 201.638L193.839 203.107C194.592 204.093 195.365 205.045 196.109 206.077L198.378 209.146L200.592 212.302C202.126 214.389 203.484 216.605 204.98 218.763C206.428 220.948 207.772 223.192 209.236 225.411C211.935 229.918 214.659 234.494 217.166 239.188C222.386 248.756 226.802 258.74 230.369 269.036L231.103 271.067L231.672 273.11C232.078 274.478 232.437 275.866 232.897 277.288C233.34 278.694 233.694 280.127 233.957 281.577C234.24 283.018 234.616 284.505 234.973 286.02C235.383 287.549 235.411 289.009 235.718 290.575L236.479 295.343C236.851 298.545 237.037 301.841 237.516 305.435C240.241 303.188 242.807 300.756 245.196 298.156C247.451 295.395 249.544 292.506 251.465 289.504C252.353 287.965 253.261 286.396 254.071 284.787C254.949 283.194 255.738 281.555 256.434 279.875C257.151 278.204 257.769 276.507 258.429 274.786C258.757 273.926 259.077 273.058 259.371 272.187L260.102 269.567C263.946 255.394 264.907 240.596 262.931 226.046C262.607 222.373 261.771 218.902 261.144 215.295C260.4 211.741 259.445 208.27 258.505 204.753C256.43 197.812 253.849 191.031 250.782 184.466C249.322 181.133 247.542 177.927 245.782 174.693C244.946 173.063 243.906 171.494 242.933 169.903L241.444 167.525L241.072 166.931C240.966 166.781 240.874 166.623 240.795 166.458L240.644 166.042C240.423 165.515 240.151 165.011 239.831 164.538C239.705 164.014 239.534 163.501 239.321 163.006L239.135 162.654L239.047 162.232C238.988 161.954 238.915 161.675 238.833 161.408L238.556 160.599C238.529 160.269 238.485 159.94 238.424 159.615C238.106 158.152 237.888 156.67 237.771 155.178C237.746 154.249 237.7 153.321 237.637 152.393C237.573 151.465 237.702 150.304 237.653 149.263C237.717 144.874 238.1 139.834 238.699 134.103C239.293 128.435 239.924 122.318 240.458 115.723C240.709 112.514 240.886 109.02 241.025 105.643C241.063 102.087 241.211 98.6901 241.005 94.9919C240.93 93.1521 240.889 91.42 240.729 89.5116L240.125 83.5708C239.939 81.5936 239.496 79.6889 239.133 77.7804C238.738 75.8812 238.388 73.9727 237.811 72.1534C233.941 58.0826 226.755 45.1389 216.851 34.4015C212.178 29.1586 206.736 24.6519 200.709 21.0348Z" fill="#118835"/>
<path d="M216.271 67.0925C218.132 77.5234 218.222 88.1923 216.537 98.6529C215.048 109.112 212.456 119.388 210.18 129.783C207.534 140.209 206.098 150.904 205.899 161.657C205.85 172.718 209.312 183.512 215.79 192.489C221.779 201.134 226.938 210.322 231.199 219.932C235.524 229.521 238.873 239.519 241.196 249.775C243.541 260.035 244.513 270.559 244.088 281.074C243.653 291.66 241.431 302.098 237.517 311.947C242.13 302.282 244.971 291.87 245.905 281.206C246.798 270.5 246.171 259.722 244.044 249.191C239.706 228.09 231.135 208.083 218.846 190.373C218.05 189.259 217.415 188.179 216.732 187.094C216.083 185.999 215.32 184.961 214.758 183.818C213.598 181.545 212.63 179.179 211.864 176.746C211.43 175.543 211.078 174.313 210.809 173.063L210.075 169.287C209.82 168.03 209.806 166.729 209.657 165.45C209.5 164.167 209.42 162.876 209.417 161.584L209.372 157.695C209.413 156.395 209.517 155.096 209.584 153.796C209.666 151.197 210.096 148.589 210.353 145.984C211.109 140.786 211.998 135.584 213.019 130.377C215.042 119.98 217.274 109.526 218.344 98.8869C219.556 88.2501 218.853 77.483 216.271 67.0925Z" fill="#16AE44"/>
<path d="M288.22 45.6464C283.236 50.1161 278.876 55.2317 275.254 60.8566C271.478 66.5209 268.317 72.57 265.825 78.9017C263.225 85.4692 261.371 92.3067 260.298 99.286C259.959 101.059 259.843 102.884 259.672 104.703C259.535 106.528 259.315 108.359 259.35 110.221L259.382 115.822C259.43 117.632 259.583 119.305 259.7 121.057C259.886 124.584 260.394 127.859 260.794 131.268C261.288 134.528 261.805 137.873 262.389 141.001C263.577 147.386 264.842 153.41 266.009 159.121C267.196 164.876 268.123 170.163 268.65 175.016C269.236 179.195 269.273 183.432 268.759 187.62C268.702 188.067 268.674 188.518 268.64 188.97L268.339 190.189L268.08 191.416L267.965 192.033L267.736 192.59C267.453 193.347 267.224 194.123 267.001 194.914C266.604 195.657 266.227 196.399 265.901 197.172L265.665 197.762C265.583 197.968 265.276 198.505 265.093 198.844L263.824 201.196C262.99 202.769 262.097 204.321 261.388 205.925C259.883 209.111 258.37 212.28 257.138 215.545C254.545 222 252.395 228.622 250.701 235.367C249.956 238.776 249.171 242.143 248.599 245.578C248.136 249.049 247.455 252.419 247.269 255.933C245.872 269.873 247.108 283.951 250.913 297.437L251.642 299.93L252.558 302.394C253.187 304.024 253.767 305.648 254.445 307.236C255.099 308.836 255.845 310.398 256.678 311.914C257.456 313.451 258.301 314.951 259.127 316.431C260.861 319.372 263.002 322.106 264.95 324.785C267.163 327.301 269.508 329.698 271.977 331.964C271.791 328.557 271.368 325.407 271.127 322.292L271.006 317.599C271.022 316.043 270.79 314.595 270.914 313.052C270.993 311.522 271.084 310.015 271.112 308.544C271.112 307.072 271.204 305.602 271.389 304.141C271.588 302.667 271.692 301.226 271.841 299.797L272.055 297.664L272.448 295.517C274.259 284.447 277.178 273.587 281.161 263.098L281.859 261.152L282.653 259.223L284.211 255.382C285.242 252.826 286.472 250.323 287.527 247.8C288.772 245.323 289.893 242.819 291.152 240.374C292.455 237.949 293.633 235.486 295.008 233.134C295.689 231.955 296.311 230.743 296.996 229.579L299.069 226.109C299.743 224.935 300.474 223.844 301.179 222.722L302.24 221.052L302.821 220.123L303.667 218.657C308.352 210.858 311.331 202.16 312.408 193.132C312.926 188.897 313.105 184.628 312.944 180.365L312.438 174.383C312.252 172.387 311.906 170.587 311.599 168.689C310.346 161.755 308.56 154.928 306.256 148.268C304.196 142.008 301.877 136.158 299.743 130.596L296.523 122.362L295.034 118.367C294.515 117.023 294.02 115.712 293.587 114.413L292.211 110.514L291.074 106.89C290.664 105.661 290.325 104.408 290.058 103.14C289.779 101.863 289.332 100.595 289.152 99.2675C288.923 97.9494 288.662 96.6183 288.391 95.2742L287.812 91.1639C287.568 89.7789 287.466 88.3791 287.343 86.9571C287.22 85.535 287.086 84.1129 287.017 82.6648C286.386 70.3135 286.788 57.931 288.22 45.6464Z" fill="#1DE258"/>
<path d="M274.197 71.6799C272.55 82.2273 272.778 92.9814 274.869 103.45C276.816 113.93 279.903 124.139 282.707 134.366C284.135 139.479 285.429 144.615 286.587 149.775C287.051 152.374 287.684 154.944 287.972 157.561C288.141 158.861 288.344 160.16 288.489 161.473L288.752 165.403C289.504 175.907 286.898 186.378 281.308 195.311C275.908 204.538 271.402 214.258 267.853 224.339C264.245 234.398 261.727 244.813 260.34 255.406C258.932 265.999 258.987 276.734 260.502 287.312C262.077 297.868 265.504 308.066 270.628 317.435C265.846 307.947 262.727 297.712 261.407 287.174C260.081 276.679 260.2 266.052 261.758 255.588C264.892 234.631 272.073 214.479 282.905 196.253C288.623 186.989 291.26 176.16 290.44 165.312C289.527 154.66 287.393 144.147 284.079 133.98C281.101 123.769 277.878 113.657 275.759 103.276C273.439 92.9091 272.911 82.2237 274.197 71.6799Z" fill="#16AE44"/>
<path d="M380.38 140.279C375.388 143.518 370.852 147.408 366.894 151.847C362.796 156.3 359.183 161.176 356.119 166.391C352.914 171.792 350.34 177.541 348.446 183.526C347.903 185.036 347.551 186.623 347.143 188.197C346.736 189.772 346.323 191.353 346.096 192.994L345.351 197.918C345.143 199.513 345.046 201.002 344.907 202.559C344.585 205.68 344.575 208.624 344.454 211.665C344.438 214.595 344.428 217.606 344.51 220.43C344.668 226.198 344.946 231.662 345.18 236.837C345.426 242.054 345.508 246.822 345.299 251.155C345.238 254.904 344.683 258.629 343.65 262.234C343.539 262.619 343.451 263.012 343.36 263.404L342.927 264.432L342.53 265.474L342.344 265.999L342.065 266.463C341.711 267.089 341.402 267.739 341.097 268.403C340.647 268.996 340.213 269.595 339.819 270.234L339.53 270.718C339.43 270.889 339.087 271.309 338.879 271.591L337.439 273.481C336.491 274.745 335.49 275.985 334.647 277.298C332.885 279.886 331.111 282.461 329.585 285.156C323.177 295.76 318.375 307.25 315.334 319.255C312.173 331.302 311.31 343.834 312.79 356.199C314.431 368.441 318.792 380.382 326.511 389.404C326.814 386.387 326.883 383.564 327.103 380.794C327.508 377.983 327.76 375.295 328.197 372.653C329.112 367.514 330.372 362.443 331.967 357.472C335.091 348.004 339.157 338.87 344.103 330.208C348.908 321.675 354.358 313.519 360.405 305.812C361.894 303.888 363.395 302.03 364.94 300.205C365.684 299.277 366.488 298.41 367.262 297.523L368.426 296.199L369.064 295.456L370.011 294.283C375.198 288.087 379.014 280.867 381.208 273.097C382.248 269.449 382.995 265.724 383.442 261.958L383.823 256.635C383.94 254.858 383.883 253.23 383.875 251.52C383.737 245.264 383.115 239.027 382.014 232.866C381.071 227.085 379.846 221.631 378.737 216.453C377.567 211.231 376.485 206.255 375.574 201.397L374.905 197.779L374.41 194.437C374.221 193.301 374.097 192.155 374.038 191.004C373.969 189.846 373.753 188.671 373.778 187.477C373.574 182.517 373.715 177.549 374.202 172.608C375.357 161.679 377.424 150.866 380.38 140.279Z" fill="#1DE258"/>
<path d="M364.474 161.2C361.373 170.203 359.913 179.687 360.166 189.204C360.295 198.714 361.469 208.14 362.466 217.502C362.976 222.188 363.368 226.858 363.641 231.513C363.67 233.836 363.853 236.169 363.728 238.477C363.691 239.631 363.683 240.79 363.62 241.941L363.287 245.374C362.498 254.497 358.833 263.136 352.819 270.054C340.596 284.843 331.51 301.954 326.11 320.35C323.447 329.534 322.102 339.047 322.115 348.608C322.171 358.128 323.942 367.56 327.344 376.455C321.795 358.276 323.3 338.893 328.894 321.178C331.729 312.284 335.449 303.695 339.997 295.54C344.487 287.361 349.738 279.621 355.681 272.423C362.113 264.923 365.998 255.584 366.782 245.745C367.405 236.191 366.921 226.598 365.34 217.155C364.085 207.78 362.535 198.495 361.979 189.122C361.241 179.741 362.084 170.303 364.474 161.2Z" fill="#16AE44"/>
<path d="M109.206 190.718C113.327 192.844 117.322 195.206 121.17 197.792C121.803 198.215 122.55 198.435 123.313 198.425C124.075 198.414 124.816 198.173 125.437 197.732C126.058 197.292 126.53 196.673 126.791 195.958C127.052 195.244 127.088 194.467 126.896 193.731C124.803 186.26 123.126 178.679 121.871 171.023C120.08 156.698 119.878 142.219 121.27 127.85C122.073 118.362 123.467 108.932 125.443 99.6165C125.595 121.605 126.155 147.976 130.357 169.571C131.239 174.647 134.252 184.794 137.667 196.757C137.885 197.522 138.34 198.198 138.967 198.689C139.594 199.179 140.361 199.458 141.157 199.485C141.954 199.513 142.738 199.287 143.398 198.842C144.058 198.396 144.559 197.752 144.828 197.004C146.524 192.285 148.29 187.508 149.806 183.623C153.947 172.692 160.328 157.37 165.705 146.864C163.189 156.041 156.616 178.334 154.489 185.227C152.879 190.672 150.255 199.167 147.603 207.638C145.224 215.251 144.903 223.355 146.672 231.13C149.364 242.711 151.407 254.432 152.791 266.239C154.948 284.432 155.013 305.515 149.924 323.265C150.742 304.512 149.147 285.732 145.176 267.384C142.5 253.776 139.742 242.136 136.281 228.869C133.737 219.12 128.015 210.493 120.014 204.347C115.705 201.09 111.233 198.054 106.615 195.25C94.0465 187.821 81.0769 181.088 67.7655 175.083C82.1453 178.657 96.0541 183.905 109.206 190.718Z" fill="#16AE44"/>
<mask id="mask0_112_223" style="mask-type:luminance" maskUnits="userSpaceOnUse" x="0" y="61" width="452" height="354">
<path d="M51.3535 88.457C70.3001 70.2058 98.0211 68.056 122.491 84.3542C129.023 88.7039 136.478 90.2838 143.416 88.0356C147.227 86.7783 150.612 84.4873 153.191 81.4191C170.871 60.825 197.564 55.2425 223 69.376C239.263 78.4819 254.048 89.9934 266.854 103.519C289.93 127.755 317.076 144.324 345.046 149.651C347.108 150.042 349.159 150.489 351.198 150.991C368.71 155.287 384.476 172.757 389.326 194.507C389.762 196.446 390.394 198.335 391.213 200.146C394.965 208.446 402.42 213.785 409.382 213.122C409.657 213.096 409.929 213.063 410.199 213.02C424.072 210.837 438.982 222.375 444.761 239.914L444.917 240.393C467.405 309.454 433.351 382.375 368.855 403.276C346.114 410.619 321.657 410.791 298.814 403.768C274.249 396.342 249.482 396.05 227.303 404.696C224.809 405.666 222.276 406.569 219.704 407.405C136.216 434.459 42.9122 377.727 11.3204 280.686C-12.4535 207.677 5.46765 132.66 51.3535 88.457Z" fill="white"/>
</mask>
<g mask="url(#mask0_112_223)">
<path d="M64.1796 175.842C65.164 172.023 70.572 170.109 76.2591 171.572C77.8321 171.997 79.3741 172.529 80.8743 173.163C84.4718 174.673 88.5215 174.702 92.1406 173.245C93.9321 172.507 95.8506 172.125 97.7887 172.12C106.009 172.12 113.793 178.477 116.994 184.571C117.859 186.216 116.843 187.948 116.892 189.714C117.413 208.951 107.801 205.995 97.3644 205.995C86.928 205.995 79.4767 199.902 79.4767 191.591C79.4767 191.242 79.4916 190.887 79.5214 190.527C79.6297 189.418 79.2944 188.312 78.5886 187.448C77.8828 186.585 76.8635 186.035 75.7529 185.917C74.7214 185.82 73.6983 185.648 72.6916 185.403C67.0064 183.94 63.1951 179.661 64.1796 175.842Z" fill="#32285F"/>
<path d="M128.623 259.676C129.037 254.79 128.837 249.872 128.027 245.036C127.563 241.939 127.785 238.779 128.677 235.777C129.568 232.775 131.108 230.004 133.188 227.659C133.61 227.176 134.029 226.731 134.44 226.341C135.924 224.863 137.081 223.092 137.839 221.142C138.596 219.192 138.936 217.105 138.838 215.016C138.714 211.836 139.662 208.706 141.531 206.127C142.996 204.034 144.851 202.242 146.996 200.849C151.859 197.623 155.259 192.625 156.469 186.926C157.714 181.618 161.426 176.344 171.304 175.878C174.777 171.929 178.919 169.324 184.057 170.494C190.305 171.918 195.255 180.504 198.519 186.525C201.999 192.942 205.745 205.752 198.674 213.132C195.221 216.733 193.4 226.294 195.932 230.685C204.199 245.012 190.379 268.329 193.8 280.136C195.38 285.591 195.847 290.999 193.582 294.836C191.84 297.899 189.148 300.313 185.911 301.717C182.674 303.12 179.067 303.435 175.635 302.615C174.026 302.274 172.35 302.461 170.856 303.148L170.832 303.159C157.654 309.051 140.485 299.394 132.483 281.586C129.32 274.738 127.99 267.189 128.623 259.676Z" fill="#FFA50A"/>
<path d="M312.714 379.087C311.64 376.384 310.853 373.559 310.321 372.532C309.887 371.935 309.411 371.37 308.895 370.843C308.151 369.966 306.848 368.73 306.677 367.59L305.878 362.815C305.532 360.5 304.148 358.917 301.827 359.258C299.317 359.63 298.496 361.943 299.158 364.388L299.661 367.739C300.019 369.72 299.959 371.754 299.486 373.711C298.87 377.795 300.558 382.251 302.25 385.706C303.31 387.872 306.422 388.832 310.624 389.881C312.691 390.395 316.054 390.577 314.452 388.426C313.11 386.623 306.842 384.618 307.663 378.189C307.704 377.871 307.866 377.075 308.253 376.999C309.401 376.793 309.997 379.318 310.737 380.484C311.776 382.117 313.112 382.643 313.836 382.34C314.612 382.03 313.484 381.009 312.714 379.087Z" fill="#FAB9AF"/>
<path d="M310.386 223.352C297.979 241.36 277.586 278.694 281.857 306.697C284.777 325.849 299.027 366.326 299.027 366.326C300.327 366.346 301.627 366.274 302.918 366.111C304.205 365.884 305.468 365.532 306.686 365.06C306.686 365.06 296.058 309.146 297.832 299.165C299.605 289.185 323.638 241.811 325.415 231.843C327.49 220.205 317.338 213.262 310.386 223.352Z" fill="#0E133A"/>
<path d="M303.761 330.774L319.817 218.228L363.133 212.296L385.664 329.961L303.761 330.774Z" fill="#FAB9AF"/>
<path d="M352.006 331.862L304.008 327.843C304.008 327.843 299.17 362.695 311.305 425.782C316.996 455.367 328.85 511.901 328.85 511.901C331.657 513.191 334.82 513.49 337.82 512.75C337.82 512.75 338.721 487.811 339.272 460.953C339.798 435.198 339.942 407.672 341.587 398.674C344.953 380.281 352.006 331.862 352.006 331.862Z" fill="#1E2D64"/>
<path d="M338.049 506.478C337.305 500.963 334.955 456.548 330.89 441.776C325.359 421.668 341.233 399.13 336.343 384.596C321.967 341.859 332.885 332.497 332.885 332.497L352.021 331.864C352.021 331.864 344.961 380.283 341.6 398.677C339.955 407.681 339.812 435.202 339.285 460.957C338.896 479.654 338.343 497.411 338.049 506.478Z" fill="#0F1446"/>
<path d="M342.106 332.469C337.15 359 326.081 398.675 347.404 435.946C368.727 473.217 391.126 511.968 391.126 511.968C394.017 512.018 396.831 511.037 399.061 509.2C399.061 509.2 395.322 492.306 389.918 472.573C383.734 450.002 375.903 423.454 378.134 409.612C382.316 383.669 387.119 349.12 385.664 332.341C384.209 315.562 344.713 318.518 342.106 332.469Z" fill="#1E2D64"/>
<path d="M304.423 332.369C303.606 331.974 302.938 331.325 302.52 330.52C302.102 329.715 301.956 328.797 302.105 327.902L319.812 218.228L363.128 212.296L386.408 328.11C386.514 328.626 386.515 329.158 386.412 329.675C386.31 330.192 386.106 330.684 385.811 331.121C385.517 331.559 385.139 331.934 384.698 332.224C384.258 332.515 383.764 332.716 383.245 332.814C366.988 335.847 350.493 337.422 333.955 337.522C317.711 337.522 308.577 334.37 304.423 332.369Z" fill="white"/>
<path d="M353.4 241.336C358.681 255.592 367.082 283.744 362.26 308.481C355.468 343.331 346.732 357.42 358.054 365.543C369.376 373.665 391.09 360.112 391.716 355.595C392.341 351.079 387.491 295.579 381.992 271.535C376.493 247.492 361.09 212.926 361.09 212.926L353.052 213.644C353.052 213.644 350.88 234.532 353.4 241.336Z" fill="#0E133A"/>
<path d="M359.339 245.346C356.023 237.771 354.655 229.491 355.36 221.256C356.01 220.441 356.864 219.811 357.835 219.428C358.805 219.046 359.86 218.923 360.893 219.073C361.926 219.224 362.901 219.641 363.722 220.285C364.543 220.928 365.18 221.775 365.571 222.741C370.354 234.57 378.287 255.341 381.992 271.539C387.491 295.579 362.318 251.958 359.339 245.346Z" fill="#0A0D29"/>
<path d="M327.417 217.186C327.417 217.186 324.058 232.816 326.673 256.085C329.288 279.355 335.366 350.21 314.139 360.92C307.418 364.308 292.068 346.844 292.068 343.736C292.068 338.167 297.192 319.533 302.045 302.591C305.953 288.982 309.885 243.506 311.285 226.142C311.44 224.206 312.255 222.381 313.594 220.97C314.933 219.559 316.715 218.648 318.645 218.387L327.417 217.186Z" fill="#0E133A"/>
<path d="M391.991 300.818C391.991 300.818 397.873 307.336 397.016 308.379C396.158 309.423 392.964 306.489 392.441 306.684C391.918 306.879 396.971 312.898 397.996 313.925C398.988 314.914 398.437 315.658 397.367 316.006C396.677 316.23 397.066 318.048 396.673 318.692C396.281 319.336 395.644 320.509 394.271 320.25C392.897 319.99 386.038 311.251 386.233 307.731C386.429 304.211 389.051 299.709 391.991 300.818Z" fill="#EA9F96"/>
<path d="M385.193 298.787C386.355 298.16 387.478 297.466 388.558 296.707C389.931 295.696 391.874 294.268 394.141 292.601C394.655 292.223 395.254 291.976 395.885 291.881C396.516 291.785 397.161 291.844 397.765 292.053C398.368 292.261 398.911 292.613 399.348 293.077C399.785 293.542 400.102 294.105 400.273 294.719C400.516 295.608 400.438 296.554 400.053 297.392C399.668 298.229 399 298.905 398.166 299.301C395.213 300.703 392.812 301.844 391.414 302.533C390.4 302.974 389.553 303.726 388.995 304.679C388.301 305.856 388.221 306.721 388.273 309.972C388.321 313.082 390.149 314.327 391.171 315.913C393.052 318.826 396.391 320.213 394.593 321.163C393.147 321.928 389.672 320.352 387.406 317.461C385.896 315.554 384.686 313.429 383.818 311.158C380.665 302.75 383.44 299.782 385.193 298.787Z" fill="#FAB9AF"/>
<path d="M358.793 169.614C358.403 173.626 359.512 177.64 361.909 180.886C365.841 185.65 360.126 190.087 358.793 193.325C357.461 196.563 359.11 201.375 355.378 203.576C351.647 205.778 341.004 206.361 339.313 202.485C337.621 198.608 346.786 167.395 358.793 169.614Z" fill="#32285F"/>
<path d="M315.922 178.191C315.345 199.488 335.215 203.58 346.772 203.58C358.328 203.58 358.793 178.046 358.793 168.845C358.793 159.644 349.712 158.193 338.155 158.193C329.055 158.193 320.443 165.231 316.892 171.979C316.121 173.955 315.79 176.075 315.922 178.191Z" fill="#32285F"/>
<path d="M337.615 166.419C347.283 166.419 350.89 173.288 351.076 185.984C350.899 190.399 349.59 194.695 347.274 198.462C346.633 199.563 346.223 200.782 346.068 202.045C345.913 203.309 346.016 204.591 346.371 205.814L348.493 212.981C349.937 219.63 346.771 223.278 342.098 224.601C340.897 224.903 339.647 224.956 338.424 224.757C337.202 224.559 336.033 224.113 334.989 223.446C332.585 221.896 332.384 218.564 332.834 215.746L333.393 213.704C333.581 213.049 333.635 212.363 333.552 211.686C333.468 211.01 333.25 210.357 332.909 209.767C332.569 209.176 332.113 208.66 331.568 208.249C331.024 207.838 330.402 207.54 329.74 207.373C322.296 205.75 321.229 198.009 319.236 185.986C317.148 173.453 327.949 166.419 337.615 166.419Z" fill="#FAB9AF"/>
<path d="M315.105 160.842L320.649 162.524C322.686 163.142 324.859 163.156 326.904 162.565L337.973 159.36C344.672 159.36 355.751 163.138 354.35 172.79L353.114 179.617C352.871 180.942 352.196 182.151 351.194 183.056C350.193 183.96 348.92 184.51 347.574 184.62C347.436 185.125 347.119 185.563 346.683 185.853C346.246 186.143 345.719 186.265 345.198 186.197C344.678 186.129 344.2 185.876 343.853 185.483C343.506 185.091 343.313 184.586 343.31 184.063C343.303 182.57 342.787 181.125 341.846 179.965C340.904 178.805 339.595 178 338.133 177.682C334.264 176.744 330.222 176.773 326.366 177.766C318.673 179.828 310.561 175.072 309.792 167.161C309.744 166.66 309.72 166.152 309.72 165.637C309.661 164.941 309.766 164.241 310.025 163.592C310.284 162.944 310.691 162.364 311.213 161.899C311.735 161.434 312.359 161.096 313.034 160.913C313.71 160.729 314.419 160.705 315.105 160.842Z" fill="#32285F"/>
<path d="M345.746 186.218C345.746 189.162 346.844 191.55 349.686 191.55C352.527 191.55 354.353 187.501 354.353 184.557C354.353 181.612 352.527 180.886 349.686 180.886C346.844 180.886 345.746 183.274 345.746 186.218Z" fill="#FAB9AF"/>
<path d="M322.076 195.02C322.006 195.343 322.009 195.677 322.085 195.999C322.161 196.32 322.309 196.62 322.517 196.878C322.724 197.135 322.987 197.343 323.286 197.485C323.584 197.628 323.911 197.702 324.242 197.702C324.809 197.702 325.353 197.486 325.765 197.099C326.177 196.711 326.424 196.181 326.457 195.618V186.222C326.457 186.049 326.423 185.879 326.357 185.719C326.291 185.56 326.194 185.415 326.072 185.294C325.825 185.048 325.49 184.909 325.141 184.907C324.898 184.907 324.662 184.991 324.473 185.143C324.284 185.295 324.153 185.508 324.101 185.745L322.076 195.02Z" fill="#FA968C"/>
<path d="M375.737 214.346C393.007 223.712 409.021 236.914 434.719 267.737C435.633 268.825 436.111 270.211 436.06 271.63C436.009 273.048 435.433 274.397 434.444 275.417C428.943 281.035 416.195 292.079 391.772 304.072C389.925 301.544 388.79 298.568 388.485 295.454C388.485 295.454 412.828 271.105 414.284 269.881C414.284 269.881 373.391 245.678 363.269 236.965C353.147 228.253 353.692 218.672 356.795 214.699C359.897 210.726 371.174 211.882 375.737 214.346Z" fill="#0E133A"/>
<path d="M341.957 234.092C342.239 234.091 342.513 234.182 342.739 234.349C342.965 234.516 343.131 234.751 343.213 235.02C344.702 239.746 351.442 261.543 352.948 273.293C354.174 282.873 350.292 299.737 348.057 308.31C347.17 311.698 344.974 314.598 341.95 316.375L340.427 317.272C340.121 317.453 339.781 317.571 339.428 317.62C339.075 317.669 338.716 317.648 338.371 317.558C338.026 317.467 337.703 317.31 337.419 317.094C337.136 316.878 336.899 316.609 336.72 316.301L335.481 314.158C335.016 313.36 334.737 312.468 334.663 311.548C334.588 310.628 334.722 309.703 335.053 308.841C337.669 302.047 344.095 284 343.546 272.016C343.36 267.802 339.266 242.147 338.207 235.618C338.176 235.43 338.186 235.238 338.238 235.055C338.289 234.871 338.38 234.702 338.504 234.557C338.628 234.413 338.783 234.298 338.957 234.219C339.13 234.141 339.319 234.102 339.51 234.105L341.957 234.092Z" fill="#C8E6EB"/>
<path d="M340.468 230.915C340.748 230.921 341.02 231.016 341.242 231.186C341.464 231.356 341.626 231.593 341.704 231.862C343.085 236.62 349.334 258.564 350.57 270.345C351.58 279.949 347.317 296.722 344.888 305.247C343.926 308.615 341.665 311.465 338.6 313.173L337.059 314.034C336.748 314.208 336.406 314.318 336.052 314.36C335.698 314.401 335.34 314.372 334.997 314.274C334.655 314.176 334.335 314.011 334.057 313.789C333.779 313.568 333.547 313.293 333.376 312.981L332.183 310.811C331.737 310.002 331.478 309.104 331.425 308.183C331.372 307.261 331.527 306.339 331.878 305.485C334.647 298.75 341.479 280.853 341.2 268.86C341.103 264.642 337.587 238.904 336.685 232.35C336.658 232.162 336.672 231.97 336.727 231.788C336.782 231.606 336.876 231.439 337.003 231.297C337.13 231.156 337.287 231.043 337.462 230.969C337.637 230.894 337.827 230.859 338.017 230.865L340.468 230.915Z" fill="#FFA50A"/>
<path d="M336.869 231.561H341.027C341.363 231.561 341.685 231.428 341.923 231.191C342.16 230.954 342.294 230.632 342.294 230.297V226.146C342.294 225.811 342.16 225.489 341.923 225.252C341.685 225.015 341.363 224.882 341.027 224.882L337.271 224.479C336.854 224.553 336.47 224.752 336.17 225.051C335.871 225.35 335.67 225.733 335.596 226.15V230.301C335.597 230.467 335.63 230.631 335.694 230.785C335.759 230.938 335.853 231.077 335.971 231.194C336.089 231.311 336.229 231.404 336.383 231.467C336.538 231.53 336.703 231.562 336.869 231.561Z" fill="#FFA50A"/>
<path d="M348.232 212.098L355.248 213.321C354.259 220.307 351.882 227.026 348.255 233.083C348.159 233.222 348.031 233.336 347.882 233.414C347.733 233.493 347.567 233.535 347.398 233.536C347.229 233.538 347.063 233.498 346.913 233.422C346.762 233.345 346.633 233.234 346.535 233.096L341.555 226.196C341.274 225.807 341.114 225.344 341.093 224.866C341.072 224.387 341.192 223.912 341.438 223.5L348.232 212.098Z" fill="white"/>
<path d="M332.991 215.083L325.975 217.385C326.212 222.787 328.012 228.004 331.158 232.408C331.254 232.546 331.383 232.659 331.534 232.736C331.684 232.812 331.851 232.851 332.02 232.848C332.189 232.845 332.355 232.8 332.502 232.718C332.65 232.635 332.775 232.518 332.866 232.376L336.94 226.064C337.172 225.705 337.308 225.292 337.335 224.865C337.362 224.437 337.279 224.011 337.094 223.625L332.991 215.083Z" fill="white"/>
<path d="M184.651 222.398C186.992 210.783 215.08 214.765 192.056 184.081C191.787 183.68 191.383 183.388 190.916 183.261C190.449 183.133 189.952 183.178 189.516 183.387C187.156 184.616 180.566 184.035 176.718 186.218C169.51 190.302 156.911 203.148 158.309 211.301C161.287 228.698 147.649 239.934 142.941 257.842C138.289 276.273 164.715 301.133 180.501 299.087C182.996 298.787 185.383 297.897 187.464 296.491C189.544 295.085 191.258 293.204 192.463 291.004C193.414 289.388 194.024 287.595 194.257 285.735C194.49 283.876 194.34 281.988 193.818 280.188L193.802 280.135C190.381 268.32 176.841 261.15 184.651 222.398Z" fill="#FA870A"/>
<path d="M128.854 327.989L114.353 226.339L75.2302 220.983L54.8805 327.254L128.854 327.989Z" fill="#FAB9AF"/>
<path d="M137.018 369.127C137.615 366.571 137.935 363.942 138.278 362.953C138.585 362.362 138.935 361.794 139.325 361.254C140.088 360.324 140.617 359.226 140.87 358.052L140.942 353.681C140.942 351.567 141.966 349.969 144.086 349.969C146.38 349.969 147.422 351.922 147.156 354.194V357.255C147.102 359.072 147.429 360.881 148.115 362.565C148.908 366.265 148.608 370.116 147.251 373.65C146.594 375.725 141.611 375.321 137.706 374.981C135.079 374.753 131.967 373.93 132.531 372.753C133.407 370.921 142.995 373.292 141.4 367.657C141.322 367.381 141.069 366.684 140.715 366.675C139.66 366.644 139.467 368.979 138.962 370.117C138.253 371.715 137.129 372.363 136.443 372.194C135.717 372.014 136.59 370.96 137.018 369.127Z" fill="#FAB9AF"/>
<path d="M120.874 229.073C120.874 229.073 154.95 274.773 154.887 300.363C154.844 317.86 147.54 355.915 147.54 355.915C146.381 356.106 145.209 356.215 144.034 356.241C142.854 356.211 141.679 356.064 140.528 355.805C140.528 355.805 140.757 307.165 137.835 298.484C134.913 289.803 106.509 248.433 105.953 239.305C105.396 230.176 115.12 221.707 120.874 229.073Z" fill="#0E133A"/>
<path d="M85.272 328.972L128.633 325.342C128.633 325.342 132.998 356.819 122.041 413.8C116.903 440.521 106.195 491.587 106.195 491.587C103.66 492.753 100.803 493.023 98.0941 492.354C98.0941 492.354 97.2808 469.829 96.7914 445.57C96.3131 422.309 96.1847 397.452 94.6996 389.319C91.6569 372.705 85.272 328.972 85.272 328.972Z" fill="#1E2D64"/>
<path d="M113.65 326.595C114.364 333.914 115.779 341.102 116.886 348.39C118.074 357.515 118.218 366.745 117.318 375.902L117.301 376.141C116.281 388.868 113.513 401.395 109.074 413.37C107.6 417.387 106.055 422.077 104.358 428.246C100.688 441.588 98.5629 481.713 97.8929 486.684C97.6212 478.494 97.1225 462.455 96.7763 445.569C96.298 422.307 96.1697 397.45 94.6846 389.317C91.6494 372.705 85.2718 328.981 85.2718 328.981L113.65 326.595Z" fill="#0F1446"/>
<path d="M94.2213 329.521C98.697 353.485 108.696 389.319 89.4349 422.981C70.1739 456.643 49.947 491.641 49.947 491.641C47.3359 491.687 44.7942 490.801 42.7804 489.142C42.7804 489.142 46.1581 473.88 51.0394 456.061C56.6223 435.675 63.694 411.691 61.6823 399.195C57.9045 375.764 53.5666 344.558 54.8804 329.406C56.1943 314.253 91.8672 316.921 94.2213 329.521Z" fill="#1E2D64"/>
<path d="M130.352 325.4L114.347 226.339L75.2297 220.979L54.2008 325.582C54.1054 326.048 54.1037 326.528 54.196 326.995C54.2882 327.462 54.4724 327.906 54.738 328.301C55.0036 328.696 55.3452 329.035 55.743 329.297C56.1409 329.559 56.587 329.74 57.0555 329.829C71.7374 332.569 86.6356 333.993 101.572 334.084C116.251 334.084 124.501 331.236 128.252 329.443C128.993 329.086 129.598 328.499 129.977 327.77C130.355 327.041 130.487 326.209 130.352 325.4Z" fill="white"/>
<path d="M87.4512 227.152C87.4344 234.286 86.1678 241.363 83.7087 248.062C78.9279 261.183 71.7576 285.995 76.0192 307.854C82.1604 339.333 90.0435 352.057 79.8175 359.394C69.5915 366.731 49.9712 354.487 49.413 350.406C48.8547 346.326 53.2279 296.197 58.1949 274.485C63.1618 252.773 77.0744 221.549 77.0744 221.549L82.9681 222.177C84.198 222.31 85.3353 222.891 86.1622 223.81C86.9891 224.728 87.4474 225.918 87.4493 227.152H87.4512Z" fill="#0E133A"/>
<path d="M60.6847 318.356C61.8449 312.091 63.9956 306.049 67.0566 300.458C71.7163 291.727 75.0235 282.343 76.8658 272.625C78.5209 264.155 80.8495 255.829 83.8295 247.728C86.2431 241.096 87.469 234.094 87.451 227.039V222.65L76.5345 221.05C76.5345 221.05 63.1635 252.762 58.1965 274.48C53.2296 296.197 48.847 346.326 49.4146 350.401C49.7961 353.151 58.8218 359.596 67.7991 361.273C60.8765 348.098 58.3823 333.053 60.6847 318.356Z" fill="#1E287B"/>
<path d="M103.738 224.878C108.181 236.203 109.7 248.459 108.156 260.523C105.791 281.542 100.307 345.55 119.478 355.204C125.549 358.263 139.413 344.711 139.413 339.684C139.413 334.656 134.785 317.823 130.4 302.522C126.865 290.171 122.097 248.589 120.392 233.019C120.009 229.512 119.48 226.736 115.978 226.257L103.738 224.878Z" fill="#0E133A"/>
<path d="M81.697 185.552C81.1491 185.425 80.5776 185.443 80.0386 185.603C79.4996 185.764 79.0115 186.061 78.6223 186.466C78.2332 186.871 77.9562 187.37 77.8186 187.914C77.681 188.458 77.6874 189.028 77.8374 189.569C78.3318 191.378 78.3498 193.283 77.8895 195.1C76.6445 199.674 82.0525 200.977 84.0102 202.826C85.968 204.676 86.3383 208.561 89.649 208.927C92.9596 209.293 100.591 206.345 100.549 203.099C100.513 200.478 89.8499 187.575 81.697 185.552Z" fill="#32285F"/>
<path d="M98.2764 179.546C89.5448 179.546 86.2881 185.747 86.1206 197.216C86.2801 201.204 87.4623 205.085 89.5541 208.487C90.1329 209.481 90.5036 210.582 90.6437 211.724C90.7838 212.865 90.6904 214.023 90.3692 215.127L88.4524 221.601C87.1497 227.605 90.0082 230.9 94.2214 232.096C95.3064 232.367 96.4355 232.415 97.5396 232.235C98.6436 232.056 99.6993 231.653 100.642 231.052C102.814 229.653 102.99 226.643 102.588 224.096L102.093 222.251C101.923 221.659 101.874 221.04 101.949 220.429C102.024 219.818 102.221 219.229 102.529 218.695C102.836 218.162 103.248 217.696 103.74 217.324C104.231 216.953 104.793 216.684 105.391 216.533C112.115 215.066 113.077 208.076 114.882 197.225C116.763 185.891 107.008 179.546 98.2764 179.546Z" fill="#FAB9AF"/>
<path d="M116.408 181.25C116.277 179.806 115.666 178.446 114.673 177.387C113.68 176.328 112.361 175.629 110.925 175.402C109.747 175.301 108.576 175.13 107.417 174.89L97.9487 173.178C91.8932 173.178 81.8923 176.59 83.1559 185.307L84.226 191.22C84.4482 192.448 85.0578 193.573 85.9659 194.432C86.8741 195.291 88.0334 195.837 89.2748 195.993C89.4438 195.914 89.6283 195.874 89.8147 195.876C90.0012 195.877 90.185 195.92 90.3526 196.002C90.5202 196.083 90.6675 196.201 90.7837 196.347C90.8998 196.492 90.982 196.662 91.0241 196.843L91.8076 200.212C92.8888 200.212 93.127 196.561 93.127 195.48C93.135 194.134 93.6025 192.83 94.4526 191.784C95.3027 190.738 96.4846 190.012 97.8036 189.725C101.138 188.983 101.883 186.383 105.62 187.379C105.64 187.379 108.394 188.307 108.411 188.322C111.608 189.164 115.635 186.851 115.637 183.552C115.643 183.019 116.408 181.883 116.408 181.25Z" fill="#32285F"/>
<path d="M90.9346 197.428C90.9346 200.088 89.9408 202.243 87.3745 202.243C84.8082 202.243 83.1613 198.586 83.1613 195.931C83.1613 193.277 84.8082 192.619 87.3745 192.619C89.9408 192.619 90.9346 194.769 90.9346 197.428Z" fill="#FAB9AF"/>
<path d="M112.314 205.385C112.377 205.676 112.375 205.978 112.306 206.269C112.237 206.559 112.104 206.83 111.917 207.063C111.729 207.295 111.492 207.483 111.222 207.611C110.952 207.74 110.657 207.807 110.358 207.807C109.846 207.808 109.354 207.613 108.982 207.263C108.61 206.913 108.387 206.434 108.357 205.925V197.439C108.358 197.123 108.483 196.821 108.707 196.598C108.931 196.375 109.234 196.249 109.55 196.249C109.77 196.249 109.983 196.324 110.154 196.461C110.325 196.599 110.445 196.79 110.492 197.004L112.314 205.385Z" fill="#FA968C"/>
<path d="M109.634 187.018C113.024 187.919 114.952 193.529 115.066 195.755H115.153C115.487 195.755 115.808 195.622 116.044 195.387C116.28 195.151 116.413 194.831 116.413 194.498V190.852C116.413 190.221 114.509 186.107 113.877 186.107L109.634 187.018Z" fill="#32285F"/>
<path d="M52.919 363.744C52.3216 361.185 52.0034 358.557 51.6591 357.569C51.3528 356.977 51.0032 356.409 50.6133 355.868C49.8495 354.94 49.3193 353.842 49.0668 352.668L48.9942 348.296C48.9942 346.183 47.9707 344.583 45.851 344.583C43.5583 344.583 42.5162 346.536 42.7805 348.81V351.862C42.8343 353.68 42.5086 355.488 41.8239 357.173C41.0288 360.873 41.3282 364.724 42.6856 368.257C43.3425 370.334 45.9943 371.598 49.6139 373.102C51.393 373.845 54.3724 374.45 53.2298 372.315C52.2714 370.525 46.9416 367.898 48.5383 362.264C48.6164 361.987 48.8677 361.291 49.2231 361.28C50.2765 361.248 50.47 363.584 50.9743 364.724C51.6852 366.322 52.8073 366.97 53.494 366.799C54.2217 366.623 53.347 365.567 52.919 363.744Z" fill="#FAB9AF"/>
<path d="M69.0666 223.682C69.0666 223.682 34.9903 269.382 35.0536 294.972C35.0964 312.469 42.4026 350.523 42.4026 350.523C43.5619 350.716 44.7336 350.826 45.9087 350.852C47.0889 350.821 48.2633 350.674 49.4147 350.414C49.4147 350.414 49.1839 301.774 52.1057 293.095C55.0274 284.416 82.5381 242.938 83.9896 233.908C85.5156 224.356 77.48 216.483 69.0666 223.682Z" fill="#0E133A"/>
<path d="M175.145 222.94C179.264 221.645 183.579 221.084 187.893 221.284C188.897 221.165 189.913 221.2 190.906 221.388C190.906 221.388 203.746 221.317 237.54 246.612C237.987 246.947 238.5 247.185 239.044 247.31C239.589 247.435 240.154 247.445 240.703 247.34L284.522 238.596C285.08 238.474 285.658 238.476 286.215 238.601C286.772 238.726 287.295 238.971 287.747 239.32C288.199 239.668 288.569 240.111 288.83 240.618C289.092 241.124 289.239 241.682 289.262 242.251C289.262 242.309 289.262 242.368 289.262 242.426C289.224 243.17 288.972 243.888 288.536 244.492C288.099 245.097 287.497 245.564 286.802 245.836C279.211 248.94 248.685 261.059 232.647 262.019C225.893 262.053 219.209 260.64 213.049 257.875C212.395 257.604 211.68 257.511 210.979 257.608C210.277 257.704 209.614 257.986 209.058 258.424C208.501 258.861 208.073 259.439 207.815 260.098C207.558 260.756 207.482 261.472 207.595 262.169C209.171 271.79 211.045 281.922 212.966 289.397C217.933 308.719 236.339 352.686 231.373 356.496C226.406 360.305 197.482 359.697 193.976 355.922C190.47 352.148 164.089 226.265 175.145 222.94Z" fill="#0E133A"/>
<path d="M193.504 304.104C197.36 304.516 200.974 306.184 203.785 308.849C206.596 311.515 208.449 315.03 209.058 318.852C213.599 348.867 213.133 379.424 207.677 409.287L195.984 497.099C194.899 497.414 193.762 497.509 192.64 497.378C191.518 497.246 190.433 496.891 189.451 496.334C189.451 496.334 180.518 368.106 175.272 341.397C170.026 314.688 174.788 302.353 174.788 302.353L193.504 304.104Z" fill="#1E2D64"/>
<path d="M194.31 409.287C191.928 373.59 176.796 351.104 182.926 303.764C182.949 303.498 182.959 303.232 182.954 302.966L174.788 302.36C174.788 302.36 170.019 314.693 175.272 341.404C179.666 363.742 186.624 457.064 188.786 487.02C189.886 443.664 195.454 426.435 194.31 409.287Z" fill="#0F1446"/>
<path d="M168.357 301.826C164.007 301.623 159.713 302.873 156.156 305.379C152.598 307.885 149.98 311.503 148.716 315.66C144.853 328.431 141.155 349.944 144.622 381.289C144.622 381.289 147.292 398.332 144.622 409.291C141.951 420.25 125.303 494.24 125.303 494.24C126.006 495.096 126.882 495.794 127.875 496.289C128.867 496.784 129.953 497.064 131.061 497.11C131.061 497.11 160.816 436.672 168.267 414.814C175.719 392.955 188.692 323.036 186.079 303.305L168.357 301.826Z" fill="#1E2D64"/>
<path d="M152.181 379.49C149.909 384.802 147.754 390.219 145.792 395.711C145.699 390.883 145.307 386.065 144.618 381.286C141.155 349.941 144.852 328.427 148.712 315.657C149.977 311.5 152.595 307.883 156.153 305.378C159.71 302.873 164.003 301.623 168.353 301.826L174.784 302.36L186.064 303.3C186.064 303.333 186.064 303.376 186.075 303.411L193.493 304.102C197.349 304.514 200.962 306.182 203.774 308.848C206.585 311.513 208.438 315.028 209.047 318.85C209.493 321.677 209.944 324.952 210.362 328.556C181.056 327.466 162.911 354.405 152.181 379.49Z" fill="#0F1446"/>
<path d="M206.404 256.423C206.134 252.022 201.323 240.071 197.555 234.684C197.555 234.684 190.615 223.974 183.225 222.739C174.865 221.245 166.301 221.285 157.955 222.858L150.681 224.271C144.653 226.086 147.545 232.968 148.645 239.154L154.889 308.401C166.131 316.319 187.8 318.75 207.098 316.824C207.579 316.779 208.043 316.629 208.459 316.384C208.875 316.139 209.231 315.805 209.503 315.408C209.775 315.01 209.955 314.557 210.032 314.081C210.108 313.606 210.079 313.119 209.945 312.657L199.801 278.042C197.568 269.655 200.499 267.924 203.787 264.143C205.641 262.012 206.581 259.239 206.404 256.423Z" fill="white"/>
<path d="M173.312 177.962C163.959 178.542 160.883 185.4 161.469 197.697C161.907 201.958 163.432 206.036 165.9 209.541C166.586 210.568 167.056 211.722 167.282 212.934C167.508 214.147 167.486 215.393 167.216 216.596L165.595 223.651C164.599 230.169 167.882 233.507 172.481 234.509C173.661 234.728 174.874 234.704 176.045 234.439C177.216 234.173 178.32 233.672 179.29 232.965C181.523 231.322 181.51 228.086 180.909 225.385L180.256 223.441C180.036 222.82 179.944 222.161 179.984 221.503C180.024 220.845 180.196 220.202 180.489 219.612C180.782 219.022 181.191 218.496 181.692 218.066C182.192 217.636 182.774 217.31 183.403 217.108C185.474 216.52 187.634 216.771 189.116 215.623C190.567 214.489 193.543 203.09 191.099 191.426C188.578 179.366 182.658 177.381 173.312 177.962Z" fill="#FAB9AF"/>
<path d="M188.52 204.896C188.592 205.209 188.593 205.533 188.523 205.845C188.452 206.158 188.313 206.451 188.114 206.702C187.916 206.954 187.664 207.158 187.376 207.3C187.088 207.442 186.772 207.517 186.451 207.522C185.902 207.528 185.372 207.324 184.969 206.953C184.566 206.582 184.319 206.072 184.281 205.526L184.169 196.42C184.166 196.251 184.197 196.084 184.259 195.928C184.321 195.771 184.414 195.628 184.531 195.507C184.649 195.387 184.789 195.29 184.944 195.224C185.099 195.157 185.266 195.122 185.435 195.12C185.671 195.118 185.901 195.195 186.086 195.341C186.272 195.487 186.402 195.691 186.455 195.92L188.52 204.896Z" fill="#FA968C"/>
<path d="M166.019 199.401C166.205 202.251 166.356 205.834 163.849 205.988C161.343 206.142 158.501 201.113 158.322 198.265C158.144 195.417 159.711 194.615 162.219 194.459C164.728 194.303 165.841 196.553 166.019 199.401Z" fill="#FAB9AF"/>
<path d="M168.066 243.963C168.783 258.629 172.804 273.939 163.864 299.206C157.351 317.606 173.768 337.929 167.912 356.449C165.429 364.301 138.62 364.534 129.312 358.213C126.718 356.449 137.15 306.974 145.571 290.265C152.27 276.988 145.906 252.493 143.021 243.025C141.787 239.155 141.872 234.986 143.263 231.17C143.75 229.453 144.698 227.903 146.004 226.685C147.311 225.468 148.926 224.63 150.676 224.263C165.234 221.954 167.771 238.105 168.066 243.963Z" fill="#1E287B"/>
<path d="M215.858 427.674C216.196 430.394 217.519 432.898 219.58 434.712C221.64 436.527 224.294 437.527 227.042 437.524H285.188C286.813 437.524 288.419 437.174 289.895 436.497C291.372 435.82 292.684 434.832 293.742 433.602C294.8 432.372 295.579 430.928 296.026 429.369C296.472 427.81 296.575 426.174 296.328 424.572L279.579 316.136C279.579 316.136 241.366 305.386 233.561 313.934C208.138 341.785 212.869 403.612 215.858 427.674Z" fill="#25377A"/>
<path d="M233.565 313.934C241.37 305.394 279.583 316.136 279.583 316.136L281.911 331.212C213.44 331.435 232.782 418.872 243.173 437.524H227.042C224.294 437.527 221.64 436.527 219.58 434.713C217.52 432.898 216.196 430.395 215.858 427.674C212.869 403.61 208.139 341.785 233.565 313.934Z" fill="#1E2D64"/>
<path d="M257.391 218.601C245.593 218.601 236.029 210.249 236.029 199.947C236.029 189.645 245.593 181.293 257.391 181.293C269.189 181.293 278.753 189.645 278.753 199.947C278.753 210.249 269.189 218.601 257.391 218.601Z" fill="#32285F"/>
<path d="M249.795 322.4L263.296 322.806C272.415 323.081 280.35 321.098 281.292 312.038L294.261 245.591C294.447 240.797 290.611 236.108 286.361 233.865C286.361 233.865 248.838 226.939 234.22 235.193L233.072 235.594C231.065 236.716 229.377 238.329 228.169 240.282C226.96 242.236 226.27 244.464 226.164 246.757L233.126 311.329C233.885 320.116 240.962 322.132 249.795 322.4Z" fill="#1E287B"/>
<path d="M228.553 239.763C229.078 240.675 229.649 241.553 230.25 242.411C234.877 248.959 237.462 256.725 237.679 264.733C237.839 271.738 237.121 279.073 239.244 283.692C241.831 289.322 251.279 289.33 255.956 285.255L256.11 285.117C257.369 283.891 259.036 283.17 260.793 283.089C262.55 283.009 264.276 283.575 265.642 284.681C268.4 287.013 271.925 288.244 275.539 288.14C277.688 288.217 279.826 287.812 281.797 286.955C283.767 286.097 285.52 284.809 286.924 283.185L281.291 312.048C280.35 321.098 272.412 323.081 263.296 322.815L249.794 322.409C240.962 322.141 233.885 320.127 233.126 311.348L226.164 246.775C226.223 244.249 227.057 241.802 228.553 239.763Z" fill="#141B52"/>
<path d="M275.297 254.973C279.045 266.669 300.828 312.194 307.678 310.013C314.528 307.831 302.315 262.698 298.559 250.997C294.804 239.295 288.644 231.567 281.796 233.75C274.947 235.933 271.549 243.274 275.297 254.973Z" fill="#1E287B"/>
<path d="M246.986 255.096C244.891 267.202 228.153 314.223 221.068 313.004C213.984 311.784 221.295 266.461 223.391 254.355C225.486 242.249 230.526 233.748 237.612 234.968C244.699 236.188 249.082 242.992 246.986 255.096Z" fill="#1E287B"/>
<path d="M228.641 299.973C236.535 298.432 286.742 291.381 287.594 295.729C288.447 300.077 239.622 314.177 231.728 315.718C223.834 317.259 219.42 314.359 218.567 310.013C217.715 305.667 220.747 301.514 228.641 299.973Z" fill="#FA968C"/>
<path d="M249.54 213.037H267.146C266.14 215.494 265.856 218.186 266.325 220.799L268.012 229.844C269.048 238.198 265.633 242.468 260.847 243.753C259.594 244.024 258.294 243.985 257.059 243.641C255.825 243.296 254.693 242.655 253.764 241.774C251.441 239.668 251.451 235.525 252.078 232.064L252.757 229.575C253.678 226.242 249.54 213.037 249.54 213.037Z" fill="#FAB9AF"/>
<path d="M249.539 213.037H267.146C266.14 215.494 265.855 218.186 266.325 220.799L266.945 224.119C265.18 226.235 263.168 228.134 260.953 229.775C259.987 230.517 258.795 230.904 257.576 230.87C256.358 230.837 255.189 230.384 254.266 229.59C253.831 229.233 253.36 228.827 252.876 228.392C252.936 223.89 249.539 213.037 249.539 213.037Z" fill="#FA968C"/>
<path d="M270.099 201.115C269.928 203.862 269.774 207.317 272.191 207.466C274.608 207.614 277.348 202.765 277.519 200.019C277.69 197.274 276.181 196.492 273.762 196.351C271.342 196.21 270.271 198.369 270.099 201.115Z" fill="#FA968C"/>
<path d="M245.535 201.115C245.706 203.862 245.86 207.317 243.443 207.466C241.026 207.614 238.286 202.765 238.115 200.019C237.944 197.274 239.455 196.492 241.872 196.351C244.29 196.21 245.364 198.369 245.535 201.115Z" fill="#FA968C"/>
<path d="M241.612 201.15C241.612 213.28 249.614 221.571 254.276 225.385C255.198 226.18 256.367 226.633 257.586 226.667C258.804 226.7 259.997 226.313 260.962 225.57C264.861 222.826 268.053 219.198 270.276 214.985C272.498 210.772 273.689 206.094 273.749 201.334C273.749 187.111 265.998 181.284 257.559 181.284C249.119 181.284 241.612 186.926 241.612 201.15Z" fill="#FAB9AF"/>
<path d="M255.113 210.46C255.07 210.843 255.114 211.231 255.241 211.594C255.368 211.958 255.576 212.288 255.848 212.562C256.12 212.835 256.45 213.044 256.814 213.173C257.177 213.302 257.565 213.348 257.949 213.308C258.605 213.24 259.21 212.924 259.64 212.426C260.07 211.927 260.293 211.283 260.262 210.626L259.133 199.737C259.09 199.332 258.888 198.96 258.571 198.703C258.254 198.446 257.847 198.326 257.441 198.367C257.159 198.396 256.896 198.521 256.695 198.72C256.494 198.92 256.367 199.181 256.336 199.462L255.113 210.46Z" fill="#FA968C"/>
<path d="M239.403 182.992C239.531 182.837 239.602 182.643 239.605 182.442C239.608 182.241 239.542 182.045 239.418 181.887C238.167 180.255 237.597 178.204 237.827 176.162C238.058 174.12 239.071 172.247 240.655 170.934C241.157 170.502 241.531 169.942 241.738 169.314C241.945 168.686 241.977 168.014 241.831 167.369C241.622 166.289 241.677 165.174 241.99 164.118C242.344 162.931 243.009 161.86 243.916 161.015C244.823 160.169 245.94 159.581 247.152 159.31C248.081 159.104 249.043 159.094 249.977 159.279C250.844 159.481 251.746 159.479 252.612 159.274C253.478 159.069 254.285 158.666 254.968 158.096C255.697 157.42 256.564 156.907 257.508 156.593C258.453 156.279 259.454 156.17 260.445 156.274C261.435 156.379 262.391 156.693 263.25 157.198C264.108 157.702 264.847 158.383 265.419 159.197C266.469 160.376 267.077 161.882 267.139 163.458C267.128 164.076 267.243 164.689 267.478 165.261C267.714 165.833 268.064 166.35 268.506 166.783C269.465 167.66 270.094 168.839 270.288 170.122C270.481 171.406 270.229 172.717 269.571 173.837C269.102 174.688 268.964 175.682 269.184 176.629C269.404 177.575 269.967 178.407 270.764 178.965C271.453 179.461 272.114 179.996 272.744 180.565C278.398 185.672 277.396 195.974 277.396 195.974C276.355 196.233 275.431 196.832 274.77 197.676C274.11 198.52 273.751 199.56 273.751 200.63V205.037C273.747 205.244 273.663 205.442 273.517 205.588C273.37 205.735 273.173 205.819 272.966 205.824C272.758 205.829 272.557 205.754 272.404 205.614C272.251 205.474 272.158 205.281 272.145 205.075L272.011 202.175C271.927 200.656 271.365 199.201 270.406 198.019C269.446 196.836 268.138 195.985 266.666 195.586C264.78 195.087 263.034 194.161 261.563 192.881C260.209 191.666 259.013 190.286 258.001 188.775C257.294 187.707 256.249 186.907 255.032 186.5C253.816 186.094 252.498 186.105 251.289 186.532C248.462 187.871 246.145 190.085 244.682 192.844C243.496 194.912 242.876 197.254 242.885 199.637V205.392C242.885 205.605 242.8 205.809 242.649 205.959C242.498 206.11 242.294 206.194 242.081 206.194C241.868 206.194 241.663 206.11 241.512 205.959C241.362 205.809 241.277 205.605 241.277 205.392V202.483C241.263 201.484 240.914 200.519 240.285 199.741C237.307 195.935 235.18 188.145 239.403 182.992Z" fill="#32285F"/>
<path d="M235.214 298.892C235.936 296.445 237.075 294.14 238.58 292.077C240.009 290.444 245.927 291.866 249.374 292.872C251.096 293.374 252.89 293.584 254.681 293.494C267.81 292.835 293.06 293.187 298.92 294.331C306.814 295.872 310.644 302.067 309.729 306.398C308.266 313.353 304.032 314.929 296.144 313.388C282.006 309.694 268.162 304.956 254.728 299.216C251.417 297.724 247.752 297.195 244.154 297.691L235.214 298.892Z" fill="#FAB9AF"/>
<path d="M159.822 184.159C169.892 171.869 184.164 172.543 190.921 178.9C193.602 181.556 197.155 183.156 200.925 183.406C201.256 183.412 201.579 183.51 201.857 183.689C202.135 183.869 202.357 184.122 202.498 184.421C202.639 184.72 202.693 185.052 202.655 185.381C202.616 185.709 202.487 186.019 202.28 186.278C200.956 188.024 199.179 189.377 197.141 190.189C195.102 191.001 192.88 191.242 190.714 190.885C188.682 190.502 186.803 189.543 185.301 188.125C184.419 187.307 183.285 186.813 182.085 186.723H182.059C179.64 186.628 177.267 187.4 175.371 188.901C174.225 189.827 172.892 190.495 171.463 190.858L169.67 191.27C168.979 191.428 168.368 191.829 167.949 192.399C167.529 192.969 167.329 193.671 167.385 194.376L167.962 200.224C167.978 200.438 167.93 200.651 167.825 200.839C167.72 201.026 167.562 201.178 167.371 201.277C167.181 201.376 166.965 201.417 166.751 201.394C166.537 201.372 166.334 201.288 166.168 201.152C165.828 199.979 165.25 198.889 164.471 197.947C163.692 197.006 162.728 196.234 161.638 195.679C157.97 193.824 154.096 191.151 159.822 184.159Z" fill="#FFA50A"/>
<path d="M163.155 367.334C163.155 364.659 163.963 361.468 163.853 360.408C163.823 360.123 163.097 356.232 162.584 353.499C162.217 351.49 161.31 349.617 159.96 348.08C159.179 347.047 158.137 346.24 156.94 345.741C156.94 345.741 153.59 346.892 153.318 349.207L155.862 353.215C155.494 355.03 154.751 356.747 153.681 358.26C151.766 361.538 153.368 366.159 153.64 369.683C153.809 371.894 158.322 380.109 159.223 379.162C160.124 378.215 158.527 374.793 157.89 372.413C157.552 369.826 157.989 367.197 159.149 364.858C159.283 364.598 159.707 363.97 160.057 364.041C161.108 364.254 160.758 366.614 160.987 367.859C161.318 369.608 162.29 370.509 163.003 370.499C163.777 370.49 163.155 369.241 163.155 367.334Z" fill="#FAB9AF"/>
<path d="M162.109 234.652C162.109 234.652 160.918 249.71 150.357 292.07L162.236 348.632C161.538 351.704 155.687 353.223 153.519 351.974C153.519 351.974 138.376 310.488 134.98 296.171C130.732 278.267 138.373 235.868 143.969 228.145C149.564 220.422 163.713 224.718 162.109 234.652Z" fill="#0E133A"/>
</g>
<path d="M0.243652 205.49H1.87198C2.79562 224.329 6.23398 242.96 12.0961 260.892C27.3188 307.64 57.286 346.51 96.478 370.343C135.633 394.153 179.302 400.094 219.453 387.087C221.989 386.265 224.529 385.361 227.006 384.395C248.504 376.019 273.417 375.69 299.05 383.448C321.734 390.417 346.02 390.247 368.604 382.962C414.771 368.001 446.98 325.153 450.66 273.8H452.286C456.548 333.238 422.343 386.799 369.101 404.052C346.199 411.439 321.573 411.612 298.57 404.547C273.291 396.895 248.746 397.207 227.593 405.452C225.097 406.424 222.525 407.342 219.95 408.177C206.098 412.668 191.621 414.949 177.056 414.936C106.265 414.936 36.8805 361.841 10.5385 280.935C2.53433 256.621 -0.954407 231.054 0.243652 205.49Z" fill="#16AE44"/>
<path d="M434.401 28.0657C432.502 16.3528 440.482 5.32256 452.223 3.42885C463.964 1.53515 475.021 9.4951 476.919 21.2079C478.817 32.9208 470.838 43.951 459.097 45.8448C447.356 47.7385 436.299 39.7785 434.401 28.0657Z" fill="#1DE258"/>
<path d="M463.882 122.472C463.882 128.292 469.952 133.009 477.441 133.009C484.93 133.009 491 128.292 491 122.472C491 116.652 484.93 111.936 477.441 111.936C469.952 111.936 463.882 116.653 463.882 122.472Z" fill="#1DE258"/>
<path d="M346.641 71.6744C346.638 67.4411 347.808 63.2894 350.022 59.6781C352.236 56.0667 355.408 53.1363 359.187 51.2108C362.966 49.2853 367.205 48.4395 371.436 48.7671C375.667 49.0946 379.724 50.5826 383.16 53.0667C389.766 57.9047 397.223 61.4633 405.144 63.5578C422.079 67.967 434.123 79.1783 434.123 92.3204C434.123 109.315 413.993 123.094 389.16 123.094C364.327 123.094 344.19 109.315 344.19 92.3241C344.19 90.845 344.344 89.3698 344.65 87.9224C345.874 82.5895 346.541 77.1444 346.641 71.6744Z" fill="#1DE258"/>
<path d="M272.189 425.27C287.568 425.27 296.568 429.959 300.466 437.582C302.188 440.814 304.556 443.66 307.425 445.942C310.294 448.224 313.602 449.894 317.145 450.848C324.977 453.115 330.603 459.321 330.603 466.629C330.603 475.866 321.637 483.354 310.577 483.354C306.954 483.373 303.379 482.534 300.145 480.905C292.56 476.85 284.113 474.666 275.509 474.535H272.189C250.613 474.535 233.124 463.504 233.124 449.896C233.124 436.288 250.613 425.27 272.189 425.27Z" fill="#1DE258"/>
</g>
<defs>
<clipPath id="clip0_112_223">
<rect width="491" height="484" fill="white" transform="matrix(-1 0 0 1 491 0)"/>
</clipPath>
</defs>
</svg>
