<svg width="84" height="45" viewBox="0 0 84 45" fill="none" xmlns="http://www.w3.org/2000/svg">
<g clip-path="url(#clip0_274_24552)">
<path d="M33.7195 22.2582C33.204 21.9605 32.7028 21.6445 32.1802 21.3741C30.4973 20.4912 28.6469 19.9926 26.7569 19.9128C25.0809 19.8228 23.4054 20.1013 21.8436 20.7294C20.1797 21.4273 18.7134 22.5404 17.5788 23.9671C16.2429 25.567 15.3214 27.4842 14.8988 29.543C14.453 31.4647 14.5292 33.4745 15.1192 35.3552C15.7091 37.2359 16.7903 38.9162 18.246 40.2145C19.882 41.7423 21.8625 42.8324 24.0107 43.3874C26.3667 44.0532 28.8374 44.1801 31.2468 43.7591C32.1377 43.607 33.013 43.3713 33.8616 43.0549C33.9097 43.0331 33.9636 43.0293 34.0142 43.044C33.6373 43.1938 33.263 43.3499 32.8833 43.4924C31.1432 44.1627 29.3118 44.5525 27.4546 44.6478C25.5048 44.758 23.5547 44.4371 21.7372 43.7071C20.8789 43.3633 19.9533 43.2315 19.0358 43.3225C17.5591 43.4385 16.0798 43.5116 14.604 43.6321C13.4588 43.7235 12.317 43.8714 11.1727 43.9792C10.4577 44.0659 9.73328 44.0167 9.03584 43.834C8.34267 43.6507 7.74762 43.1964 7.37873 42.5691C7.18522 42.3023 7.03862 42.0031 6.94547 41.6849C6.8821 41.3521 6.91307 41.0076 7.03479 40.6921C7.14467 40.3797 7.28574 40.0792 7.40544 39.7705C7.5167 39.5112 7.55195 39.2244 7.50675 38.945C7.46155 38.6657 7.33793 38.4058 7.15092 38.1969C6.94696 37.9457 6.7595 37.6808 6.58986 37.4041C6.53929 37.3391 6.50337 37.2636 6.48452 37.1828C6.46568 37.102 6.46436 37.0181 6.48081 36.9367C6.49727 36.8554 6.53109 36.7788 6.57972 36.7123C6.62836 36.6458 6.69064 36.5911 6.76227 36.552C6.92843 36.4296 7.11512 36.3346 7.30719 36.2195C7.15086 36.0862 6.99899 35.9637 6.86052 35.8313C6.71187 35.7003 6.57165 35.5597 6.44068 35.4103C6.34775 35.3189 6.29181 35.1952 6.28387 35.0636C6.27593 34.932 6.31658 34.8021 6.39783 34.6997C6.56559 34.4708 6.74446 34.2508 6.93381 34.0403C7.07458 33.9025 7.18423 33.735 7.25517 33.5494C7.32612 33.3638 7.35667 33.1646 7.34459 32.9658C7.33252 32.7669 7.27812 32.5731 7.18527 32.3979C7.09242 32.2227 6.96334 32.0704 6.80698 31.9515C6.39337 31.5999 5.96901 31.261 5.55629 30.9057C5.42991 30.7925 5.31852 30.663 5.22489 30.5203C5.13826 30.4051 5.09131 30.2637 5.09131 30.1184C5.09131 29.973 5.13826 29.8318 5.22489 29.7166C5.34018 29.5475 5.47853 29.3961 5.63579 29.2671C6.37726 28.6726 7.13212 28.0963 7.86912 27.5027C8.45292 27.063 8.96313 26.5293 9.37978 25.9225C9.58708 25.6146 9.72947 25.2659 9.79788 24.8987C9.82475 24.7888 9.82232 24.6737 9.7909 24.5651C9.75948 24.4565 9.70015 24.3585 9.61914 24.2812C9.18499 23.8858 8.73382 23.5086 8.2943 23.1186C7.92357 22.7889 7.55647 22.4528 7.19378 22.114C7.12279 22.0379 7.06774 21.9477 7.03206 21.8491C7.52761 22.3971 8.10656 22.8598 8.74642 23.2191L7.83521 21.8436L7.88788 21.7998C8.40974 22.5404 9.07245 23.1657 9.83626 23.6383C9.85324 23.4447 9.87282 23.2784 9.88086 23.1113C9.92436 22.086 10.0423 21.0655 10.2337 20.0581C10.4503 18.9552 10.8296 17.8924 11.3585 16.9061C11.7983 16.1277 12.0462 15.2515 12.0807 14.3533C12.1153 13.455 11.9355 12.5616 11.5568 11.7503C10.8418 10.0375 9.829 8.4714 8.56769 7.12786C8.16837 6.71138 7.72088 6.34339 7.29476 5.95431C7.24878 5.91826 7.20755 5.87611 7.1723 5.8291C9.28607 7.23428 11.0042 9.17976 12.1563 11.4727C13.3084 13.7601 13.9275 16.2889 13.9652 18.8615C15.4175 15.0655 18.1167 11.9046 21.5996 9.92094C23.3551 8.92603 25.2813 8.28538 27.2732 8.03395C25.2922 8.45001 23.4144 9.2728 21.7534 10.4524C20.0924 11.6321 18.6829 13.144 17.6101 14.8968C19.509 13.3392 21.7508 12.2785 24.1412 11.8069C26.5317 11.3354 28.9986 11.4671 31.328 12.1906L31.3361 12.2426C31.0493 12.1988 30.7635 12.1458 30.4749 12.112C29.2676 11.9931 28.0504 12.0309 26.8524 12.2244C25.7081 12.3863 24.5769 12.6332 23.4676 12.9632C23.4183 12.9767 23.3714 12.9987 23.3292 13.0281C24.7249 13.1668 26.0636 13.6645 27.2205 14.4748C27.3661 14.5844 27.5019 14.7077 27.6091 14.7981C27.1928 14.6209 26.7551 14.4036 26.2968 14.2502C25.3519 13.9144 24.3614 13.7316 23.3613 13.7085C22.0158 13.6935 20.6989 14.1058 19.5924 14.8886C17.0624 16.6121 15.1108 19.0878 14.001 21.9815C13.2279 23.9493 12.8234 26.0479 12.8084 28.1684C12.798 29.2931 12.91 30.4156 13.1424 31.5149C13.1535 31.5647 13.1713 31.6126 13.1952 31.6574C13.1572 30.8841 13.2435 30.1097 13.4507 29.3649C13.9107 27.3194 14.7796 25.3933 16.0029 23.7077C16.9224 22.5152 18.0614 21.5183 19.3556 20.7732C20.8247 19.8775 22.4553 19.2938 24.1501 19.057C26.8508 18.6273 29.6124 19.2141 31.9221 20.7083C32.5824 21.1459 33.1863 21.6666 33.7195 22.2582Z" fill="white"/>
<path d="M43.2629 32.0146C43.1075 32.4116 42.9523 32.8092 42.7975 33.2074C42.5054 33.9582 42.2115 34.708 41.9248 35.4605C41.8837 35.5683 41.8354 35.6168 41.7166 35.6067C41.5822 35.5953 41.4472 35.5953 41.3128 35.6067C41.2585 35.6175 41.2021 35.6061 41.156 35.5748C41.1099 35.5436 41.0776 35.495 41.0662 35.4396C40.7831 34.6916 40.4909 33.9472 40.2006 33.202C40.0461 32.8037 39.8906 32.4073 39.6985 32.0146L39.393 35.5921H38.7114C38.7311 35.3711 38.7481 35.1565 38.7704 34.9428C38.8895 33.8376 39.006 32.7325 39.1197 31.6274C39.1251 31.5817 39.1197 31.536 39.1295 31.4895C39.1622 31.3393 39.1383 31.1821 39.0627 31.0492C38.987 30.9163 38.865 30.8175 38.7212 30.7724C38.8186 30.7651 38.8642 30.7587 38.9098 30.7587C39.3252 30.7587 39.7405 30.7651 40.155 30.7533C40.2089 30.7452 40.2637 30.7586 40.3081 30.7907C40.3525 30.8229 40.3831 30.8713 40.3935 30.9259C40.8104 32.0273 41.2297 33.1273 41.6514 34.2258C41.6702 34.276 41.6943 34.3253 41.7309 34.4084C41.8917 33.9947 42.039 33.6184 42.1846 33.2421C42.374 32.7519 42.5626 32.2612 42.7502 31.7699C42.7804 31.6958 42.804 31.6189 42.8207 31.5405C42.8759 31.3969 42.8758 31.2373 42.8204 31.0938C42.765 30.9502 42.6586 30.8335 42.5224 30.767C42.6117 30.7615 42.66 30.7569 42.7073 30.7559C43.1451 30.7559 43.5828 30.7559 44.0196 30.7559C44.109 30.7559 44.1652 30.7651 44.1759 30.8775C44.323 32.4119 44.4719 33.9459 44.6226 35.4797C44.6226 35.5135 44.6226 35.5473 44.6226 35.603C44.2876 35.603 43.958 35.6031 43.6292 35.5967C43.598 35.5967 43.5453 35.5053 43.5399 35.4514C43.4774 34.6221 43.421 33.7938 43.3612 32.9645C43.3388 32.6503 43.3147 32.3361 43.2915 32.0219L43.2629 32.0146Z" fill="white"/>
<path d="M68.9303 33.0663C68.8776 33.4442 68.8061 33.8192 68.7159 34.1897C68.6003 34.6381 68.3384 35.0328 67.9735 35.3084C67.6086 35.5839 67.1626 35.7238 66.7094 35.7049C66.2537 35.7228 65.8055 35.5832 65.4369 35.3086C65.0683 35.034 64.801 34.6405 64.678 34.1916C64.5038 33.6435 64.4645 33.06 64.5636 32.4928C64.656 31.9592 64.9358 31.4783 65.3503 31.1407C65.7649 30.8031 66.2857 30.6318 66.8151 30.6591C67.3444 30.6863 67.8458 30.9102 68.2251 31.2887C68.6044 31.6672 68.8354 32.1743 68.8749 32.7146C68.8847 32.8288 68.8856 32.9439 68.8909 33.058L68.9303 33.0663ZM67.7404 33.0663C67.7638 32.6237 67.6823 32.1819 67.5027 31.7784C67.438 31.6213 67.3304 31.4866 67.1927 31.3903C67.055 31.2941 66.8931 31.2405 66.7264 31.2359C66.5164 31.2324 66.3117 31.3032 66.1469 31.4364C65.9822 31.5696 65.8675 31.7569 65.8224 31.9666C65.5726 32.7776 65.5996 33.6513 65.8992 34.4445C65.9418 34.6313 66.0439 34.7983 66.1895 34.9193C66.335 35.0403 66.5157 35.1084 66.7032 35.113C67.14 35.113 67.3562 34.8089 67.5072 34.4417C67.6734 34.0052 67.7527 33.5391 67.7404 33.0708V33.0663Z" fill="white"/>
<path d="M70.7895 33.6745V35.6035C70.4554 35.6035 70.1428 35.6034 69.8301 35.5989C69.7988 35.5989 69.747 35.5322 69.7408 35.493C69.733 35.3845 69.7315 35.2756 69.7363 35.167C69.7363 34.1404 69.7363 33.114 69.7363 32.088C69.7363 31.9675 69.7363 31.847 69.7256 31.7273C69.7354 31.5252 69.683 31.3249 69.5758 31.1547C69.4686 30.9845 69.312 30.8529 69.1279 30.7783C69.2226 30.7674 69.2629 30.7583 69.3067 30.7583C69.932 30.7583 70.5528 30.7373 71.1746 30.7665C71.5386 30.779 71.8992 30.8423 72.2465 30.9546C72.4892 31.0288 72.6997 31.1857 72.8429 31.3992C72.9861 31.6128 73.0534 31.8701 73.0336 32.1283C73.0369 32.3742 72.9631 32.6146 72.8231 32.8146C72.6831 33.0146 72.4842 33.1636 72.2555 33.2397L72.1474 33.2854C72.1474 33.2982 72.1474 33.3156 72.1474 33.3174C72.3346 33.4106 72.5004 33.5433 72.6336 33.7069C72.7669 33.8705 72.8645 34.0612 72.9201 34.2663C73.0702 34.702 73.2176 35.1386 73.3766 35.6017C73.0103 35.6017 72.6709 35.6063 72.3315 35.5962C72.2948 35.5962 72.2421 35.5177 72.2287 35.4665C72.1207 35.1286 72.0206 34.7888 71.917 34.45C71.8955 34.3787 71.8722 34.3074 71.8463 34.238C71.818 34.1269 71.7672 34.0232 71.6972 33.9334C71.6273 33.8436 71.5398 33.7698 71.4402 33.7167C71.3407 33.6636 71.2313 33.6324 71.1193 33.6252C71.0072 33.6179 70.8948 33.6347 70.7895 33.6745ZM70.7895 32.2032C70.7895 32.437 70.7842 32.6717 70.7895 32.9055C70.7895 32.9584 70.8368 33.0471 70.8788 33.0553C70.9917 33.0961 71.1121 33.1109 71.2312 33.0985C71.3503 33.0861 71.4652 33.0469 71.5677 32.9836C71.6702 32.9204 71.7577 32.8347 71.824 32.7328C71.8902 32.6308 71.9336 32.5152 71.9509 32.3941C71.9713 32.2424 71.9695 32.0885 71.9455 31.9374C71.9325 31.7899 71.8697 31.6516 71.768 31.5462C71.6664 31.4407 71.5321 31.3747 71.3881 31.3592C71.2331 31.3435 71.0773 31.3401 70.9218 31.3492C70.8262 31.3492 70.786 31.3985 70.7886 31.5017C70.7958 31.7337 70.7914 31.9685 70.7914 32.2032H70.7895Z" fill="white"/>
<path d="M62.7253 33.3213H61.1173V35.5909H60.073C60.073 35.5242 60.065 35.4584 60.065 35.3927C60.065 34.3095 60.065 33.2263 60.065 32.143C60.065 32.028 60.065 31.9129 60.057 31.7988C60.0736 31.5907 60.03 31.3822 59.9319 31.199C59.8338 31.0159 59.6854 30.8662 59.5049 30.7685H61.1075V32.7358H62.7155V30.7676H63.758V35.5936H62.7262L62.7253 33.3213Z" fill="white"/>
<path d="M29.1289 30.7686V35.5937H28.0953V33.3232H26.4829V35.591H25.4341V35.3773C25.4341 34.2137 25.4342 33.0501 25.427 31.8865C25.424 31.7548 25.4111 31.6235 25.3885 31.4938C25.3688 31.3386 25.3114 31.1909 25.2216 31.0642C25.1317 30.9376 25.0122 30.8359 24.874 30.7686H26.4757V32.7349H28.0838V30.7686H29.1289Z" fill="white"/>
<path d="M37.0716 33.3004C37.2905 33.4049 37.483 33.5597 37.6339 33.7526C37.7849 33.9456 37.8901 34.1715 37.9417 34.4129C38.048 34.739 38.165 35.0623 38.2758 35.3865C38.2972 35.4487 38.3134 35.5134 38.3393 35.603C37.9819 35.603 37.6443 35.603 37.3102 35.5966C37.2726 35.5966 37.2208 35.5235 37.2038 35.4733C37.0904 35.1198 36.9858 34.7627 36.8759 34.4083C36.8468 34.3151 36.8125 34.2237 36.7732 34.1344C36.7226 33.977 36.6204 33.8424 36.4838 33.7533C36.3472 33.6643 36.1846 33.6263 36.0237 33.6457C35.946 33.6521 35.8674 33.6457 35.7701 33.6457V35.5866H34.7176V35.3802C34.7176 34.297 34.7176 33.2134 34.7176 32.1296C34.7176 31.9807 34.707 31.8318 34.6963 31.6838C34.7016 31.4876 34.6474 31.2947 34.5412 31.1311C34.435 30.9676 34.2819 30.8416 34.103 30.7705C34.1441 30.7628 34.1856 30.7573 34.2272 30.7541C34.9062 30.7541 35.586 30.7349 36.2632 30.765C36.5984 30.7811 36.9295 30.8476 37.2458 30.9623C37.4835 31.0425 37.6874 31.2026 37.8246 31.4166C37.9617 31.6306 38.0238 31.8857 38.0007 32.1405C38.0006 32.3805 37.9271 32.6147 37.7904 32.8099C37.6538 33.0051 37.4608 33.1516 37.2386 33.2292L37.0716 33.3004ZM35.7611 32.2045C35.7611 32.4392 35.7611 32.6739 35.7611 32.9087C35.7622 32.9365 35.7695 32.9638 35.7825 32.9884C35.7955 33.0129 35.8139 33.0341 35.8361 33.0502C35.9459 33.0915 36.063 33.108 36.1795 33.0987C36.2961 33.0895 36.4094 33.0548 36.5116 32.9968C36.6138 32.9389 36.7027 32.859 36.772 32.7628C36.8414 32.6666 36.8896 32.5562 36.9134 32.4392C36.9422 32.2474 36.9373 32.052 36.8992 31.862C36.8783 31.7328 36.8169 31.6141 36.7242 31.5238C36.6316 31.4335 36.5127 31.3766 36.3855 31.3615C36.2195 31.3424 36.0521 31.3375 35.8852 31.3469C35.7861 31.3469 35.7531 31.3989 35.7558 31.4994C35.7656 31.736 35.7611 31.9715 35.7611 32.2063V32.2045Z" fill="white"/>
<path d="M50.7046 30.7666H52.2975V30.9775C52.2975 31.9 52.2912 32.8225 52.2975 33.745C52.3005 33.9794 52.332 34.2126 52.3913 34.4391C52.4298 34.6295 52.5302 34.8009 52.6762 34.9255C52.8222 35.05 53.0052 35.1204 53.1953 35.125C53.3907 35.141 53.5855 35.0879 53.7473 34.9747C53.909 34.8615 54.0279 34.695 54.0841 34.503C54.1658 34.2241 54.2082 33.9348 54.2101 33.6436C54.2262 32.7559 54.2163 31.8671 54.2163 30.9793V30.7666H54.9766C54.9849 30.7861 54.9906 30.8067 54.9935 30.8278C54.9935 31.848 55.0034 32.8682 54.9811 33.8875C54.994 34.211 54.9185 34.5319 54.7633 34.8142C54.6081 35.0965 54.3791 35.329 54.102 35.4858C53.6938 35.6946 53.2301 35.7616 52.7813 35.6767C52.3325 35.5918 51.923 35.3597 51.6149 35.0154C51.3627 34.6593 51.2342 34.2273 51.2496 33.7879C51.2425 33.1632 51.2496 32.5393 51.2407 31.9146C51.2345 31.7486 51.2153 31.5834 51.1834 31.4205C51.1566 31.2818 51.0998 31.1511 51.0169 31.0379C50.934 30.9247 50.8272 30.832 50.7046 30.7666Z" fill="white"/>
<path d="M34.0993 35.6038C33.8018 35.6038 33.5239 35.6038 33.2461 35.6038C32.87 35.5974 32.9648 35.6704 32.829 35.306C32.7173 35.0055 32.6047 34.7059 32.5011 34.4027C32.4934 34.3586 32.4693 34.3192 32.4338 34.293C32.3983 34.2667 32.3542 34.2557 32.3108 34.2621C31.8954 34.2694 31.4801 34.2685 31.0656 34.2621C31.0222 34.2552 30.9777 34.2658 30.942 34.292C30.9063 34.3181 30.8819 34.3576 30.8743 34.4018C30.7617 34.7562 30.6349 35.1059 30.5233 35.4603C30.5148 35.5073 30.4886 35.5491 30.4503 35.5766C30.4121 35.6041 30.3648 35.6151 30.3187 35.6073C30.14 35.5973 29.9524 35.6073 29.7407 35.6073C29.889 35.1927 30.0257 34.8073 30.1633 34.4201C30.464 33.5743 30.7656 32.7292 31.0682 31.8847C31.0887 31.8253 31.1075 31.7649 31.1244 31.7019C31.1667 31.6195 31.1917 31.5289 31.1978 31.436C31.2039 31.3431 31.191 31.25 31.1599 31.1625C31.1288 31.075 31.0802 30.995 31.0171 30.9278C30.9541 30.8606 30.8781 30.8077 30.7939 30.7722C30.8341 30.7649 30.8747 30.7598 30.9154 30.7567C31.3192 30.7567 31.7195 30.7567 32.1268 30.7567C32.1651 30.7493 32.2047 30.7568 32.2377 30.7778C32.2708 30.7987 32.295 30.8315 32.3055 30.8699C32.8861 32.397 33.4692 33.9235 34.0546 35.4494C34.0662 35.4896 34.0752 35.5325 34.0993 35.6038ZM32.2394 33.6857L31.6846 32.0417H31.6427L31.1129 33.6857H32.2394Z" fill="white"/>
<path d="M22.4073 33.8442V35.5886H21.3621V32.118C21.3621 31.9974 21.3621 31.8769 21.3514 31.7572C21.3626 31.555 21.3157 31.354 21.2167 31.1786C21.1177 31.0032 20.9708 30.8611 20.7939 30.7699C20.8174 30.7638 20.8413 30.7596 20.8654 30.7571C21.5604 30.7571 22.2554 30.7516 22.9495 30.7635C23.1737 30.7692 23.3965 30.7998 23.6142 30.8548C23.8099 30.8862 23.9961 30.963 24.1583 31.0793C24.3206 31.1957 24.4545 31.3485 24.55 31.526C24.6456 31.7035 24.7001 31.9009 24.7095 32.1033C24.7188 32.3056 24.6828 32.5075 24.604 32.6934C24.499 32.9987 24.3077 33.2651 24.0543 33.4591C23.801 33.6531 23.497 33.7659 23.1809 33.783C22.9326 33.8241 22.6807 33.825 22.4073 33.8442ZM22.4189 31.3936C22.4143 31.4098 22.4111 31.4264 22.4091 31.443C22.4091 31.9301 22.4091 32.4172 22.4091 32.9044C22.4091 33.2332 22.4448 33.2697 22.7664 33.2588H22.7995C22.9237 33.2526 23.0452 33.2198 23.1562 33.1625C23.2672 33.1051 23.3653 33.0246 23.4438 32.9261C23.5224 32.8276 23.5798 32.7132 23.6124 32.5905C23.645 32.4678 23.652 32.3395 23.6329 32.2139C23.6231 31.3754 22.9629 31.2238 22.4189 31.3936Z" fill="white"/>
<path d="M47.5188 30.7664C47.5823 30.7664 47.6296 30.7581 47.677 30.7581C48.0584 30.7581 48.4399 30.7581 48.8213 30.7581C48.8695 30.7506 48.9188 30.762 48.9592 30.7899C48.9996 30.8178 49.0282 30.8602 49.0393 30.9087C49.489 32.0949 49.9419 33.2796 50.3981 34.4626C50.5172 34.7714 50.6362 35.0807 50.7553 35.3906C50.7794 35.4527 50.7992 35.5166 50.8305 35.607C50.4436 35.607 50.0818 35.607 49.72 35.6006C49.6825 35.6006 49.6307 35.5221 49.6137 35.471C49.4824 35.1239 49.3537 34.7749 49.234 34.4242C49.2256 34.3744 49.1988 34.33 49.1589 34.3002C49.1191 34.2704 49.0695 34.2575 49.0206 34.2644C48.6114 34.2735 48.2023 34.2717 47.7922 34.2644C47.7491 34.2567 47.7047 34.2668 47.6689 34.2925C47.6331 34.3182 47.6086 34.3574 47.601 34.4014C47.4875 34.7613 47.359 35.1156 47.2437 35.4745C47.2375 35.5167 47.2152 35.5547 47.1817 35.58C47.1482 35.6054 47.1062 35.6161 47.065 35.6098C46.8756 35.6016 46.6862 35.6098 46.4683 35.6098C46.5478 35.3833 46.6175 35.1814 46.6898 34.9795C47.0543 33.9566 47.4191 32.9339 47.7842 31.9116C47.8011 31.8632 47.819 31.8149 47.8342 31.7665C47.883 31.6808 47.9135 31.5856 47.924 31.4871C47.9344 31.3885 47.9245 31.2888 47.8947 31.1945C47.865 31.1002 47.8161 31.0133 47.7513 30.9395C47.6866 30.8658 47.6074 30.8068 47.5188 30.7664ZM47.8368 33.679H48.9607L48.405 32.0404H48.3639L47.8368 33.679Z" fill="white"/>
<path d="M22.1538 22.3571C22.1618 22.1973 22.1717 22.0365 22.1762 21.8767C22.1762 21.7726 22.2199 21.7214 22.3271 21.7159C22.9072 21.6638 23.4886 21.8 23.9887 22.1052C24.4887 22.4103 24.882 22.8689 25.1125 23.4156C25.3758 24.0881 25.4976 24.8099 25.4699 25.5337C25.4699 25.678 25.4127 25.71 25.2832 25.6871C24.5233 25.5823 23.8049 25.2709 23.2026 24.7856C22.8818 24.5185 22.6221 24.1826 22.4421 23.8016C22.2622 23.4206 22.1662 23.0039 22.161 22.5809C22.161 22.5069 22.161 22.432 22.161 22.3571H22.1538Z" fill="#16AE44"/>
<path d="M38.556 22.8584C38.9744 22.871 39.3846 22.9802 39.7559 23.1777C40.1272 23.3753 40.4499 23.6561 40.7 23.9992C41.0742 24.5016 41.36 25.0669 41.5443 25.6697C41.572 25.7528 41.5987 25.8213 41.4728 25.8432C40.9627 25.9728 40.4319 25.992 39.9141 25.8999C39.3963 25.8077 38.9031 25.6061 38.4658 25.308C37.9129 24.8844 37.523 24.2757 37.3643 23.5882C37.2464 23.1507 37.15 23.1617 37.6824 23.0183C37.9683 22.9361 38.2648 22.9059 38.556 22.8584Z" fill="#16AE44"/>
<path d="M38.1719 20.4185C36.4611 21.6132 34.393 21.5648 33.2236 19.5481C33.5376 19.214 33.9233 18.9592 34.3502 18.8038C34.7025 18.6678 35.0794 18.6113 35.4551 18.6385C35.8308 18.6656 36.1962 18.7756 36.5263 18.9609C37.1686 19.3236 37.7293 19.8202 38.1719 20.4185Z" fill="#16AE44"/>
<path d="M32.3608 23.848C32.4127 23.521 32.4627 23.1941 32.5154 22.8671C32.5332 22.7575 32.5949 22.7164 32.7057 22.7301C33.3596 22.7738 33.9771 23.0533 34.4485 23.5187C34.9199 23.9841 35.2146 24.6054 35.2802 25.272C35.3495 25.83 35.3405 26.3953 35.2535 26.9507C35.2392 27.042 35.2043 27.0913 35.1114 27.0621C34.147 26.8216 33.3084 26.2144 32.7664 25.3642C32.5009 24.905 32.3608 24.3814 32.3608 23.848Z" fill="#16AE44"/>
<path d="M3.07324 7.11946C3.29122 7.02264 3.48506 6.92305 3.68784 6.84541C4.31097 6.59038 4.98854 6.50634 5.65324 6.60158C6.06371 6.6741 6.45421 6.83559 6.79858 7.0752C7.14296 7.3148 7.43323 7.62698 7.64982 7.99076C7.72397 8.10584 7.78294 8.23004 7.85887 8.3433C7.87538 8.36096 7.88745 8.38249 7.89409 8.40596C7.90074 8.42943 7.90178 8.45414 7.89704 8.47809C7.8923 8.50204 7.88187 8.52444 7.86683 8.54343C7.85179 8.56241 7.83249 8.57741 7.81056 8.58713C7.40138 8.92473 6.90572 9.13462 6.38289 9.19164C5.86005 9.24865 5.33226 9.15043 4.86263 8.90867C4.27707 8.58779 3.77288 8.13149 3.39036 7.57613C3.28673 7.43913 3.19027 7.29117 3.07324 7.11946Z" fill="#16AE44"/>
<path d="M20.5681 5.71191C20.8162 6.10386 21.0051 6.53188 21.1283 6.98147C21.2619 7.39607 21.3061 7.83534 21.2578 8.26908C21.2096 8.70282 21.07 9.12072 20.8487 9.49403C20.5623 9.94034 20.1812 10.3149 19.7338 10.59C19.7189 10.6046 19.7009 10.6155 19.6813 10.622C19.6617 10.6284 19.6409 10.6302 19.6205 10.6272C19.6001 10.6242 19.5806 10.6165 19.5635 10.6047C19.5465 10.5929 19.5324 10.5773 19.5221 10.559C19.1228 10.1259 18.8708 9.57253 18.8037 8.98129C18.7366 8.39004 18.8578 7.79247 19.1495 7.27736C19.5119 6.66127 19.9949 6.12834 20.5681 5.71191Z" fill="#16AE44"/>
<path d="M35.8564 13.2503C35.3383 13.2392 34.8321 13.0893 34.3884 12.8153C33.9447 12.5414 33.5792 12.1531 33.3283 11.6894C33.3164 11.6757 33.3076 11.6596 33.3026 11.642C33.2976 11.6244 33.2965 11.606 33.2994 11.5879C33.3024 11.5699 33.3093 11.5527 33.3195 11.5377C33.3298 11.5228 33.3431 11.5103 33.3587 11.5013C33.7643 11.0983 34.2835 10.8358 34.8429 10.7507C35.4023 10.6657 35.9737 10.7624 36.4765 11.0272C37.0819 11.37 37.6118 11.8363 38.0335 12.3972C38.1005 12.4785 38.1122 12.5306 38.0077 12.5981C37.3611 13.0096 36.6178 13.2349 35.8564 13.2503Z" fill="#16AE44"/>
<path d="M13.2634 4.36133C13.3197 4.5787 13.3768 4.76864 13.417 4.96227C13.578 5.63223 13.5599 6.33412 13.3644 6.99442C13.2251 7.4201 12.9922 7.80751 12.6836 8.12672C12.3749 8.44594 11.9986 8.68844 11.5839 8.8357C11.1792 9.00101 11.2561 9.06502 11.0596 8.6184C10.7794 8.01053 10.7229 7.31978 10.9004 6.67277C11.0779 6.02576 11.4776 5.46579 12.0261 5.09561C12.4088 4.80182 12.8241 4.55537 13.2634 4.36133Z" fill="#16AE44"/>
<path d="M30.7181 9.79745C30.4206 10.0185 30.1454 10.2541 29.8444 10.4441C29.2274 10.8653 28.4854 11.0517 27.7477 10.971C27.0029 10.8602 26.3223 10.4785 25.8306 9.89601C25.8187 9.8739 25.8125 9.8491 25.8125 9.82387C25.8125 9.79864 25.8187 9.77384 25.8306 9.75174C26.0454 9.43548 26.3201 9.16653 26.6383 8.96071C26.9566 8.75488 27.312 8.61635 27.6835 8.55343C28.4141 8.46435 29.1517 8.64541 29.7631 9.06395C30.0651 9.24661 30.3402 9.47678 30.626 9.68685C30.6595 9.72118 30.6903 9.75822 30.7181 9.79745Z" fill="#16AE44"/>
<path d="M32.9843 5.91561C32.4055 6.61455 31.6184 7.09996 30.7438 7.29743C30.0357 7.43612 29.3027 7.28242 28.7052 6.86997C28.5185 6.74576 28.3479 6.59595 28.1692 6.46169C28.1478 6.45122 28.1292 6.43572 28.1149 6.41631C28.1007 6.39691 28.0913 6.37425 28.0874 6.35031C28.0836 6.32637 28.0854 6.30179 28.0928 6.27873C28.1002 6.25568 28.113 6.2348 28.13 6.21786C28.3793 5.79277 28.7357 5.44408 29.1621 5.20819C29.5885 4.97231 30.0691 4.85791 30.5536 4.87707C31.1994 4.92313 31.8229 5.1379 32.3643 5.50086C32.5653 5.6269 32.7592 5.76673 32.9843 5.91561Z" fill="#16AE44"/>
<path d="M25.6816 3.85156C25.7343 4.25891 25.8022 4.62973 25.8254 5.00238C25.9139 5.75469 25.7231 6.51355 25.2907 7.12896C24.8583 7.74438 24.2158 8.17148 23.4902 8.32593C23.4612 8.32628 23.4325 8.31939 23.4067 8.30586C23.3808 8.29234 23.3587 8.27262 23.342 8.24833C23.0657 7.7119 22.97 7.09735 23.0696 6.4997C23.1692 5.90206 23.4586 5.35463 23.8931 4.94206C24.4186 4.46919 25.0249 4.09953 25.6816 3.85156Z" fill="#16AE44"/>
<path d="M32.1028 16.0645C31.274 16.1258 30.453 15.8649 29.8043 15.3339C29.3083 14.8709 28.965 14.262 28.8216 13.5912C28.8127 13.5537 28.8762 13.4716 28.9226 13.4515C29.3832 13.2125 29.9019 13.1158 30.4153 13.1734C30.9287 13.231 31.4145 13.4403 31.8134 13.7757C32.4108 14.3109 32.8574 14.9995 33.107 15.7704C33.1507 15.8836 33.0891 15.9166 33.0006 15.9303C32.6433 15.9832 32.2842 16.0362 32.1028 16.0645Z" fill="#16AE44"/>
<path d="M5.33407 0.664062C5.88879 0.81525 6.40112 1.09742 6.82968 1.48798C7.25823 1.87854 7.59112 2.36651 7.80153 2.91262C8.00174 3.59277 7.97725 4.32142 7.73184 4.98591C7.71688 5.01248 7.69562 5.03484 7.67001 5.0508C7.64441 5.06676 7.61524 5.07579 7.58528 5.07722C6.98961 5.01369 6.43182 4.74856 6.00047 4.32376C5.56912 3.89897 5.28892 3.33888 5.20452 2.73267C5.12623 2.09042 5.15405 1.43939 5.28674 0.806548C5.29925 0.757983 5.31505 0.710368 5.33407 0.664062Z" fill="#16AE44"/>
<path d="M16.3874 10.2761C16.4008 10.9494 16.2438 11.6148 15.9318 12.2078C15.7257 12.574 15.4439 12.8898 15.1062 13.1332C14.7684 13.3766 14.3829 13.5418 13.9763 13.6172C13.8512 13.6464 13.7234 13.6655 13.5975 13.6902C13.576 13.6973 13.5534 13.6993 13.5311 13.6962C13.5087 13.6931 13.4873 13.6851 13.4685 13.6725C13.4496 13.6599 13.4338 13.6431 13.4221 13.6234C13.4104 13.6037 13.4032 13.5815 13.401 13.5586C13.1969 12.9253 13.2218 12.238 13.4713 11.6219C13.7208 11.0058 14.1783 10.5017 14.7606 10.2012C15.2149 9.95134 15.6994 9.76374 16.2016 9.64317C16.3088 9.61485 16.3498 9.64322 16.3561 9.74551C16.3677 9.9227 16.3776 10.0989 16.3874 10.2761Z" fill="#16AE44"/>
<path d="M6.57324 10.8939C6.91271 10.7697 7.23513 10.6245 7.57192 10.5331C8.30733 10.2957 9.10375 10.3546 9.79816 10.6976C10.3844 11.0216 10.8519 11.5315 11.1301 12.1507C11.1343 12.1778 11.132 12.2056 11.1234 12.2317C11.1149 12.2578 11.1003 12.2814 11.0809 12.3005C10.652 12.6581 10.1234 12.8676 9.5709 12.8991C9.01836 12.9306 8.47027 12.7825 8.00517 12.4759C7.45419 12.0886 6.98538 11.5914 6.62679 11.0145C6.61249 10.9934 6.60451 10.9661 6.57324 10.8939Z" fill="#16AE44"/>
<path d="M27.1178 22.466C27.1327 22.3411 27.141 22.2155 27.1428 22.0898C27.1428 21.919 27.2197 21.8842 27.3688 21.8796C27.9457 21.8485 28.5157 22.0189 28.9854 22.3628C29.455 22.7067 29.7964 23.2036 29.9533 23.772C30.1019 24.2957 30.1735 24.8389 30.1658 25.3841C30.1658 25.4809 30.1471 25.5403 30.0346 25.5229C29.1787 25.4299 28.3825 25.0312 27.7861 24.3968C27.3329 23.8626 27.0942 23.1728 27.1178 22.466Z" fill="#16AE44"/>
<path d="M0 4.21557C0.19832 4.074 0.378698 3.93335 0.570764 3.81096C1.04396 3.49925 1.58482 3.31109 2.14576 3.26299C2.75649 3.21573 3.36232 3.40476 3.84312 3.79268C4.05078 3.96669 4.24876 4.15239 4.43623 4.34891C4.45523 4.36081 4.47116 4.37715 4.48269 4.39663C4.49422 4.41611 4.50105 4.43824 4.50254 4.46096C4.50402 4.48368 4.50019 4.50642 4.4913 4.5273C4.48242 4.54818 4.46877 4.56655 4.4515 4.58092C4.20816 4.88659 3.89954 5.13129 3.54945 5.29625C3.19935 5.46121 2.81696 5.54204 2.43158 5.53261C1.95216 5.51693 1.48643 5.36548 1.08624 5.09512C0.750347 4.87135 0.441273 4.60376 0.122353 4.35259C0.0781812 4.3102 0.0372981 4.26438 0 4.21557Z" fill="#16AE44"/>
<path d="M82.324 32.6533L82.8413 31.6029C82.9593 31.3627 83.0798 31.1235 83.1941 30.8815C83.2067 30.841 83.2327 30.8063 83.2676 30.7833C83.3025 30.7603 83.344 30.7504 83.3853 30.7554C83.58 30.7645 83.7749 30.7554 84 30.7554C83.8311 31.0696 83.6766 31.3592 83.5211 31.6478C83.2674 32.119 83.0092 32.5884 82.7609 33.0634C82.7171 33.1479 82.6932 33.2418 82.6912 33.3374C82.6858 34.0188 82.6912 34.701 82.6912 35.3824V35.5852H81.6514C81.6514 35.5231 81.6433 35.4618 81.6433 35.4025C81.6433 34.8015 81.6433 34.1996 81.6388 33.5977C81.6362 33.4914 81.6073 33.3873 81.5549 33.2954C81.2092 32.7063 80.8563 32.1208 80.5017 31.5363C80.3328 31.2013 80.0656 30.9286 79.7378 30.7563C80.0706 30.7738 80.4041 30.7709 80.7366 30.7473C80.9079 30.706 81.0881 30.7334 81.2403 30.8237C81.3924 30.9141 81.505 31.0606 81.5549 31.2331C81.7335 31.6624 81.9926 32.0551 82.2168 32.4679C82.2427 32.5227 82.2758 32.5729 82.324 32.6533Z" fill="white"/>
<path d="M24.9939 17.1386C24.7965 17.177 24.6133 17.2245 24.4284 17.2464C23.7712 17.3558 23.0971 17.2676 22.4881 16.9924C22.1728 16.8328 21.8918 16.6104 21.6617 16.3383C21.4316 16.0662 21.257 15.7498 21.1481 15.4078C21.1293 15.3539 21.1133 15.2991 21.0954 15.2453C20.9909 14.9338 20.9997 14.9219 21.2945 14.8169C21.7631 14.6335 22.2726 14.5882 22.7651 14.6862C23.3449 14.821 23.8593 15.161 24.2176 15.6462C24.5263 16.0479 24.7707 16.4971 24.942 16.9769C24.9608 17.018 24.9716 17.0619 24.9939 17.1386Z" fill="#16AE44"/>
<path d="M77.1685 31.3392C76.3689 31.2534 76.0492 31.3986 75.8223 31.8745V30.7666H79.5287V31.9101C79.2607 31.2451 78.7328 31.3155 78.2084 31.3183V35.5926H77.1685V31.3392Z" fill="white"/>
<path d="M56.9284 31.3386C56.303 31.2774 55.8564 31.3094 55.5884 31.904V30.7695H59.2913V31.9003C59.0233 31.2427 58.4989 31.3157 57.9798 31.3203V35.5892H56.9284V31.3386Z" fill="white"/>
<path d="M74.0927 35.6049V35.3665C74.0885 34.1986 74.0845 33.0307 74.0803 31.8629C74.0803 31.8227 74.0749 31.7825 74.0731 31.7424C74.0846 31.5449 74.0401 31.3483 73.9451 31.1761C73.85 31.0039 73.7084 30.8634 73.5371 30.7715H75.145V30.9541C75.145 32.4374 75.145 33.9197 75.145 35.4029C75.145 35.5719 75.0978 35.6176 74.9378 35.6103C74.6609 35.5948 74.3884 35.6049 74.0927 35.6049Z" fill="white"/>
<path d="M81.3904 37.8368C80.3425 37.8514 79.2044 37.866 78.0663 37.8852C76.2046 37.9162 74.3432 37.9491 72.4821 37.9838C71.1587 38.0076 69.8354 38.0308 68.5121 38.0533C67.7894 38.067 67.0667 38.0807 66.344 38.1026C66.2279 38.1026 66.1975 38.0706 66.1993 37.9601C66.2073 37.5034 66.1493 37.5692 66.5673 37.5747C67.6268 37.5869 68.6866 37.6012 69.7467 37.6176C71.092 37.6395 72.4374 37.6627 73.7828 37.6871C75.1282 37.7114 76.4737 37.7354 77.8197 37.7592C79.0418 37.7857 80.2639 37.8149 81.3904 37.8368Z" fill="#16AE44"/>
<path d="M24.2011 36.9837C24.3048 36.9762 24.4089 36.9914 24.5063 37.0284C24.6038 37.0654 24.6924 37.1234 24.7661 37.1983C24.8398 37.2733 24.8969 37.3635 24.9337 37.4629C24.9705 37.5623 24.9859 37.6686 24.9792 37.7746C24.9694 37.9866 24.8791 38.1863 24.7274 38.3311C24.5757 38.4759 24.3747 38.5544 24.1672 38.5498C23.9597 38.5453 23.7621 38.4581 23.6166 38.3068C23.4711 38.1555 23.3892 37.9521 23.3882 37.74C23.387 37.6338 23.4078 37.5286 23.4492 37.4312C23.4906 37.3339 23.5518 37.2466 23.6286 37.1751C23.7054 37.1037 23.7961 37.0497 23.8948 37.0167C23.9935 36.9837 24.0978 36.9725 24.2011 36.9837ZM24.1806 38.2368C24.2407 38.2407 24.3009 38.2315 24.3572 38.2096C24.4136 38.1877 24.4646 38.1537 24.507 38.1099C24.5493 38.0661 24.582 38.0134 24.6027 37.9556C24.6235 37.8977 24.6319 37.8361 24.6273 37.7746C24.6279 37.7147 24.6169 37.6551 24.5951 37.5995C24.5732 37.5438 24.5409 37.4931 24.4999 37.4502C24.4589 37.4073 24.41 37.3732 24.356 37.3496C24.3021 37.3261 24.2442 37.3136 24.1855 37.3129C24.1268 37.3123 24.0686 37.3234 24.0142 37.3457C23.9597 37.3681 23.9101 37.4012 23.8682 37.4432C23.8262 37.4851 23.7928 37.5351 23.7698 37.5902C23.7468 37.6454 23.7346 37.7046 23.7339 37.7646C23.7293 37.8267 23.7376 37.8891 23.7583 37.9477C23.7791 38.0062 23.8119 38.0597 23.8544 38.1043C23.8969 38.149 23.9482 38.1839 24.0049 38.2068C24.0616 38.2296 24.1223 38.2398 24.1832 38.2368H24.1806Z" fill="#16AE44"/>
<path d="M58.4738 37.7644C58.4778 37.8706 58.4603 37.9764 58.4222 38.0753C58.3841 38.1742 58.3262 38.264 58.2524 38.3388C58.1785 38.4136 58.0903 38.4719 57.9932 38.5099C57.8961 38.548 57.7924 38.565 57.6886 38.5599C57.5353 38.5583 57.3858 38.5103 57.2591 38.4221C57.1323 38.3338 57.034 38.2091 56.9764 38.0638C56.9188 37.9186 56.9045 37.7592 56.9353 37.6056C56.9661 37.4521 57.0407 37.3112 57.1496 37.2009C57.2585 37.0906 57.3969 37.0156 57.5474 36.9855C57.6979 36.9554 57.8537 36.9714 57.9953 37.0317C58.1368 37.0919 58.2577 37.1936 58.3429 37.324C58.4281 37.4544 58.4736 37.6076 58.4738 37.7644ZM58.1253 37.7845C58.1265 37.7245 58.116 37.6648 58.0946 37.609C58.0732 37.5531 58.0413 37.5022 58.0006 37.459C57.9599 37.4158 57.9113 37.3812 57.8575 37.3572C57.8038 37.3332 57.7458 37.3202 57.6872 37.3191C57.6285 37.3179 57.5703 37.3286 57.5157 37.3505C57.461 37.3724 57.4111 37.4051 57.3689 37.4467C57.3266 37.4883 57.2928 37.5381 57.2693 37.593C57.2458 37.648 57.2331 37.7071 57.232 37.7671C57.2298 37.8882 57.2747 38.0052 57.3569 38.0925C57.4391 38.1798 57.5518 38.2301 57.6703 38.2324C57.7887 38.2347 57.9032 38.1888 57.9886 38.1048C58.074 38.0208 58.1231 37.9056 58.1253 37.7845Z" fill="#16AE44"/>
<path d="M44.6172 37.7527C44.6118 37.6387 44.632 37.5249 44.676 37.42C44.72 37.3151 44.7869 37.2219 44.8714 37.1473C44.956 37.0728 45.056 37.0188 45.164 36.9897C45.272 36.9606 45.385 36.957 45.4945 36.9792C45.596 36.9813 45.6959 37.0052 45.7878 37.0494C45.8796 37.0937 45.9613 37.1572 46.0274 37.2359C46.0936 37.3146 46.1428 37.4067 46.1718 37.5061C46.2008 37.6056 46.2089 37.7102 46.1957 37.8131C46.194 37.9177 46.1713 38.0209 46.1289 38.1162C46.0864 38.2115 46.0253 38.2968 45.9491 38.3668C45.873 38.4368 45.7836 38.49 45.6864 38.5231C45.5893 38.5563 45.4866 38.5686 45.3846 38.5593C45.2805 38.5651 45.1764 38.5481 45.0793 38.5093C44.9821 38.4705 44.8942 38.4109 44.8215 38.3345C44.7488 38.2581 44.6929 38.1666 44.6577 38.0662C44.6224 37.9659 44.6086 37.859 44.6172 37.7527ZM45.4114 38.2386C45.5043 38.2396 45.5953 38.2123 45.6727 38.1599C45.7501 38.1075 45.8105 38.0326 45.8459 37.9448C45.8813 37.8571 45.8901 37.7605 45.8713 37.6676C45.8525 37.5746 45.8069 37.4895 45.7403 37.4233C45.6738 37.3571 45.5893 37.3128 45.4979 37.2962C45.4065 37.2795 45.3124 37.2912 45.2276 37.3298C45.1427 37.3685 45.0711 37.4322 45.022 37.5128C44.9729 37.5934 44.9487 37.6871 44.9522 37.7819C44.9513 37.8433 44.9627 37.9042 44.9856 37.9609C45.0085 38.0176 45.0425 38.0688 45.0855 38.1115C45.1285 38.1543 45.1796 38.1877 45.2356 38.2095C45.2917 38.2314 45.3515 38.2412 45.4114 38.2386Z" fill="#16AE44"/>
<path d="M60.4724 38.4976C60.4198 38.5222 60.3627 38.5349 60.3049 38.535C60.2471 38.535 60.1899 38.5225 60.1373 38.4981C60.0846 38.4737 60.0377 38.438 59.9996 38.3935C59.9616 38.349 59.9333 38.2967 59.9166 38.2401C59.8943 38.1898 59.8613 38.1222 59.8184 38.1067C59.7458 38.0811 59.6674 38.0785 59.5933 38.0994C59.5638 38.1085 59.5602 38.2053 59.5441 38.2619C59.5173 38.3533 59.6201 38.5086 59.4227 38.5214C59.2252 38.5341 59.2002 38.5214 59.2002 38.3122C59.2002 37.935 59.2002 37.5569 59.2002 37.1797C59.2002 37.0482 59.2377 36.9915 59.3726 36.9969C59.5405 37.0052 59.7086 36.9969 59.8765 36.9969C59.9811 36.9878 60.0858 37.0133 60.1751 37.0697C60.2644 37.1262 60.3335 37.2105 60.3723 37.3102C60.4181 37.4131 60.4298 37.5285 60.4056 37.6388C60.3814 37.7491 60.3227 37.8483 60.2383 37.9213C60.1642 37.9852 60.1713 38.0372 60.2222 38.1094C60.3062 38.2364 60.3866 38.3661 60.4724 38.4976ZM59.5451 37.5414C59.5451 37.7907 59.5451 37.7906 59.7416 37.7915C59.9605 37.7915 60.0801 37.6947 60.0748 37.5248C60.0694 37.355 59.9551 37.2829 59.7353 37.2838C59.545 37.2893 59.5451 37.2893 59.5451 37.5414Z" fill="#16AE44"/>
<path d="M30.7583 37.7536C30.7583 37.5536 30.7645 37.3526 30.7583 37.1526C30.7529 37.0274 30.8019 36.9955 30.9154 36.9983C31.0289 37.001 31.1173 37.0047 31.1048 37.159C31.0941 37.273 31.0959 37.3879 31.1102 37.5015C31.1164 37.5472 31.1825 37.5846 31.2254 37.622C31.2344 37.6303 31.2575 37.622 31.2745 37.622C31.4299 37.6147 31.6318 37.6622 31.7256 37.5818C31.8051 37.5142 31.7703 37.2941 31.7667 37.1425C31.7667 37.0101 31.8257 36.9936 31.9302 36.9964C32.0347 36.9991 32.1178 36.99 32.1152 37.1416C32.108 37.5417 32.1089 37.9436 32.1152 38.3445C32.1152 38.4925 32.0526 38.5271 31.9204 38.5271C31.7882 38.5271 31.7686 38.4614 31.7686 38.3445C31.7686 37.9399 31.7686 37.9399 31.3701 37.9399C31.0923 37.9399 31.0923 37.9398 31.0914 38.2138C31.0883 38.254 31.0883 38.2944 31.0914 38.3345C31.1137 38.4623 31.0798 38.5171 30.936 38.5217C30.7922 38.5262 30.7492 38.4732 30.7573 38.3335C30.7662 38.1389 30.7573 37.9445 30.7573 37.749L30.7583 37.7536Z" fill="#16AE44"/>
<path d="M29.1019 38.5061C28.8482 38.5582 28.6552 38.5353 28.5658 38.2732C28.5505 38.2176 28.5164 38.1693 28.4694 38.1371C28.3905 38.104 28.3052 38.0899 28.2201 38.0959C28.1951 38.0959 28.1745 38.1956 28.1567 38.2504C28.1254 38.3472 28.2353 38.5069 28.0307 38.5243C27.8887 38.5362 27.8182 38.5052 27.8235 38.3325C27.8369 37.9444 27.8316 37.5544 27.8235 37.1662C27.8235 37.0393 27.8628 36.9927 27.987 36.9982C28.1549 37.0055 28.3229 36.9909 28.4908 36.9982C28.5952 36.9892 28.6998 37.0142 28.7895 37.0697C28.8792 37.1251 28.9495 37.2081 28.9902 37.3068C29.0375 37.4088 29.0508 37.5238 29.0282 37.6343C29.0056 37.7447 28.9484 37.8446 28.8652 37.9188C28.849 37.9297 28.8355 37.9442 28.8256 37.9612C28.8157 37.9781 28.8097 37.9972 28.808 38.0169C28.8064 38.0366 28.8091 38.0564 28.8161 38.0749C28.823 38.0933 28.834 38.1099 28.8482 38.1234C28.9312 38.2439 29.0072 38.3682 29.1019 38.5061ZM28.1541 37.5425C28.1541 37.7882 28.1541 37.7909 28.3578 37.79C28.59 37.79 28.6989 37.7069 28.6962 37.5343C28.6936 37.3616 28.582 37.2832 28.3497 37.2841C28.1576 37.2841 28.1532 37.2895 28.1541 37.5425Z" fill="#16AE44"/>
<path d="M55.115 38.4988C54.7969 38.56 54.7693 38.5473 54.6041 38.297C54.5317 38.1874 54.4843 38.0467 54.3047 38.0751C54.2154 38.0888 54.1707 38.1171 54.1743 38.2112C54.1743 38.2687 54.169 38.3263 54.1743 38.3829C54.185 38.5199 54.1002 38.5226 54.0019 38.5254C53.9036 38.5281 53.8482 38.4961 53.8491 38.3801C53.8536 37.9682 53.8491 37.5581 53.8545 37.1434C53.8545 37.0959 53.9063 37.0092 53.9331 37.0092C54.1946 36.9937 54.457 37.0069 54.7157 37.0484C54.7973 37.0707 54.8717 37.1146 54.9313 37.1757C54.991 37.2368 55.0338 37.3129 55.0554 37.3964C55.077 37.4799 55.0766 37.5677 55.0542 37.6509C55.0319 37.7342 54.9885 37.8099 54.9283 37.8705C54.9034 37.8873 54.8827 37.9098 54.8679 37.9363C54.853 37.9627 54.8444 37.9923 54.8428 38.0228C54.8411 38.0532 54.8465 38.0836 54.8584 38.1115C54.8703 38.1395 54.8885 38.1643 54.9114 38.1838C54.9864 38.2806 55.0453 38.3902 55.115 38.4988ZM54.1752 37.538C54.1752 37.7883 54.1752 37.7883 54.3735 37.7901C54.6049 37.7901 54.7192 37.7125 54.7237 37.5445C54.7282 37.3764 54.6228 37.2851 54.3906 37.2832C54.1771 37.2823 54.1761 37.2887 54.1752 37.538Z" fill="#16AE44"/>
<path d="M41.8106 37.7657C41.8106 37.9712 41.8052 38.1776 41.8106 38.3831C41.815 38.5384 41.715 38.5192 41.6185 38.5247C41.5221 38.5302 41.4746 38.4945 41.4729 38.3785C41.4666 37.9411 41.4622 37.9411 41.0316 37.9411C40.7958 37.9411 40.7958 37.9411 40.7949 38.1868C40.7949 38.2324 40.7949 38.278 40.7949 38.3237C40.7949 38.5064 40.6966 38.5795 40.5268 38.5119C40.5076 38.4993 40.4914 38.4823 40.4795 38.4624C40.4676 38.4424 40.4602 38.4201 40.458 38.3968C40.4536 37.973 40.458 37.5502 40.458 37.1264C40.458 37.0131 40.5224 36.9985 40.6117 37.0003C40.701 37.0021 40.7842 36.9948 40.7851 37.1245C40.7851 37.2387 40.8002 37.3528 40.7958 37.467C40.7895 37.5967 40.8511 37.6406 40.9654 37.6369C41.0941 37.6369 41.2227 37.6231 41.3514 37.625C41.4487 37.625 41.4792 37.5757 41.4792 37.4881C41.4792 37.3675 41.4792 37.2469 41.4792 37.1273C41.4792 36.9857 41.5756 37.003 41.6659 36.9994C41.7561 36.9957 41.8133 37.0176 41.8106 37.13C41.8061 37.3418 41.8106 37.5538 41.8106 37.7657Z" fill="#16AE44"/>
<path d="M50.3198 38.4988C50.0697 38.5618 49.8929 38.5289 49.7839 38.2869C49.7365 38.1782 49.6793 38.0576 49.5158 38.0768C49.4149 38.0878 49.3737 38.1252 49.3782 38.2239C49.3782 38.2696 49.3728 38.3152 49.3782 38.3609C49.3979 38.5162 49.3023 38.5198 49.1906 38.5244C49.079 38.5289 49.0424 38.4814 49.0451 38.3618C49.0549 37.9682 49.054 37.5727 49.0504 37.1745C49.0504 37.0457 49.0835 36.9845 49.2211 36.9918C49.389 37.0028 49.5569 36.9918 49.7249 36.9964C49.8293 36.9905 49.9329 37.0184 50.0209 37.0761C50.109 37.1338 50.1769 37.2184 50.2153 37.3179C50.2612 37.4174 50.2728 37.5298 50.2483 37.6369C50.2238 37.744 50.1646 37.8395 50.0804 37.9079C50.0638 37.9183 50.0498 37.9324 50.0394 37.9492C50.029 37.966 50.0225 37.985 50.0204 38.0048C50.0183 38.0246 50.0207 38.0446 50.0274 38.0632C50.0341 38.0819 50.0449 38.0988 50.059 38.1125C50.1465 38.2376 50.2269 38.36 50.3198 38.4988ZM49.3801 37.4942C49.3801 37.7874 49.38 37.7874 49.5828 37.7883C49.8088 37.7883 49.9142 37.7024 49.9124 37.5197C49.9124 37.3535 49.8097 37.2941 49.5766 37.2786C49.3818 37.2694 49.3613 37.3727 49.3801 37.4979V37.4942Z" fill="#16AE44"/>
<path d="M27.0672 37.5379C27.0672 37.6639 27.0672 37.79 27.0672 37.916C27.0663 38.0024 27.0486 38.0876 27.0152 38.1669C26.9817 38.2462 26.9333 38.318 26.8725 38.3779C26.8118 38.4379 26.74 38.485 26.6613 38.5164C26.5826 38.5478 26.4986 38.5629 26.4142 38.5608C26.3289 38.5729 26.242 38.5669 26.1591 38.5431C26.0762 38.5193 25.999 38.4783 25.9323 38.4225C25.8656 38.3668 25.811 38.2975 25.7717 38.2192C25.7324 38.1408 25.7093 38.055 25.7039 37.9671C25.6852 37.6931 25.6986 37.4191 25.6914 37.1451C25.6914 36.9962 25.7808 37.0054 25.8817 37.0008C25.9826 36.9962 26.0282 37.041 26.0255 37.1515C26.0202 37.3808 26.0255 37.6081 26.0255 37.8392C26.0309 38.1013 26.1649 38.2447 26.3829 38.2393C26.6009 38.2338 26.7179 38.0886 26.7206 37.8347C26.7206 37.6173 26.726 37.399 26.7206 37.1816C26.7206 37.0383 26.7777 36.999 26.9135 36.999C27.0493 36.999 27.0708 37.0647 27.0654 37.1816C27.0601 37.2986 27.0654 37.4228 27.0654 37.547L27.0672 37.5379Z" fill="#16AE44"/>
<path d="M32.9043 37.7634C32.9043 37.5625 32.9043 37.3625 32.9043 37.1625C32.9043 37.0492 32.9347 36.9954 33.0571 36.9981C33.3313 37.0055 33.6055 37.0036 33.8797 36.9981C33.9691 36.9981 34.0138 37.0282 34.0093 37.1259C34.0048 37.2236 34.0093 37.3004 33.8825 37.2967C33.7145 37.2967 33.5466 37.2967 33.3787 37.2967C33.2697 37.2967 33.2294 37.3424 33.2321 37.4511C33.2348 37.5598 33.2563 37.6274 33.3831 37.62C33.51 37.6127 33.6413 37.62 33.7699 37.62C33.8718 37.6146 33.9065 37.6547 33.9074 37.7589C33.9083 37.863 33.8762 37.916 33.7636 37.9105C33.6296 37.9032 33.4957 37.9105 33.3608 37.9105C33.2259 37.9105 33.2348 37.9927 33.233 38.0841C33.2312 38.1754 33.2535 38.2393 33.3625 38.2375C33.5358 38.2375 33.71 38.2375 33.8833 38.2375C33.9798 38.2375 34.0111 38.2759 34.0093 38.3699C34.0075 38.464 33.9978 38.527 33.8852 38.5261C33.5993 38.5225 33.3137 38.5225 33.0284 38.5261C32.9274 38.5261 32.9052 38.4713 32.9052 38.3854C32.9052 38.1754 32.9043 37.9689 32.9043 37.7634Z" fill="#16AE44"/>
<path d="M36.2623 38.5091C36.0604 38.5374 35.9051 38.5539 35.8354 38.3356C35.8247 38.3009 35.746 38.2735 35.696 38.269C35.5852 38.2589 35.4727 38.269 35.361 38.269C35.2154 38.2635 35.1028 38.2753 35.026 38.4516C34.9948 38.5228 34.8124 38.5237 34.699 38.5566L34.6704 38.5028C34.6919 38.4406 34.7097 38.3768 34.7356 38.3201C34.9027 37.9338 35.0742 37.5484 35.2368 37.1593C35.2505 37.1103 35.281 37.0679 35.3226 37.0399C35.3643 37.0119 35.4143 37.0001 35.4637 37.0067C35.5754 37.0112 35.6424 37.0305 35.6951 37.1501C35.8649 37.5666 36.0525 37.9775 36.2258 38.3904C36.2403 38.4292 36.2524 38.4688 36.2623 38.5091ZM35.7103 37.9685L35.4887 37.4652L35.4369 37.4707L35.2315 37.9685H35.7103Z" fill="#16AE44"/>
<path d="M46.9126 37.5381C46.9063 37.4581 46.9063 37.3779 46.9126 37.2979C46.9322 37.1819 46.8188 36.992 47.0779 36.9974C47.337 37.0029 47.2208 37.1929 47.2315 37.3071C47.2494 37.4897 47.2316 37.6724 47.2396 37.855C47.2345 37.9331 47.2546 38.0107 47.2969 38.0759C47.3392 38.1411 47.4013 38.1903 47.4736 38.2158C47.5185 38.2358 47.5672 38.245 47.6162 38.2428C47.6651 38.2406 47.7129 38.2272 47.756 38.2033C47.799 38.1795 47.8362 38.146 47.8647 38.1052C47.8932 38.0645 47.9122 38.0177 47.9203 37.9683C47.9435 37.7124 47.9534 37.4554 47.9497 37.1984C47.9551 37.0002 47.973 36.9746 48.1624 37.0047C48.1897 37.0135 48.2143 37.0291 48.2341 37.0502C48.254 37.0712 48.2683 37.097 48.2758 37.1252C48.2829 37.4111 48.2892 37.6989 48.2696 37.9838C48.2397 38.1484 48.1535 38.2967 48.0263 38.4021C47.8991 38.5076 47.7394 38.5632 47.5757 38.5591C47.412 38.555 47.2551 38.4916 47.1331 38.3799C47.0111 38.2683 46.932 38.1159 46.91 37.95C46.9019 37.813 46.91 37.676 46.91 37.5372L46.9126 37.5381Z" fill="#16AE44"/>
<path d="M51.9802 37.754C51.9802 37.5595 51.9802 37.3649 51.9802 37.1704C51.9802 37.0498 52.0141 36.9877 52.1437 36.9968C52.317 37.005 52.4912 36.9904 52.6636 36.9968C52.7973 36.999 52.9252 37.0528 53.0219 37.1472C53.1187 37.2416 53.1771 37.3698 53.1854 37.5063C53.1937 37.6428 53.1514 37.7774 53.067 37.8834C52.9825 37.9894 52.8621 38.059 52.7297 38.0783C52.6592 38.0974 52.5863 38.1054 52.5134 38.102C52.3446 38.0828 52.291 38.1586 52.3133 38.3184C52.3312 38.4545 52.2973 38.534 52.1347 38.5267C52.0079 38.5212 51.9685 38.4773 51.973 38.3522C51.9801 38.1522 51.973 37.9522 51.973 37.7512L51.9802 37.754ZM52.5215 37.2837C52.3169 37.2837 52.3107 37.2891 52.3098 37.5055C52.3098 37.8069 52.3098 37.8133 52.4885 37.8151C52.7216 37.8151 52.8565 37.7166 52.8538 37.5412C52.8493 37.3805 52.7297 37.2891 52.5215 37.2837Z" fill="#16AE44"/>
<path d="M21.3604 37.0202C21.7007 36.9699 21.6998 36.97 21.8481 37.2221C21.9276 37.3582 22.0089 37.4961 22.1071 37.6596C22.1634 37.5801 22.2054 37.5252 22.242 37.4677C22.2903 37.3976 22.3324 37.3234 22.368 37.2458C22.3836 37.1952 22.4097 37.1486 22.4444 37.1092C22.4791 37.0698 22.5217 37.0385 22.5693 37.0173C22.6168 36.9961 22.6683 36.9856 22.7202 36.9864C22.7721 36.9872 22.8231 36.9994 22.87 37.022C22.7593 37.2193 22.6548 37.4175 22.5386 37.6093C22.3581 37.8301 22.2665 38.1128 22.2823 38.4002C22.3019 38.529 22.1974 38.5262 22.1116 38.5235C22.0258 38.5208 21.924 38.55 21.9454 38.423C21.9565 38.0839 21.8443 37.7526 21.6301 37.4933C21.5453 37.3408 21.4577 37.19 21.3604 37.0202Z" fill="#16AE44"/>
<path d="M64.8552 37.676C64.9514 37.5363 65.0377 37.3898 65.1134 37.2376C65.2072 37.0074 65.3644 36.9554 65.6056 37.0212C65.5708 37.0906 65.5404 37.159 65.5029 37.2248C65.3993 37.4074 65.2983 37.5902 65.1858 37.7729C65.0599 37.9427 64.9994 38.154 65.016 38.3664C65.033 38.5025 64.9526 38.5235 64.8374 38.5272C64.7221 38.5309 64.6676 38.4852 64.6855 38.3683C64.7058 38.1271 64.6356 37.8871 64.489 37.697C64.3541 37.4806 64.2326 37.2568 64.103 37.0321C64.3978 36.9572 64.4416 36.9754 64.5827 37.2202C64.6667 37.3581 64.7498 37.4979 64.8552 37.676Z" fill="#16AE44"/>
<path d="M39.1465 37.0014C39.3252 37.0014 39.5039 37.0069 39.6826 37.0014C39.8032 36.9959 39.8219 37.059 39.8201 37.1595C39.8183 37.26 39.8201 37.3376 39.6897 37.323H39.6737C39.2931 37.3357 39.2939 37.3357 39.2948 37.7193C39.2948 37.9422 39.2948 38.166 39.2948 38.3879C39.2948 38.5094 39.2359 38.5285 39.1367 38.5276C39.0375 38.5267 38.9581 38.5221 38.9625 38.3851C38.9679 38.0938 38.9625 37.8024 38.9625 37.511C38.9625 37.374 38.9294 37.3038 38.7838 37.3221C38.7347 37.3285 38.6838 37.3221 38.6338 37.3221C38.5176 37.3312 38.4444 37.3138 38.4453 37.1613C38.4462 37.0088 38.523 36.9969 38.6374 37.0005C38.8116 37.0051 38.9786 37.0014 39.1465 37.0014Z" fill="#16AE44"/>
<path d="M62.8325 37.0003C63.0112 37.0003 63.1898 37.0003 63.3685 37.0003C63.4793 37.0003 63.5016 37.0559 63.4989 37.1491C63.4962 37.2423 63.507 37.3319 63.3757 37.3209H63.3418C62.9934 37.331 62.9924 37.331 62.9924 37.6972C62.9924 37.921 62.9861 38.1438 62.9924 38.3676C62.9968 38.5019 62.937 38.5293 62.82 38.5293C62.7029 38.5293 62.6583 38.4964 62.661 38.3722C62.6672 38.0744 62.661 37.7766 62.661 37.4789C62.661 37.3611 62.6235 37.309 62.5056 37.3209C62.4502 37.3264 62.3921 37.3136 62.3376 37.3209C62.1715 37.3483 62.1205 37.2624 62.1536 37.1172C62.1628 37.0899 62.1785 37.0654 62.1993 37.0458C62.22 37.0262 62.2451 37.0121 62.2724 37.0048C62.4627 36.993 62.6476 37.0003 62.8325 37.0003Z" fill="#16AE44"/>
<path d="M36.9751 37.7524C36.9751 37.557 36.9805 37.3624 36.9751 37.1679C36.9751 37.0428 37.0135 36.9962 37.1394 36.9971C37.2654 36.998 37.3109 37.0282 37.3074 37.1615C37.2993 37.4593 37.3074 37.7579 37.3074 38.0557C37.3074 38.1909 37.3547 38.2383 37.486 38.2383C37.6316 38.231 37.7772 38.2383 37.9228 38.2383C38.0292 38.2383 38.0578 38.2885 38.0587 38.3863C38.0596 38.484 38.0221 38.5306 37.9194 38.5288C37.6514 38.5288 37.3833 38.5288 37.1153 38.5288C37.026 38.5288 36.9849 38.4904 36.9858 38.3945C36.9858 38.1826 36.9858 37.9708 36.9858 37.7552L36.9751 37.7524Z" fill="#16AE44"/>
<path d="M61.5044 37.7566C61.5044 37.9685 61.499 38.1795 61.5044 38.3914C61.5044 38.5193 61.4347 38.5238 61.3426 38.5247C61.2506 38.5257 61.1729 38.5247 61.1738 38.3978C61.1738 37.9749 61.1738 37.552 61.1738 37.1291C61.1738 36.9848 61.2631 37.0031 61.3525 36.9985C61.4418 36.994 61.5088 37.0195 61.5044 37.1391C61.499 37.3446 61.5044 37.5511 61.5044 37.7566Z" fill="#16AE44"/>
<path d="M56.1529 37.7625C56.1529 37.968 56.1476 38.1745 56.1529 38.38C56.1529 38.517 56.0814 38.5224 55.9814 38.5224C55.8813 38.5224 55.8214 38.5096 55.8223 38.3854C55.8276 37.9732 55.8276 37.5614 55.8223 37.1498C55.8223 37.0219 55.8769 36.9963 55.9858 36.9981C56.0948 37 56.1583 37.0108 56.1529 37.1442C56.1458 37.3497 56.1529 37.5561 56.1529 37.7625Z" fill="#16AE44"/>
<path d="M42.6094 38.7926C42.6555 38.7378 42.6802 38.6675 42.6787 38.5952C42.6772 38.5229 42.6497 38.4535 42.6013 38.4007C42.5789 38.3743 42.6522 38.1989 42.7093 38.1816C42.7547 38.1723 42.8015 38.1742 42.846 38.1872C42.8904 38.2003 42.9312 38.224 42.9649 38.2565C43.0631 38.3734 42.8756 38.7807 42.7255 38.809C42.6862 38.8088 42.6472 38.8033 42.6094 38.7926Z" fill="#16AE44"/>
</g>
<defs>
<clipPath id="clip0_274_24552">
<rect width="84" height="44" fill="white" transform="translate(0 0.666992)"/>
</clipPath>
</defs>
</svg>
