<svg width="95" height="49" viewBox="0 0 95 49" fill="none" xmlns="http://www.w3.org/2000/svg">
<g clip-path="url(#clip0_117_313)">
<path d="M37.746 23.6399C37.169 23.3139 36.6079 22.9679 36.0229 22.6719C34.139 21.7052 32.0677 21.1593 29.952 21.0719C28.0759 20.9734 26.2004 21.2783 24.452 21.9659C22.5895 22.7301 20.9481 23.9488 19.678 25.5109C18.1826 27.2626 17.1511 29.3618 16.678 31.6158C16.179 33.72 16.2643 35.9205 16.9247 37.9796C17.585 40.0388 18.7953 41.8784 20.4249 43.2999C22.2563 44.9727 24.4732 46.1662 26.8779 46.7739C29.5153 47.5029 32.2809 47.6419 34.978 47.1809C35.9753 47.0144 36.9551 46.7563 37.905 46.4099C37.9589 46.3861 38.0193 46.3818 38.0759 46.3979C37.6539 46.5619 37.2349 46.7329 36.8099 46.8889C34.862 47.6228 32.812 48.0496 30.733 48.1539C28.5505 48.2746 26.3675 47.9232 24.333 47.1239C23.3722 46.7475 22.336 46.6033 21.309 46.7029C19.656 46.8299 18 46.9099 16.348 47.0419C15.066 47.1419 13.788 47.3039 12.507 47.4219C11.7066 47.5168 10.8957 47.4629 10.115 47.2629C9.33905 47.0622 8.67295 46.5649 8.26001 45.8779C8.04339 45.5859 7.87929 45.2583 7.77502 44.9099C7.70408 44.5455 7.73875 44.1683 7.875 43.8229C7.998 43.4809 8.15592 43.1518 8.28992 42.8138C8.41446 42.5299 8.45392 42.2159 8.40332 41.91C8.35272 41.6041 8.21434 41.3196 8.005 41.0909C7.77669 40.8158 7.56685 40.5258 7.37695 40.2229C7.32034 40.1518 7.28013 40.069 7.25903 39.9806C7.23794 39.8922 7.23647 39.8002 7.25488 39.7112C7.2733 39.6222 7.31116 39.5383 7.3656 39.4655C7.42005 39.3926 7.48976 39.3327 7.56995 39.2899C7.75595 39.1559 7.96493 39.0519 8.17993 38.9259C8.00493 38.7799 7.83493 38.6459 7.67993 38.5009C7.51353 38.3574 7.35657 38.2035 7.20996 38.0399C7.10593 37.9398 7.04331 37.8044 7.03442 37.6603C7.02553 37.5162 7.07104 37.3739 7.16199 37.2618C7.34978 37.0113 7.55001 36.7704 7.76196 36.5399C7.91954 36.3891 8.04229 36.2056 8.1217 36.0024C8.20112 35.7993 8.23532 35.5811 8.2218 35.3634C8.20828 35.1457 8.14739 34.9335 8.04346 34.7417C7.93952 34.5499 7.79503 34.3831 7.62 34.2529C7.157 33.8679 6.68197 33.4969 6.21997 33.1079C6.0785 32.984 5.95381 32.8421 5.849 32.6859C5.75202 32.5597 5.69946 32.405 5.69946 32.2458C5.69946 32.0867 5.75202 31.9321 5.849 31.8059C5.97805 31.6208 6.13292 31.455 6.30896 31.3138C7.13896 30.6628 7.98396 30.032 8.80896 29.382C9.46247 28.9005 10.0336 28.3162 10.5 27.6519C10.7321 27.3147 10.8914 26.933 10.968 26.5309C10.9981 26.4106 10.9954 26.2845 10.9602 26.1656C10.925 26.0468 10.8586 25.9394 10.7679 25.8549C10.2819 25.4219 9.77691 25.0089 9.28491 24.5819C8.86991 24.2209 8.45898 23.8529 8.05298 23.4819C7.97352 23.3986 7.91189 23.2999 7.87195 23.1919C8.42667 23.792 9.07475 24.2985 9.79102 24.6919L8.771 23.1859L8.82996 23.1379C9.41413 23.9488 10.156 24.6334 11.011 25.1509C11.03 24.9389 11.0519 24.7569 11.0609 24.5739C11.1096 23.4513 11.2417 22.334 11.4559 21.231C11.6984 20.0235 12.1229 18.8598 12.715 17.7799C13.2073 16.9276 13.4848 15.9684 13.5234 14.9849C13.5621 14.0014 13.3609 13.0232 12.937 12.1349C12.1366 10.2596 11.0029 8.54487 9.59094 7.07385C9.14394 6.61785 8.64302 6.21494 8.16602 5.78894C8.11454 5.74948 8.0684 5.70333 8.02893 5.65186C10.3951 7.19037 12.3184 9.32044 13.608 11.8309C14.8977 14.3354 15.5907 17.1042 15.6329 19.9209C17.2587 15.7647 20.2802 12.3038 24.179 10.132C26.144 9.04264 28.3002 8.3412 30.53 8.06592C28.3125 8.52145 26.2104 9.42231 24.3511 10.7139C22.4918 12.0054 20.9139 13.6609 19.713 15.58C21.8387 13.8745 24.3482 12.7132 27.024 12.1969C29.6999 11.6806 32.4614 11.8248 35.069 12.6169L35.078 12.674C34.757 12.626 34.437 12.5679 34.114 12.5309C32.7626 12.4007 31.4 12.4421 30.059 12.6539C28.778 12.8313 27.5117 13.1016 26.27 13.4629C26.2147 13.4777 26.1623 13.5017 26.115 13.5339C27.6774 13.6858 29.1759 14.2307 30.4709 15.1179C30.6339 15.2379 30.786 15.3729 30.906 15.4719C30.44 15.2779 29.95 15.0399 29.437 14.8719C28.3793 14.5043 27.2705 14.3042 26.151 14.2789C24.6448 14.2625 23.1707 14.7139 21.932 15.5709C19.1 17.458 16.9153 20.1687 15.673 23.3369C14.8076 25.4914 14.3548 27.7892 14.338 30.1108C14.3264 31.3423 14.4517 32.5712 14.7119 33.7749C14.7243 33.8294 14.7443 33.8819 14.771 33.9309C14.7285 33.0842 14.8251 32.2363 15.057 31.4209C15.5719 29.1813 16.5446 27.0724 17.9139 25.2269C18.9433 23.9213 20.2183 22.8297 21.667 22.0139C23.3115 21.0332 25.1368 20.3942 27.0339 20.1349C30.0572 19.6645 33.1485 20.3069 35.734 21.9429C36.4732 22.422 37.1491 22.9921 37.746 23.6399Z" fill="#0E133A"/>
<path d="M48.429 34.322C48.255 34.7566 48.0813 35.192 47.908 35.628C47.581 36.45 47.252 37.2709 46.931 38.0949C46.885 38.2129 46.831 38.266 46.698 38.255C46.5476 38.2425 46.3964 38.2425 46.246 38.255C46.1852 38.2668 46.1221 38.2543 46.0704 38.22C46.0188 38.1858 45.9827 38.1326 45.97 38.072C45.653 37.253 45.326 36.438 45.001 35.622C44.828 35.186 44.654 34.752 44.439 34.322L44.0969 38.239H43.334C43.356 37.997 43.375 37.762 43.4 37.528C43.5334 36.318 43.6637 35.108 43.791 33.898C43.797 33.848 43.791 33.798 43.802 33.747C43.8386 33.5827 43.8119 33.4105 43.7272 33.265C43.6425 33.1195 43.5059 33.0113 43.345 32.962C43.454 32.954 43.505 32.947 43.556 32.947C44.021 32.947 44.486 32.954 44.95 32.941C45.0102 32.9321 45.0716 32.9468 45.1213 32.982C45.1711 33.0172 45.2052 33.0702 45.2169 33.13C45.6836 34.336 46.153 35.5403 46.625 36.743C46.646 36.798 46.673 36.8519 46.714 36.9429C46.894 36.4899 47.0589 36.078 47.2219 35.666C47.4339 35.1293 47.645 34.592 47.855 34.054C47.8888 33.9729 47.9152 33.8888 47.934 33.8029C47.9957 33.6457 47.9956 33.471 47.9336 33.3138C47.8716 33.1566 47.7524 33.0288 47.6 32.956C47.7 32.95 47.754 32.9449 47.807 32.9439C48.297 32.9439 48.787 32.9439 49.276 32.9439C49.376 32.9439 49.4389 32.954 49.4509 33.077C49.6156 34.757 49.7823 36.4366 49.9509 38.1159C49.9509 38.1529 49.9509 38.1899 49.9509 38.2509C49.5759 38.2509 49.207 38.251 48.839 38.244C48.804 38.244 48.745 38.1439 48.739 38.0849C48.669 37.1769 48.6059 36.27 48.5389 35.362C48.5139 35.018 48.4869 34.674 48.4609 34.33L48.429 34.322Z" fill="#0E133A"/>
<path d="M77.161 35.4739C77.102 35.8877 77.0219 36.2982 76.921 36.7039C76.7915 37.1949 76.4983 37.6271 76.0899 37.9287C75.6815 38.2304 75.1822 38.3836 74.6749 38.3629C74.1648 38.3825 73.663 38.2296 73.2504 37.929C72.8379 37.6284 72.5386 37.1975 72.4009 36.706C72.206 36.1059 72.1619 35.4671 72.2729 34.846C72.3763 34.2618 72.6895 33.7353 73.1535 33.3656C73.6176 32.996 74.2006 32.8085 74.7932 32.8383C75.3857 32.8681 75.947 33.1132 76.3715 33.5276C76.7961 33.942 77.0548 34.4972 77.0989 35.0889C77.1099 35.2139 77.1109 35.3399 77.1169 35.4649L77.161 35.4739ZM75.8289 35.4739C75.8552 34.9893 75.7639 34.5056 75.5629 34.0639C75.4905 33.8918 75.37 33.7443 75.2159 33.6389C75.0618 33.5336 74.8805 33.4749 74.6939 33.4699C74.4588 33.466 74.2297 33.5436 74.0452 33.6894C73.8608 33.8352 73.7324 34.0403 73.6819 34.2699C73.4023 35.1579 73.4326 36.1145 73.7679 36.9829C73.8157 37.1874 73.93 37.3702 74.0928 37.5027C74.2557 37.6352 74.458 37.7098 74.6679 37.7149C75.1569 37.7149 75.3989 37.3819 75.5679 36.9799C75.754 36.5019 75.8427 35.9916 75.8289 35.4789V35.4739Z" fill="#0E133A"/>
<path d="M79.2419 36.139V38.2509C78.8679 38.2509 78.518 38.2509 78.168 38.2459C78.133 38.2459 78.075 38.1729 78.068 38.1299C78.0593 38.0111 78.0576 37.892 78.063 37.773C78.063 36.649 78.063 35.5252 78.063 34.4019C78.063 34.2699 78.063 34.138 78.051 34.007C78.062 33.7856 78.0033 33.5664 77.8833 33.38C77.7633 33.1937 77.588 33.0496 77.382 32.9679C77.488 32.9559 77.533 32.946 77.582 32.946C78.282 32.946 78.977 32.923 79.673 32.955C80.0805 32.9687 80.4842 33.0379 80.8729 33.1609C81.1445 33.2421 81.3802 33.4139 81.5405 33.6477C81.7008 33.8816 81.7762 34.1633 81.754 34.446C81.7577 34.7152 81.675 34.9785 81.5183 35.1974C81.3616 35.4164 81.139 35.5795 80.8829 35.6629L80.762 35.7129C80.762 35.7269 80.762 35.746 80.762 35.748C80.9716 35.8499 81.1571 35.9952 81.3063 36.1744C81.4554 36.3535 81.5647 36.5623 81.627 36.7869C81.795 37.2639 81.9599 37.7419 82.1379 38.2489C81.7279 38.2489 81.348 38.254 80.968 38.243C80.927 38.243 80.868 38.157 80.853 38.101C80.732 37.731 80.62 37.359 80.504 36.988C80.48 36.91 80.4539 36.8319 80.4249 36.7559C80.3932 36.6343 80.3364 36.5207 80.2581 36.4224C80.1797 36.3241 80.0818 36.2432 79.9703 36.1851C79.8589 36.127 79.7365 36.0928 79.6111 36.0849C79.4856 36.0769 79.3598 36.0954 79.2419 36.139ZM79.2419 34.528C79.2419 34.784 79.2359 35.0409 79.2419 35.2969C79.2419 35.3549 79.2949 35.452 79.3419 35.461C79.4683 35.5057 79.603 35.5218 79.7363 35.5082C79.8697 35.4947 79.9983 35.4517 80.113 35.3825C80.2278 35.3133 80.3257 35.2195 80.3999 35.1078C80.4741 34.9962 80.5226 34.8696 80.542 34.737C80.5648 34.5709 80.5628 34.4024 80.536 34.237C80.5214 34.0755 80.4511 33.9241 80.3373 33.8086C80.2235 33.6932 80.0732 33.6209 79.912 33.6039C79.7385 33.5867 79.564 33.5831 79.39 33.5929C79.283 33.5929 79.238 33.6469 79.241 33.7599C79.249 34.0139 79.244 34.271 79.244 34.528H79.2419Z" fill="#0E133A"/>
<path d="M70.215 35.7531H68.4149V38.238H67.246C67.246 38.165 67.2369 38.093 67.2369 38.021C67.2369 36.835 67.2369 35.649 67.2369 34.463C67.2369 34.337 67.237 34.2111 67.228 34.0861C67.2466 33.8582 67.1979 33.6299 67.088 33.4294C66.9782 33.229 66.812 33.065 66.61 32.958H68.4039V35.1121H70.204V32.957H71.371V38.241H70.2159L70.215 35.7531Z" fill="#0E133A"/>
<path d="M32.6069 32.958V38.241H31.45V35.755H29.645V38.238H28.4709V38.004C28.4709 36.73 28.471 35.456 28.463 34.182C28.4597 34.0378 28.4452 33.8941 28.4199 33.7521C28.3978 33.5822 28.3336 33.4204 28.233 33.2817C28.1324 33.143 27.9987 33.0317 27.844 32.958H29.637V35.111H31.437V32.958H32.6069Z" fill="#0E133A"/>
<path d="M41.4979 35.7299C41.743 35.8443 41.9585 36.0137 42.1274 36.225C42.2964 36.4362 42.4142 36.6836 42.4719 36.9479C42.5909 37.3049 42.7219 37.6589 42.8459 38.0139C42.8699 38.0819 42.888 38.1529 42.917 38.2509C42.517 38.2509 42.139 38.2509 41.765 38.2439C41.723 38.2439 41.665 38.1639 41.646 38.1089C41.519 37.7219 41.4019 37.3309 41.2789 36.9429C41.2463 36.8408 41.2079 36.7407 41.1639 36.643C41.1073 36.4707 40.9929 36.3232 40.84 36.2257C40.6871 36.1282 40.5051 36.0866 40.325 36.1079C40.238 36.1149 40.15 36.1079 40.041 36.1079V38.2329H38.8629V38.007C38.8629 36.821 38.8629 35.6346 38.8629 34.4479C38.8629 34.2849 38.851 34.1219 38.839 33.9599C38.8449 33.745 38.7843 33.5338 38.6654 33.3548C38.5465 33.1757 38.3752 33.0377 38.1749 32.9599C38.2209 32.9514 38.2673 32.9455 38.314 32.9419C39.074 32.9419 39.835 32.9209 40.593 32.9539C40.9683 32.9715 41.3389 33.0443 41.693 33.1699C41.959 33.2577 42.1873 33.4329 42.3408 33.6673C42.4943 33.9016 42.5638 34.181 42.538 34.4599C42.5379 34.7227 42.4556 34.979 42.3026 35.1928C42.1497 35.4065 41.9337 35.567 41.6849 35.6519L41.4979 35.7299ZM40.031 34.5299C40.031 34.7869 40.031 35.0439 40.031 35.3009C40.0322 35.3315 40.0404 35.3613 40.0549 35.3882C40.0695 35.4151 40.0901 35.4382 40.115 35.4559C40.2378 35.5011 40.3689 35.5191 40.4994 35.509C40.6299 35.499 40.7567 35.461 40.8711 35.3975C40.9855 35.334 41.085 35.2466 41.1626 35.1413C41.2402 35.0359 41.2942 34.915 41.3209 34.7869C41.3531 34.5769 41.3477 34.363 41.3049 34.1549C41.2816 34.0135 41.2129 33.8835 41.1091 33.7847C41.0054 33.6858 40.8723 33.6235 40.73 33.6069C40.5441 33.5861 40.3567 33.5807 40.1699 33.591C40.0589 33.591 40.022 33.648 40.025 33.758C40.036 34.017 40.031 34.2749 40.031 34.5319V34.5299Z" fill="#0E133A"/>
<path d="M56.7589 32.9561H58.542V33.187C58.542 34.197 58.535 35.207 58.542 36.217C58.5454 36.4737 58.5806 36.729 58.647 36.9771C58.6901 37.1855 58.8025 37.3731 58.9659 37.5095C59.1294 37.6459 59.3342 37.7229 59.547 37.728C59.7657 37.7455 59.9838 37.6874 60.1649 37.5635C60.346 37.4395 60.4791 37.2572 60.542 37.047C60.6334 36.7416 60.6809 36.4249 60.683 36.1061C60.701 35.1341 60.6899 34.161 60.6899 33.189V32.9561H61.541C61.5504 32.9774 61.5567 33 61.5599 33.0231C61.5599 34.1401 61.571 35.257 61.546 36.373C61.5605 36.7273 61.476 37.0786 61.3022 37.3877C61.1285 37.6968 60.8722 37.9513 60.562 38.123C60.1051 38.3516 59.586 38.425 59.0836 38.332C58.5812 38.2391 58.1229 37.985 57.778 37.608C57.4956 37.2182 57.3517 36.7451 57.369 36.264C57.361 35.58 57.369 34.897 57.359 34.213C57.3521 34.0313 57.3306 33.8503 57.2949 33.672C57.2649 33.5201 57.2013 33.377 57.1085 33.2531C57.0157 33.1291 56.8962 33.0276 56.7589 32.9561Z" fill="#0E133A"/>
<path d="M38.171 38.252C37.838 38.252 37.5269 38.252 37.2159 38.252C36.7949 38.245 36.901 38.3249 36.749 37.9259C36.624 37.5969 36.498 37.2689 36.382 36.9369C36.3734 36.8886 36.3464 36.8455 36.3066 36.8168C36.2669 36.788 36.2175 36.776 36.1689 36.783C35.7039 36.791 35.239 36.79 34.775 36.783C34.7264 36.7754 34.6767 36.7871 34.6367 36.8157C34.5967 36.8443 34.5695 36.8875 34.5609 36.9359C34.4349 37.3239 34.293 37.7068 34.168 38.0948C34.1585 38.1463 34.1291 38.1921 34.0863 38.2222C34.0435 38.2523 33.9906 38.2643 33.939 38.2559C33.739 38.2449 33.529 38.2559 33.292 38.2559C33.458 37.8019 33.611 37.3799 33.765 36.9559C34.1017 36.0299 34.4393 35.1046 34.778 34.1799C34.801 34.1149 34.8219 34.0489 34.8409 33.9799C34.8883 33.8896 34.9163 33.7904 34.9231 33.6887C34.9299 33.587 34.9154 33.4851 34.8806 33.3893C34.8458 33.2935 34.7914 33.2059 34.7208 33.1323C34.6503 33.0587 34.5652 33.0007 34.4709 32.9619C34.516 32.9539 34.5613 32.9483 34.6069 32.9449C35.0589 32.9449 35.507 32.9449 35.963 32.9449C36.0058 32.9368 36.0501 32.9451 36.0872 32.968C36.1242 32.991 36.1512 33.0269 36.163 33.0688C36.813 34.7408 37.4656 36.4122 38.121 38.0829C38.134 38.1269 38.144 38.174 38.171 38.252ZM36.089 36.1519L35.468 34.3519H35.421L34.828 36.1519H36.089Z" fill="#0E133A"/>
<path d="M25.083 36.325V38.2349H23.913V34.435C23.913 34.303 23.913 34.171 23.901 34.04C23.9135 33.8186 23.8611 33.5985 23.7502 33.4064C23.6394 33.2144 23.4749 33.0588 23.277 32.9589C23.3033 32.9523 23.33 32.9477 23.3569 32.945C24.1349 32.945 24.9129 32.939 25.6899 32.952C25.9408 32.9582 26.1903 32.9917 26.434 33.0519C26.6531 33.0863 26.8615 33.1704 27.0431 33.2978C27.2247 33.4252 27.3746 33.5925 27.4816 33.7868C27.5885 33.9811 27.6496 34.1973 27.66 34.4189C27.6705 34.6404 27.6302 34.8615 27.542 35.065C27.4244 35.3993 27.2102 35.691 26.9266 35.9034C26.643 36.1158 26.3028 36.2392 25.949 36.258C25.671 36.303 25.389 36.304 25.083 36.325ZM25.0959 33.6419C25.0908 33.6596 25.0872 33.6777 25.085 33.696C25.085 34.2293 25.085 34.7626 25.085 35.296C25.085 35.656 25.125 35.696 25.485 35.684H25.522C25.661 35.6773 25.797 35.6413 25.9213 35.5786C26.0455 35.5158 26.1553 35.4276 26.2433 35.3198C26.3313 35.2119 26.3955 35.0867 26.432 34.9523C26.4685 34.818 26.4763 34.6775 26.455 34.54C26.444 33.622 25.7049 33.4559 25.0959 33.6419Z" fill="#0E133A"/>
<path d="M53.193 32.9551C53.264 32.9551 53.317 32.9461 53.37 32.9461C53.797 32.9461 54.224 32.9461 54.651 32.9461C54.705 32.9378 54.7601 32.9503 54.8053 32.9809C54.8505 33.0115 54.8826 33.0578 54.895 33.111C55.3984 34.4097 55.9053 35.7068 56.416 37.0021C56.5493 37.3401 56.6826 37.6788 56.8159 38.0181C56.8429 38.0861 56.865 38.156 56.9 38.255C56.467 38.255 56.062 38.2551 55.657 38.2481C55.615 38.2481 55.557 38.1621 55.538 38.1061C55.391 37.7261 55.2469 37.344 55.1129 36.96C55.1036 36.9055 55.0735 36.8569 55.0289 36.8243C54.9843 36.7916 54.9288 36.7775 54.874 36.7851C54.416 36.7951 53.958 36.7931 53.499 36.7851C53.4508 36.7766 53.4011 36.7877 53.361 36.8158C53.3208 36.844 53.2935 36.8869 53.2849 36.9351C53.1579 37.3291 53.014 37.717 52.885 38.11C52.8781 38.1562 52.8531 38.1977 52.8156 38.2255C52.778 38.2533 52.7311 38.265 52.6849 38.2581C52.4729 38.2491 52.261 38.2581 52.017 38.2581C52.106 38.0101 52.184 37.789 52.265 37.568C52.673 36.448 53.0813 35.3284 53.49 34.209C53.509 34.156 53.529 34.1031 53.546 34.0501C53.6006 33.9563 53.6348 33.8521 53.6465 33.7442C53.6582 33.6363 53.6471 33.5272 53.6138 33.4239C53.5805 33.3206 53.5257 33.2255 53.4532 33.1447C53.3808 33.0639 53.2921 32.9993 53.193 32.9551ZM53.549 36.1441H54.807L54.1849 34.35H54.1389L53.549 36.1441Z" fill="#0E133A"/>
<path d="M24.799 23.7481C24.808 23.5731 24.819 23.3971 24.824 23.2221C24.824 23.1081 24.8729 23.0521 24.9929 23.0461C25.6423 22.989 26.2931 23.1381 26.8529 23.4722C27.4127 23.8063 27.8529 24.3084 28.111 24.907C28.4057 25.6434 28.542 26.4336 28.511 27.2261C28.511 27.3841 28.447 27.4191 28.302 27.3941C27.4514 27.2792 26.6471 26.9384 25.973 26.407C25.6139 26.1145 25.3232 25.7468 25.1217 25.3296C24.9202 24.9125 24.8129 24.4563 24.807 23.9931C24.807 23.9121 24.807 23.8301 24.807 23.7481H24.799Z" fill="#16AE44"/>
<path d="M43.1599 24.2969C43.6282 24.3107 44.0874 24.4302 44.503 24.6465C44.9186 24.8628 45.2799 25.1703 45.5599 25.5459C45.9788 26.096 46.2987 26.7149 46.505 27.3749C46.536 27.4659 46.5659 27.5409 46.4249 27.5649C45.8539 27.7068 45.2597 27.7279 44.6802 27.627C44.1006 27.5261 43.5484 27.3053 43.0589 26.9789C42.44 26.5151 42.0035 25.8487 41.8259 25.0959C41.6939 24.6169 41.586 24.6289 42.182 24.4719C42.502 24.3819 42.8339 24.3489 43.1599 24.2969Z" fill="#16AE44"/>
<path d="M42.73 21.6259C40.815 22.9339 38.4999 22.8809 37.1909 20.6729C37.5423 20.3071 37.9742 20.0281 38.452 19.858C38.8464 19.709 39.2683 19.6472 39.6888 19.6769C40.1094 19.7066 40.5184 19.8271 40.8879 20.03C41.6069 20.4271 42.2345 20.9708 42.73 21.6259Z" fill="#16AE44"/>
<path d="M36.225 25.3808C36.283 25.0228 36.3389 24.6649 36.3979 24.3069C36.4179 24.1869 36.487 24.1418 36.611 24.1568C37.343 24.2047 38.0342 24.5107 38.5619 25.0202C39.0896 25.5298 39.4195 26.21 39.4929 26.9399C39.5704 27.5509 39.5604 28.1698 39.463 28.7779C39.447 28.8779 39.408 28.9319 39.304 28.8999C38.2244 28.6366 37.2857 27.9718 36.679 27.0409C36.3818 26.5382 36.225 25.9648 36.225 25.3808Z" fill="#16AE44"/>
<path d="M3.43994 7.06504C3.68394 6.95904 3.90093 6.84999 4.12793 6.76499C4.82546 6.48575 5.58393 6.39374 6.328 6.49802C6.78749 6.57742 7.22461 6.75423 7.61011 7.01657C7.9956 7.27892 8.32053 7.62071 8.56299 8.01902C8.64599 8.14502 8.712 8.281 8.797 8.405C8.81548 8.42434 8.82899 8.44791 8.83643 8.47361C8.84386 8.4993 8.84502 8.52636 8.83972 8.55258C8.83442 8.57881 8.82274 8.60333 8.80591 8.62412C8.78907 8.64491 8.76747 8.66133 8.74292 8.67197C8.28488 9.0416 7.73004 9.27141 7.14478 9.33383C6.55951 9.39626 5.9687 9.28872 5.44299 9.02402C4.78752 8.67269 4.22311 8.17309 3.79492 7.56504C3.67892 7.41504 3.57094 7.25304 3.43994 7.06504Z" fill="#16AE44"/>
<path d="M23.024 5.52393C23.3017 5.95307 23.5132 6.42169 23.6511 6.91394C23.8007 7.36789 23.8501 7.84883 23.7961 8.32373C23.742 8.79863 23.5858 9.25618 23.3381 9.66492C23.0175 10.1536 22.5909 10.5637 22.09 10.8649C22.0734 10.8808 22.0533 10.8928 22.0313 10.8999C22.0093 10.907 21.986 10.9089 21.9632 10.9056C21.9403 10.9024 21.9186 10.8939 21.8995 10.881C21.8804 10.868 21.8646 10.8509 21.8531 10.8309C21.4061 10.3567 21.124 9.75086 21.0489 9.10352C20.9738 8.45617 21.1094 7.8019 21.436 7.23792C21.8417 6.56337 22.3823 5.97986 23.024 5.52393Z" fill="#16AE44"/>
<path d="M40.1379 13.7769C39.5578 13.7648 38.9912 13.6006 38.4946 13.3007C37.9979 13.0008 37.5887 12.5756 37.3079 12.0679C37.2946 12.053 37.2847 12.0353 37.2791 12.016C37.2735 11.9968 37.2723 11.9766 37.2756 11.9568C37.2789 11.9371 37.2866 11.9183 37.2981 11.9019C37.3095 11.8855 37.3244 11.8718 37.3419 11.862C37.7959 11.4208 38.3772 11.1333 39.0034 11.0402C39.6296 10.9471 40.2692 11.053 40.832 11.3429C41.5096 11.7182 42.1028 12.2288 42.5749 12.8429C42.6499 12.9319 42.663 12.9889 42.546 13.0629C41.8223 13.5134 40.9902 13.7601 40.1379 13.7769Z" fill="#16AE44"/>
<path d="M14.847 4.04492C14.91 4.28292 14.974 4.49088 15.019 4.70288C15.1992 5.43642 15.1789 6.2049 14.96 6.92786C14.8041 7.39393 14.5434 7.8181 14.1979 8.1676C13.8524 8.5171 13.4312 8.78262 12.967 8.94385C12.514 9.12485 12.6 9.19493 12.38 8.70593C12.0664 8.04038 12.0031 7.28409 12.2018 6.57568C12.4005 5.86728 12.8479 5.25419 13.4619 4.84888C13.8903 4.52721 14.3552 4.25738 14.847 4.04492Z" fill="#16AE44"/>
<path d="M34.386 9.99694C34.053 10.2389 33.745 10.4969 33.408 10.7049C32.7173 11.1661 31.8867 11.3702 31.0609 11.2819C30.2272 11.1606 29.4653 10.7427 28.9149 10.1048C28.9016 10.0806 28.8947 10.0535 28.8947 10.0259C28.8947 9.99825 28.9016 9.9711 28.9149 9.94689C29.1553 9.60063 29.4629 9.30616 29.8191 9.0808C30.1753 8.85545 30.5731 8.70377 30.989 8.63488C31.8069 8.53735 32.6326 8.73559 33.317 9.19384C33.655 9.39384 33.963 9.64585 34.283 9.87585C34.3204 9.91344 34.3549 9.95399 34.386 9.99694Z" fill="#16AE44"/>
<path d="M36.923 5.74701C36.2751 6.51228 35.394 7.04374 34.4149 7.25995C33.6223 7.4118 32.8018 7.24351 32.133 6.79193C31.924 6.65593 31.733 6.49191 31.533 6.34491C31.509 6.33345 31.4881 6.31647 31.4722 6.29523C31.4562 6.27398 31.4457 6.24918 31.4414 6.22296C31.4371 6.19675 31.4391 6.16984 31.4474 6.14459C31.4557 6.11935 31.47 6.09649 31.489 6.07794C31.7681 5.61253 32.1671 5.23074 32.6444 4.97248C33.1217 4.71421 33.6598 4.58895 34.202 4.60993C34.925 4.66036 35.6229 4.89551 36.229 5.29291C36.454 5.43091 36.671 5.58401 36.923 5.74701Z" fill="#16AE44"/>
<path d="M28.7479 3.48706C28.8069 3.93306 28.8829 4.33907 28.9089 4.74707C29.008 5.57077 28.7944 6.40163 28.3104 7.07544C27.8264 7.74925 27.1071 8.21688 26.2949 8.38599C26.2624 8.38637 26.2303 8.37882 26.2014 8.36401C26.1725 8.3492 26.1477 8.32761 26.129 8.30103C25.8197 7.71369 25.7125 7.04083 25.8241 6.38647C25.9356 5.73212 26.2596 5.13275 26.7459 4.68103C27.3342 4.1633 28.0128 3.75855 28.7479 3.48706Z" fill="#16AE44"/>
<path d="M35.9359 16.8589C35.0081 16.926 34.0891 16.6404 33.3629 16.059C32.8077 15.5521 32.4234 14.8854 32.2629 14.1509C32.2529 14.1099 32.324 14.02 32.376 13.998C32.8915 13.7363 33.4721 13.6305 34.0468 13.6935C34.6215 13.7566 35.1654 13.9857 35.6119 14.3529C36.2806 14.9389 36.7805 15.6929 37.0599 16.5369C37.1089 16.6609 37.0399 16.697 36.9409 16.712C36.5409 16.77 36.1389 16.8279 35.9359 16.8589Z" fill="#16AE44"/>
<path d="M5.97093 -0.00292969C6.59189 0.162604 7.1654 0.47155 7.64512 0.89917C8.12485 1.32679 8.49748 1.86105 8.73301 2.45898C8.95713 3.20367 8.92971 4.00146 8.65501 4.729C8.63826 4.7581 8.61446 4.78257 8.5858 4.80005C8.55714 4.81752 8.52448 4.82741 8.49095 4.82898C7.82415 4.75942 7.19975 4.46913 6.7169 4.00403C6.23405 3.53893 5.92039 2.92569 5.82591 2.26196C5.73827 1.55877 5.76941 0.845966 5.91795 0.153076C5.93195 0.0999029 5.94964 0.0477696 5.97093 -0.00292969Z" fill="#16AE44"/>
<path d="M18.3439 10.521C18.3589 11.2581 18.1832 11.9866 17.8339 12.636C17.6032 13.0369 17.2878 13.3827 16.9097 13.6492C16.5317 13.9156 16.1001 14.0965 15.645 14.1791C15.505 14.2111 15.3619 14.232 15.2209 14.259C15.1969 14.2667 15.1715 14.269 15.1466 14.2656C15.1216 14.2622 15.0976 14.2534 15.0765 14.2396C15.0554 14.2258 15.0377 14.2074 15.0246 14.1859C15.0115 14.1643 15.0034 14.1401 15.0009 14.115C14.7725 13.4215 14.8004 12.6691 15.0797 11.9945C15.359 11.3199 15.8711 10.7679 16.5229 10.4389C17.0314 10.1654 17.5738 9.96001 18.1359 9.82799C18.2559 9.79699 18.3019 9.82805 18.3089 9.94005C18.3219 10.134 18.3329 10.327 18.3439 10.521Z" fill="#16AE44"/>
<path d="M7.35803 11.1969C7.73803 11.0609 8.09895 10.9019 8.47595 10.8019C9.29918 10.5419 10.1907 10.6064 10.968 10.9819C11.6243 11.3367 12.1475 11.895 12.459 12.5729C12.4637 12.6026 12.4611 12.6331 12.4515 12.6616C12.442 12.6902 12.4256 12.7161 12.4039 12.7369C11.9239 13.1284 11.3321 13.3578 10.7136 13.3923C10.0951 13.4268 9.48157 13.2647 8.96094 12.929C8.34417 12.5049 7.81938 11.9606 7.41797 11.3289C7.40197 11.3059 7.39303 11.2759 7.35803 11.1969Z" fill="#16AE44"/>
<path d="M30.3559 23.867C30.3725 23.7303 30.3818 23.5927 30.3839 23.455C30.3839 23.268 30.4699 23.2299 30.6369 23.2249C31.2827 23.1908 31.9208 23.3774 32.4465 23.754C32.9722 24.1305 33.3544 24.6746 33.53 25.2969C33.6963 25.8702 33.7765 26.4651 33.7679 27.0619C33.7679 27.1679 33.7469 27.2329 33.6209 27.2139C32.6629 27.1121 31.7716 26.6756 31.104 25.981C30.5967 25.396 30.3295 24.6408 30.3559 23.867Z" fill="#16AE44"/>
<path d="M0 3.885C0.222 3.73 0.423916 3.57601 0.638916 3.44201C1.16861 3.10071 1.77406 2.8947 2.40198 2.84203C3.08563 2.79029 3.7638 2.99726 4.302 3.42199C4.53446 3.61251 4.75608 3.81583 4.96594 4.031C4.9872 4.04402 5.00504 4.06191 5.01794 4.08324C5.03085 4.10457 5.0385 4.1288 5.04016 4.15368C5.04183 4.17855 5.03753 4.20345 5.02759 4.22631C5.01764 4.24917 5.00237 4.26928 4.98303 4.28502C4.71064 4.6197 4.36517 4.88762 3.97327 5.06823C3.58137 5.24884 3.15332 5.33734 2.72192 5.32702C2.18526 5.30985 1.66392 5.14402 1.21594 4.84801C0.839942 4.60301 0.493963 4.31002 0.136963 4.03502C0.0875165 3.98861 0.0417517 3.93844 0 3.885Z" fill="#16AE44"/>
<path d="M92.1539 35.021L92.733 33.871C92.865 33.608 92.9999 33.3461 93.1279 33.0811C93.142 33.0368 93.1712 32.9987 93.2102 32.9735C93.2493 32.9483 93.2958 32.9376 93.3419 32.943C93.5599 32.953 93.778 32.943 94.03 32.943C93.841 33.287 93.668 33.604 93.494 33.92C93.21 34.436 92.9209 34.95 92.6429 35.47C92.594 35.5625 92.5672 35.6653 92.5649 35.77C92.5589 36.516 92.5649 37.263 92.5649 38.009V38.2311H91.401C91.401 38.1631 91.392 38.096 91.392 38.031C91.392 37.373 91.392 36.7141 91.387 36.0551C91.384 35.9386 91.3517 35.8247 91.293 35.724C90.906 35.079 90.511 34.438 90.114 33.798C89.9249 33.4312 89.6259 33.1326 89.2589 32.944C89.6314 32.9632 90.0048 32.9599 90.377 32.9341C90.5687 32.889 90.7705 32.9189 90.9408 33.0178C91.1111 33.1168 91.2371 33.2772 91.293 33.4661C91.493 33.9361 91.7829 34.366 92.0339 34.818C92.0629 34.878 92.0999 34.933 92.1539 35.021Z" fill="#0E133A"/>
<path d="M27.978 18.035C27.757 18.077 27.552 18.1291 27.345 18.1531C26.6093 18.2729 25.8547 18.1762 25.173 17.875C24.8201 17.7002 24.5055 17.4567 24.2479 17.1588C23.9904 16.8609 23.7949 16.5145 23.673 16.14C23.652 16.081 23.634 16.021 23.614 15.962C23.497 15.621 23.5069 15.608 23.8369 15.493C24.3614 15.2922 24.9318 15.2426 25.483 15.35C26.1321 15.4975 26.708 15.8698 27.109 16.401C27.4545 16.8408 27.7282 17.3326 27.9199 17.858C27.9409 17.903 27.953 17.951 27.978 18.035Z" fill="#16AE44"/>
<path d="M86.3829 33.583C85.4879 33.489 85.13 33.6481 84.876 34.1691V32.9561H89.025V34.208C88.725 33.48 88.134 33.5571 87.547 33.5601V38.24H86.3829V33.583Z" fill="#0E133A"/>
<path d="M63.726 33.582C63.026 33.515 62.526 33.55 62.226 34.201V32.959H66.371V34.197C66.071 33.477 65.484 33.557 64.903 33.562V38.236H63.726V33.582Z" fill="#0E133A"/>
<path d="M82.9399 38.2529V37.9919C82.9353 36.7133 82.9307 35.4346 82.926 34.1559C82.926 34.1119 82.92 34.0679 82.918 34.0239C82.9309 33.8078 82.8811 33.5925 82.7747 33.4039C82.6682 33.2154 82.5097 33.0616 82.318 32.9609H84.1179V33.1609C84.1179 34.7849 84.1179 36.4079 84.1179 38.0319C84.1179 38.2169 84.065 38.2669 83.886 38.2589C83.576 38.2419 83.2709 38.2529 82.9399 38.2529Z" fill="#0E133A"/>
<path d="M91.109 40.697C89.936 40.713 88.6619 40.729 87.3879 40.75C85.3039 40.784 83.2203 40.82 81.1369 40.858C79.6556 40.884 78.1743 40.9094 76.693 40.934C75.884 40.949 75.075 40.964 74.266 40.988C74.136 40.988 74.102 40.953 74.104 40.832C74.113 40.332 74.048 40.404 74.516 40.41C75.702 40.4233 76.8882 40.439 78.0749 40.457C79.5809 40.481 81.087 40.5064 82.593 40.533C84.099 40.5597 85.6052 40.586 87.1119 40.612C88.4799 40.641 89.848 40.673 91.109 40.697Z" fill="#16AE44"/>
<path d="M27.091 39.7629C27.2071 39.7547 27.3236 39.7713 27.4327 39.8119C27.5417 39.8524 27.6409 39.9159 27.7234 39.9979C27.806 40.08 27.8699 40.1787 27.9111 40.2876C27.9522 40.3964 27.9695 40.5128 27.962 40.6289C27.951 40.861 27.8499 41.0796 27.6801 41.2381C27.5103 41.3967 27.2853 41.4826 27.053 41.4776C26.8208 41.4727 26.5996 41.3772 26.4367 41.2115C26.2738 41.0459 26.1821 40.8232 26.1811 40.5909C26.1797 40.4747 26.2029 40.3595 26.2493 40.2529C26.2957 40.1463 26.3642 40.0507 26.4501 39.9725C26.5361 39.8943 26.6376 39.8352 26.7481 39.7991C26.8586 39.7629 26.9754 39.7506 27.091 39.7629ZM27.068 41.1349C27.1354 41.1392 27.2028 41.1291 27.2658 41.1051C27.3288 41.0811 27.386 41.0439 27.4334 40.996C27.4808 40.948 27.5174 40.8903 27.5406 40.827C27.5638 40.7637 27.5732 40.6961 27.568 40.6289C27.5688 40.5632 27.5565 40.4981 27.532 40.4371C27.5076 40.3762 27.4714 40.3206 27.4255 40.2737C27.3796 40.2267 27.3248 40.1894 27.2645 40.1636C27.2041 40.1378 27.1392 40.1241 27.0735 40.1234C27.0079 40.1227 26.9427 40.1348 26.8818 40.1593C26.8208 40.1837 26.7653 40.2201 26.7183 40.266C26.6714 40.3119 26.634 40.3666 26.6082 40.427C26.5824 40.4874 26.5688 40.5522 26.568 40.6179C26.5629 40.6859 26.5721 40.7542 26.5954 40.8183C26.6186 40.8825 26.6554 40.941 26.7029 40.9899C26.7505 41.0387 26.8079 41.077 26.8714 41.102C26.9349 41.127 27.0028 41.1382 27.071 41.1349H27.068Z" fill="#16AE44"/>
<path d="M65.456 40.617C65.4606 40.7333 65.4409 40.8492 65.3982 40.9575C65.3556 41.0658 65.2908 41.164 65.2082 41.2459C65.1255 41.3279 65.0267 41.3916 64.918 41.4333C64.8094 41.475 64.6933 41.4936 64.5771 41.488C64.4054 41.4862 64.2381 41.4338 64.0962 41.3371C63.9544 41.2405 63.8443 41.104 63.7798 40.9449C63.7153 40.7859 63.6993 40.6113 63.7338 40.4432C63.7683 40.2751 63.8518 40.1209 63.9737 40.0001C64.0956 39.8793 64.2505 39.7972 64.419 39.7643C64.5874 39.7313 64.7619 39.7488 64.9203 39.8148C65.0788 39.8807 65.2142 39.9921 65.3095 40.1349C65.4048 40.2776 65.4558 40.4454 65.456 40.617ZM65.066 40.639C65.0672 40.5733 65.0555 40.508 65.0315 40.4469C65.0076 40.3857 64.9719 40.33 64.9263 40.2827C64.8808 40.2354 64.8263 40.1975 64.7662 40.1712C64.706 40.145 64.6412 40.1307 64.5755 40.1295C64.5098 40.1282 64.4446 40.1399 64.3835 40.1639C64.3223 40.1879 64.2665 40.2237 64.2192 40.2693C64.1719 40.3148 64.134 40.3692 64.1077 40.4294C64.0814 40.4896 64.0672 40.5543 64.066 40.62C64.0634 40.7526 64.1138 40.8807 64.2057 40.9763C64.2977 41.0718 64.424 41.127 64.5566 41.1295C64.6892 41.132 64.8173 41.0817 64.9129 40.9897C65.0084 40.8977 65.0634 40.7716 65.066 40.639Z" fill="#16AE44"/>
<path d="M49.9449 40.6048C49.9389 40.48 49.9614 40.3554 50.0107 40.2406C50.06 40.1257 50.1348 40.0236 50.2295 39.942C50.3241 39.8604 50.4361 39.8013 50.557 39.7694C50.6778 39.7375 50.8044 39.7336 50.927 39.7579C51.0406 39.7602 51.1524 39.7864 51.2552 39.8348C51.358 39.8832 51.4494 39.9528 51.5235 40.0389C51.5976 40.1251 51.6527 40.2259 51.6851 40.3348C51.7176 40.4437 51.7267 40.5582 51.7119 40.6709C51.71 40.7855 51.6845 40.8985 51.637 41.0028C51.5896 41.1071 51.5211 41.2005 51.4359 41.2772C51.3507 41.3539 51.2505 41.4121 51.1418 41.4483C51.0331 41.4846 50.9181 41.4981 50.8039 41.4879C50.6874 41.4943 50.5709 41.4757 50.4621 41.4332C50.3534 41.3908 50.2549 41.3255 50.1735 41.2418C50.0921 41.1581 50.0296 41.058 49.9902 40.9481C49.9508 40.8382 49.9353 40.7212 49.9449 40.6048ZM50.8339 41.1368C50.9379 41.1379 51.0397 41.108 51.1264 41.0506C51.2131 40.9933 51.2806 40.9113 51.3203 40.8152C51.3599 40.7191 51.3698 40.6134 51.3487 40.5116C51.3277 40.4098 51.2766 40.3166 51.2021 40.2441C51.1276 40.1716 51.0331 40.1232 50.9307 40.105C50.8284 40.0867 50.7231 40.0996 50.6281 40.1418C50.5332 40.1841 50.453 40.2539 50.398 40.3421C50.3431 40.4304 50.3159 40.533 50.3199 40.6368C50.3189 40.704 50.3316 40.7707 50.3573 40.8327C50.3829 40.8948 50.4209 40.9508 50.4691 40.9977C50.5172 41.0445 50.5744 41.081 50.6372 41.105C50.6999 41.1289 50.7669 41.1397 50.8339 41.1368Z" fill="#16AE44"/>
<path d="M67.693 41.42C67.6341 41.4468 67.5702 41.4608 67.5055 41.4609C67.4408 41.4609 67.3768 41.4472 67.3179 41.4205C67.2589 41.3937 67.2064 41.3547 67.1638 41.3059C67.1212 41.2572 67.0895 41.2 67.0709 41.138C67.0459 41.083 67.0089 41.009 66.9609 40.992C66.8797 40.9639 66.7919 40.961 66.709 40.9839C66.676 40.9939 66.6719 41.0999 66.6539 41.1619C66.6239 41.2619 66.7389 41.432 66.5179 41.446C66.2969 41.46 66.2689 41.446 66.2689 41.217C66.2689 40.804 66.2689 40.39 66.2689 39.977C66.2689 39.833 66.3109 39.7709 66.4619 39.7769C66.6499 39.7859 66.838 39.7769 67.026 39.7769C67.1431 39.7669 67.2603 39.7948 67.3602 39.8566C67.4602 39.9184 67.5375 40.0107 67.5809 40.1199C67.6322 40.2325 67.6454 40.3589 67.6183 40.4797C67.5912 40.6004 67.5255 40.709 67.431 40.789C67.348 40.859 67.356 40.9159 67.413 40.9949C67.507 41.1339 67.597 41.276 67.693 41.42ZM66.655 40.373C66.655 40.646 66.655 40.6459 66.875 40.6469C67.12 40.6469 67.2539 40.5409 67.2479 40.3549C67.2419 40.1689 67.1139 40.09 66.8679 40.091C66.6549 40.097 66.655 40.097 66.655 40.373Z" fill="#16AE44"/>
<path d="M34.431 40.606C34.431 40.387 34.438 40.1669 34.431 39.9479C34.425 39.8109 34.4799 39.776 34.6069 39.779C34.7339 39.782 34.8329 39.786 34.8189 39.955C34.8069 40.0798 34.8089 40.2056 34.8249 40.33C34.8319 40.38 34.9059 40.421 34.9539 40.462C34.9639 40.471 34.9899 40.462 35.0089 40.462C35.1829 40.454 35.4089 40.5059 35.5139 40.4179C35.6029 40.3439 35.5639 40.1029 35.5599 39.9369C35.5599 39.7919 35.6259 39.7739 35.7429 39.7769C35.8599 39.7799 35.9529 39.77 35.9499 39.936C35.9419 40.374 35.9429 40.814 35.9499 41.253C35.9499 41.415 35.8799 41.4529 35.7319 41.4529C35.5839 41.4529 35.562 41.381 35.562 41.253C35.562 40.81 35.5619 40.81 35.1159 40.81C34.8049 40.81 34.8049 40.8099 34.8039 41.1099C34.8004 41.1538 34.8004 41.1981 34.8039 41.242C34.8289 41.382 34.7909 41.4419 34.6299 41.4469C34.4689 41.4519 34.4209 41.3939 34.4299 41.2409C34.4399 41.0279 34.4299 40.815 34.4299 40.601L34.431 40.606Z" fill="#16AE44"/>
<path d="M32.577 41.4289C32.293 41.4859 32.0769 41.4609 31.9769 41.1739C31.9598 41.113 31.9216 41.0601 31.869 41.0249C31.7807 40.9886 31.6851 40.9732 31.5899 40.9798C31.5619 40.9798 31.5389 41.0889 31.5189 41.1489C31.4839 41.2549 31.6069 41.4298 31.3779 41.4488C31.2189 41.4618 31.1399 41.4279 31.1459 41.2389C31.1609 40.8139 31.1549 40.3869 31.1459 39.9619C31.1459 39.8229 31.1899 39.7719 31.3289 39.7779C31.5169 39.7859 31.7049 39.7699 31.8929 39.7779C32.0098 39.7681 32.1268 39.7955 32.2272 39.8562C32.3277 39.9169 32.4064 40.0077 32.452 40.1158C32.5048 40.2275 32.5197 40.3534 32.4945 40.4744C32.4692 40.5953 32.4051 40.7047 32.312 40.7859C32.2939 40.7978 32.2787 40.8137 32.2677 40.8323C32.2566 40.8509 32.2498 40.8717 32.248 40.8933C32.2462 40.9149 32.2493 40.9366 32.257 40.9568C32.2648 40.977 32.2771 40.9951 32.2929 41.0099C32.3859 41.1419 32.471 41.2779 32.577 41.4289ZM31.5159 40.3739C31.5159 40.6429 31.516 40.6459 31.744 40.6449C32.004 40.6449 32.1259 40.5539 32.1229 40.3649C32.1199 40.1759 31.9949 40.0899 31.7349 40.0909C31.5199 40.0909 31.5149 40.0969 31.5159 40.3739Z" fill="#16AE44"/>
<path d="M61.6959 41.422C61.3399 41.489 61.309 41.4751 61.124 41.2011C61.043 41.0811 60.99 40.927 60.789 40.958C60.689 40.973 60.639 41.0041 60.643 41.1071C60.643 41.1701 60.637 41.2331 60.643 41.2951C60.655 41.4451 60.56 41.4481 60.45 41.4511C60.34 41.4541 60.2779 41.419 60.2789 41.292C60.2839 40.841 60.2789 40.392 60.2849 39.938C60.2849 39.886 60.3429 39.791 60.3729 39.791C60.6656 39.7741 60.9594 39.7885 61.249 39.834C61.3404 39.8583 61.4236 39.9064 61.4904 39.9733C61.5571 40.0402 61.6051 40.1236 61.6293 40.215C61.6534 40.3064 61.6529 40.4025 61.6279 40.4937C61.603 40.5848 61.5543 40.6677 61.487 40.734C61.4591 40.7524 61.4359 40.7771 61.4193 40.8061C61.4027 40.835 61.3931 40.8675 61.3912 40.9008C61.3894 40.9341 61.3954 40.9673 61.4087 40.998C61.422 41.0286 61.4424 41.0557 61.468 41.0771C61.552 41.1831 61.6179 41.303 61.6959 41.422ZM60.6439 40.37C60.6439 40.644 60.644 40.644 60.866 40.646C61.125 40.646 61.2529 40.5611 61.2579 40.3771C61.2629 40.1931 61.145 40.0931 60.885 40.0911C60.646 40.0901 60.6449 40.097 60.6439 40.37Z" fill="#16AE44"/>
<path d="M46.803 40.6189C46.803 40.8439 46.797 41.07 46.803 41.295C46.808 41.465 46.696 41.444 46.588 41.45C46.48 41.456 46.427 41.417 46.425 41.29C46.418 40.811 46.4131 40.811 45.9311 40.811C45.6671 40.811 45.667 40.811 45.666 41.08C45.666 41.13 45.666 41.1799 45.666 41.2299C45.666 41.4299 45.556 41.51 45.366 41.436C45.3445 41.4221 45.3264 41.4036 45.313 41.3818C45.2997 41.3599 45.2914 41.3354 45.289 41.31C45.284 40.846 45.289 40.383 45.289 39.919C45.289 39.795 45.361 39.7789 45.461 39.7809C45.561 39.7829 45.6541 39.7749 45.6551 39.9169C45.6551 40.0419 45.672 40.1669 45.667 40.2919C45.66 40.4339 45.729 40.4819 45.857 40.4779C46.001 40.4779 46.145 40.4629 46.289 40.4649C46.398 40.4649 46.432 40.411 46.432 40.315C46.432 40.183 46.432 40.051 46.432 39.92C46.432 39.765 46.54 39.7839 46.641 39.7799C46.742 39.7759 46.806 39.7999 46.803 39.9229C46.798 40.1549 46.803 40.3869 46.803 40.6189Z" fill="#16AE44"/>
<path d="M56.328 41.4209C56.048 41.4899 55.8501 41.4539 55.7281 41.1889C55.6751 41.0699 55.611 40.9379 55.428 40.9589C55.315 40.9709 55.269 41.0119 55.274 41.1199C55.274 41.1699 55.268 41.2199 55.274 41.2699C55.296 41.4399 55.189 41.4439 55.064 41.4489C54.939 41.4539 54.898 41.4019 54.901 41.2709C54.912 40.8399 54.911 40.407 54.907 39.971C54.907 39.83 54.9441 39.7629 55.0981 39.7709C55.2861 39.7829 55.474 39.7709 55.662 39.7759C55.7789 39.7694 55.8949 39.8 55.9934 39.8632C56.092 39.9264 56.1681 40.019 56.211 40.128C56.2623 40.2369 56.2754 40.3599 56.248 40.4772C56.2205 40.5945 56.1543 40.6991 56.06 40.774C56.0414 40.7853 56.0257 40.8007 56.0141 40.8191C56.0024 40.8375 55.9951 40.8584 55.9928 40.88C55.9905 40.9017 55.9931 40.9236 56.0006 40.944C56.0081 40.9644 56.0203 40.9829 56.036 40.998C56.134 41.135 56.224 41.2689 56.328 41.4209ZM55.276 40.321C55.276 40.642 55.276 40.642 55.503 40.643C55.756 40.643 55.874 40.5489 55.872 40.3489C55.872 40.1669 55.757 40.1019 55.496 40.0849C55.278 40.0749 55.255 40.188 55.276 40.325V40.321Z" fill="#16AE44"/>
<path d="M30.299 40.369C30.299 40.507 30.299 40.6451 30.299 40.7831C30.2979 40.8776 30.2781 40.9709 30.2407 41.0577C30.2033 41.1446 30.1491 41.2231 30.0811 41.2888C30.0131 41.3545 29.9327 41.4061 29.8446 41.4404C29.7565 41.4748 29.6625 41.4913 29.568 41.489C29.4725 41.5023 29.3753 41.4957 29.2825 41.4696C29.1896 41.4435 29.1032 41.3987 29.0286 41.3376C28.9539 41.2766 28.8927 41.2008 28.8488 41.115C28.8048 41.0292 28.7789 40.9352 28.7729 40.839C28.7519 40.539 28.7669 40.239 28.7589 39.939C28.7589 39.776 28.8589 39.786 28.9719 39.781C29.0849 39.776 29.1359 39.825 29.1329 39.946C29.1269 40.197 29.1329 40.446 29.1329 40.699C29.1389 40.986 29.289 41.143 29.533 41.137C29.777 41.131 29.908 40.972 29.911 40.694C29.911 40.456 29.917 40.217 29.911 39.979C29.911 39.822 29.975 39.7791 30.127 39.7791C30.279 39.7791 30.303 39.851 30.297 39.979C30.291 40.107 30.297 40.243 30.297 40.379L30.299 40.369Z" fill="#16AE44"/>
<path d="M36.833 40.6158C36.833 40.3958 36.833 40.1769 36.833 39.9579C36.833 39.8339 36.867 39.7749 37.004 39.7779C37.311 39.7859 37.6179 39.7839 37.9249 39.7779C38.0249 39.7779 38.0749 39.8108 38.0699 39.9178C38.0649 40.0248 38.07 40.1088 37.928 40.1048C37.74 40.1048 37.552 40.1048 37.364 40.1048C37.242 40.1048 37.197 40.1549 37.2 40.2739C37.203 40.3929 37.227 40.4668 37.369 40.4588C37.511 40.4508 37.658 40.4588 37.802 40.4588C37.916 40.4528 37.9549 40.4968 37.9559 40.6108C37.9569 40.7248 37.9209 40.7828 37.7949 40.7768C37.6449 40.7688 37.495 40.7768 37.344 40.7768C37.193 40.7768 37.2029 40.8669 37.2009 40.9669C37.1989 41.0669 37.2239 41.1369 37.3459 41.1349C37.5399 41.1349 37.735 41.1349 37.929 41.1349C38.037 41.1349 38.0719 41.1769 38.0699 41.2799C38.0679 41.3829 38.057 41.4519 37.931 41.4509C37.611 41.4469 37.2913 41.4469 36.9719 41.4509C36.8589 41.4509 36.834 41.3909 36.834 41.2969C36.834 41.0669 36.833 40.8408 36.833 40.6158Z" fill="#16AE44"/>
<path d="M40.5919 41.4328C40.3659 41.4638 40.192 41.4819 40.114 41.2429C40.102 41.2049 40.014 41.1749 39.958 41.1699C39.834 41.1589 39.708 41.1699 39.583 41.1699C39.42 41.1639 39.294 41.1769 39.208 41.3699C39.173 41.4479 38.9689 41.4488 38.8419 41.4848L38.8099 41.4259C38.8339 41.3579 38.8539 41.2879 38.8829 41.2259C39.0699 40.8029 39.262 40.3809 39.444 39.9549C39.4593 39.9013 39.4934 39.8548 39.54 39.8242C39.5866 39.7936 39.6427 39.7806 39.698 39.7878C39.823 39.7928 39.898 39.8139 39.957 39.9449C40.147 40.4009 40.357 40.8508 40.551 41.3028C40.5673 41.3453 40.5809 41.3887 40.5919 41.4328ZM39.974 40.8409L39.726 40.2899L39.668 40.2959L39.438 40.8409H39.974Z" fill="#16AE44"/>
<path d="M52.5139 40.37C52.5069 40.2824 52.5069 40.1945 52.5139 40.107C52.5359 39.98 52.409 39.772 52.699 39.778C52.989 39.784 52.859 39.992 52.871 40.117C52.891 40.317 52.871 40.517 52.88 40.717C52.8742 40.8025 52.8967 40.8874 52.9441 40.9588C52.9914 41.0302 53.061 41.0841 53.142 41.112C53.1922 41.1339 53.2467 41.1439 53.3015 41.1416C53.3563 41.1392 53.4098 41.1245 53.458 41.0983C53.5062 41.0722 53.5478 41.0355 53.5797 40.9909C53.6116 40.9463 53.6328 40.8951 53.642 40.841C53.668 40.5608 53.679 40.2794 53.6749 39.998C53.6809 39.781 53.7009 39.753 53.9129 39.786C53.9435 39.7956 53.9711 39.8127 53.9933 39.8358C54.0155 39.8588 54.0315 39.887 54.0399 39.9179C54.0479 40.2309 54.0549 40.546 54.0329 40.858C53.9995 41.0382 53.903 41.2006 53.7606 41.316C53.6183 41.4314 53.4394 41.4923 53.2562 41.4879C53.073 41.4834 52.8973 41.4139 52.7607 41.2917C52.6242 41.1695 52.5357 41.0026 52.511 40.821C52.502 40.671 52.511 40.521 52.511 40.369L52.5139 40.37Z" fill="#16AE44"/>
<path d="M58.187 40.6061C58.187 40.3931 58.187 40.18 58.187 39.967C58.187 39.835 58.225 39.767 58.37 39.777C58.564 39.786 58.759 39.77 58.952 39.777C59.1017 39.7794 59.2449 39.8383 59.3532 39.9416C59.4614 40.045 59.5268 40.1854 59.5361 40.3348C59.5455 40.4842 59.4981 40.6316 59.4036 40.7477C59.309 40.8637 59.1742 40.94 59.026 40.9611C58.9471 40.982 58.8655 40.9908 58.7839 40.9871C58.5949 40.9661 58.5349 41.049 58.5599 41.224C58.5799 41.373 58.542 41.46 58.36 41.452C58.218 41.446 58.174 41.398 58.179 41.261C58.187 41.042 58.179 40.823 58.179 40.603L58.187 40.6061ZM58.793 40.0911C58.564 40.0911 58.557 40.097 58.556 40.334C58.556 40.664 58.556 40.671 58.756 40.673C59.017 40.673 59.1679 40.565 59.1649 40.373C59.1599 40.197 59.026 40.0971 58.793 40.0911Z" fill="#16AE44"/>
<path d="M23.911 39.8029C24.292 39.7479 24.291 39.748 24.457 40.024C24.546 40.173 24.6369 40.324 24.7469 40.503C24.8099 40.416 24.8569 40.3559 24.8979 40.2929C24.952 40.2162 24.9992 40.135 25.0389 40.05C25.0565 39.9946 25.0856 39.9436 25.1245 39.9004C25.1634 39.8573 25.211 39.8229 25.2643 39.7997C25.3175 39.7765 25.3752 39.765 25.4332 39.7659C25.4913 39.7668 25.5485 39.7802 25.601 39.805C25.477 40.021 25.36 40.2379 25.23 40.4479C25.0279 40.6897 24.9253 40.9993 24.943 41.3139C24.965 41.4549 24.848 41.4519 24.752 41.4489C24.656 41.4459 24.5419 41.4779 24.5659 41.3389C24.5784 40.9676 24.4527 40.6049 24.213 40.321C24.118 40.154 24.02 39.9889 23.911 39.8029Z" fill="#16AE44"/>
<path d="M72.599 40.521C72.7067 40.3681 72.8032 40.2078 72.8879 40.041C72.9929 39.789 73.169 39.7321 73.439 39.8041C73.4 39.8801 73.366 39.955 73.324 40.027C73.208 40.227 73.095 40.4271 72.969 40.6271C72.828 40.8131 72.7604 41.0444 72.7789 41.277C72.7979 41.426 72.708 41.449 72.579 41.453C72.45 41.457 72.3889 41.4071 72.4089 41.2791C72.4317 41.015 72.3531 40.7522 72.189 40.5441C72.038 40.3071 71.902 40.0621 71.757 39.8161C72.087 39.7341 72.1359 39.754 72.2939 40.022C72.3879 40.173 72.481 40.326 72.599 40.521Z" fill="#16AE44"/>
<path d="M43.8209 39.7818C44.0209 39.7818 44.221 39.7878 44.421 39.7818C44.556 39.7758 44.577 39.8449 44.575 39.9549C44.573 40.0649 44.575 40.1499 44.429 40.1339H44.411C43.985 40.1479 43.9859 40.1478 43.9869 40.5678C43.9869 40.8118 43.9869 41.0569 43.9869 41.2999C43.9869 41.4329 43.9209 41.4538 43.8099 41.4528C43.6989 41.4518 43.61 41.4468 43.615 41.2968C43.621 40.9778 43.615 40.6588 43.615 40.3398C43.615 40.1898 43.5779 40.1129 43.4149 40.1329C43.3599 40.1399 43.303 40.1329 43.247 40.1329C43.117 40.1429 43.035 40.1239 43.036 39.9569C43.037 39.7899 43.123 39.7768 43.251 39.7808C43.446 39.7858 43.6329 39.7818 43.8209 39.7818Z" fill="#16AE44"/>
<path d="M70.335 39.781C70.535 39.781 70.735 39.781 70.935 39.781C71.059 39.781 71.084 39.842 71.081 39.944C71.078 40.046 71.09 40.1441 70.943 40.1321H70.9051C70.5151 40.1431 70.514 40.1431 70.514 40.5441C70.514 40.7891 70.507 41.0331 70.514 41.2781C70.519 41.4251 70.452 41.4551 70.321 41.4551C70.19 41.4551 70.14 41.4191 70.143 41.2831C70.15 40.9571 70.143 40.631 70.143 40.305C70.143 40.176 70.101 40.1191 69.969 40.1321C69.907 40.1381 69.8421 40.1241 69.7811 40.1321C69.5951 40.1621 69.538 40.068 69.575 39.909C69.5853 39.8792 69.6029 39.8523 69.6261 39.8308C69.6493 39.8093 69.6775 39.794 69.7081 39.786C69.9211 39.773 70.128 39.781 70.335 39.781Z" fill="#16AE44"/>
<path d="M41.39 40.6039C41.39 40.3899 41.396 40.1769 41.39 39.9639C41.39 39.8269 41.433 39.7759 41.574 39.7769C41.715 39.7779 41.766 39.8109 41.762 39.9569C41.753 40.2829 41.762 40.6099 41.762 40.9359C41.762 41.0839 41.8149 41.1359 41.9619 41.1359C42.1249 41.1279 42.2879 41.1359 42.4509 41.1359C42.5699 41.1359 42.602 41.1909 42.603 41.2979C42.604 41.4049 42.562 41.4559 42.447 41.4539C42.147 41.4539 41.847 41.4539 41.547 41.4539C41.447 41.4539 41.401 41.4119 41.402 41.3069C41.402 41.0749 41.402 40.8429 41.402 40.6069L41.39 40.6039Z" fill="#16AE44"/>
<path d="M68.848 40.6091C68.848 40.8411 68.842 41.0721 68.848 41.3041C68.848 41.4441 68.77 41.4491 68.667 41.4501C68.564 41.4511 68.477 41.4501 68.478 41.3111C68.478 40.8481 68.478 40.3851 68.478 39.9221C68.478 39.7641 68.578 39.7841 68.678 39.7791C68.778 39.7741 68.853 39.802 68.848 39.933C68.842 40.158 68.848 40.3841 68.848 40.6091Z" fill="#16AE44"/>
<path d="M62.858 40.6158C62.858 40.8408 62.852 41.0668 62.858 41.2918C62.858 41.4418 62.778 41.4479 62.666 41.4479C62.554 41.4479 62.4869 41.4338 62.4879 41.2978C62.4939 40.8465 62.4939 40.3956 62.4879 39.9449C62.4879 39.8049 62.549 39.7769 62.671 39.7789C62.793 39.7809 62.864 39.7928 62.858 39.9388C62.85 40.1638 62.858 40.3898 62.858 40.6158Z" fill="#16AE44"/>
<path d="M47.697 41.743C47.7487 41.683 47.7763 41.606 47.7746 41.5268C47.773 41.4476 47.7421 41.3717 47.688 41.3139C47.663 41.2849 47.7449 41.0929 47.8089 41.0739C47.8597 41.0638 47.9121 41.0659 47.9619 41.0802C48.0116 41.0944 48.0573 41.1205 48.0949 41.156C48.2049 41.284 47.995 41.73 47.827 41.761C47.7831 41.7607 47.7393 41.7547 47.697 41.743Z" fill="#16AE44"/>
</g>
<defs>
<clipPath id="clip0_117_313">
<rect width="94.03" height="48.175" fill="white"/>
</clipPath>
</defs>
</svg>
